ply
format ascii 1.0
comment VCGLIB generated
element vertex 615
property float x
property float y
property float z
element face 1230
property list uchar int vertex_indices
end_header
-0.001509 0.019938 -0.000247 
0.000395 0.019988 0.001439 
-0.000106 0.019993 0.001498 
-2.9e-05 0.019992 0.001496 
0.000132 0.019992 0.001491 
0.000737 0.019978 0.02 
-0.000597 0.019985 0.001388 
-0.000778 0.019979 0.001297 
-0.000833 0.019977 0.001267 
-0.000992 0.019969 0.001147 
-0.001187 0.019959 0.000954 
-0.001206 0.019958 0.00093 
-0.002323 0.019861 0.02 
-0.001437 0.019943 0.000518 
-0.001529 0.019936 -1e-05 
-0.001507 0.019938 0.000257 
-0.001327 0.019951 -0.000749 
-0.001196 0.019959 -0.000942 
-0.001177 0.01996 -0.000963 
-0.001032 0.019968 -0.001116 
-0.000845 0.019976 -0.001259 
-0.000819 0.019977 -0.001275 
-0.000778 0.019978 -0.001296 
-0.000541 0.019986 -0.001406 
-0.000119 0.019992 -0.001497 
-0.002323 0.019861 -0.02 
0.000436 0.019987 -0.001426 
0.000466 0.019987 -0.001416 
0.000483 0.019986 -0.001408 
0.000719 0.019979 -0.001297 
0.000737 0.019978 -0.001285 
0.000882 0.019972 -0.001191 
0.003778 0.019627 -0.02 
0.000906 0.019971 -0.001173 
0.001117 0.01996 -0.000962 
0.001267 0.019951 -0.000748 
0.001352 0.019945 -0.000586 
0.001464 0.019937 0.000139 
0.001443 0.019938 0.00026 
0.003778 0.019627 0.02 
0.001266 0.019951 0.000748 
0.00105 0.019964 0.001042 
0.000932 0.019969 0.001145 
0.000847 0.019973 0.001218 
0.000737 0.019978 0.001284 
0.003702 -0.019656 0.004974 
0.003818 -0.019634 0.004799 
0.003997 -0.019598 0.00431 
0.004021 -0.019593 0.00405 
0.004021 -0.019593 -0.00405 
0.004021 -0.019593 -0.00407 
0.003932 -0.019611 -0.004557 
0.00393 -0.019612 -0.004563 
0.001031 -0.019979 0.004224 
0.001115 -0.019975 0.004561 
0.001048 -0.019978 0.00431 
0.001226 -0.019968 0.004798 
0.001293 -0.019964 0.004912 
0.001443 -0.019953 0.005093 
0.001465 -0.019951 0.005115 
0.00156 -0.019944 0.005195 
0.001848 -0.019919 0.005391 
0.002009 -0.019903 0.005455 
0.002261 -0.019875 0.005523 
0.002357 -0.019864 0.005541 
0.002521 -0.019844 0.005546 
0.002781 -0.019809 0.005524 
0.002858 -0.019798 0.005512 
0.003033 -0.019771 0.005456 
0.003088 -0.019763 0.005439 
0.003778 -0.019642 0.02 
0.003325 -0.019724 0.005316 
0.00368 -0.01966 0.005002 
-0.002067 -0.019903 0.005456 
-0.001767 -0.019932 0.005311 
-0.001617 -0.019944 0.005197 
0.000737 -0.019993 0.02 
-0.001577 -0.019947 0.005166 
-0.001431 -0.019958 0.005013 
-0.001416 -0.019959 0.004996 
-0.001282 -0.019968 0.004799 
-0.001264 -0.019969 0.004771 
-0.00117 -0.019975 0.004563 
-0.001168 -0.019975 0.004557 
-0.001157 -0.019976 0.004527 
0.000737 -0.019993 0.00405 
-0.002839 -0.019809 -0.005526 
-0.002579 -0.019844 -0.00555 
-0.005329 -0.019292 -0.02 
-0.0033 -0.019738 -0.005365 
-0.003499 -0.019704 -0.005235 
-0.003876 -0.019634 -0.004799 
-0.003986 -0.019612 -0.004562 
-0.004038 -0.019602 -0.004401 
-0.004054 -0.019598 -0.00431 
-0.004079 -0.019593 -0.00405 
-0.004079 -0.019593 0.00405 
-0.004067 -0.019595 0.004238 
-0.004053 -0.019598 0.00431 
-0.00402 -0.019605 0.004469 
-0.003985 -0.019612 0.004561 
-0.003724 -0.019663 0.005011 
-0.003639 -0.019679 0.005112 
-0.00354 -0.019697 0.005195 
-0.003455 -0.019712 0.005268 
-0.003006 -0.019785 0.005488 
-0.002323 -0.019875 0.02 
-0.002774 -0.019818 0.005537 
-0.002743 -0.019822 0.005541 
-0.002579 -0.019844 0.005546 
-0.001079 -0.01998 -0.00407 
-0.001282 -0.019968 -0.004799 
-0.00127 -0.019969 -0.004781 
0.000737 -0.019993 -0.00405 
-0.001431 -0.019958 -0.005013 
-0.001772 -0.019931 -0.005314 
-0.002323 -0.019875 -0.02 
-0.002264 -0.019882 -0.005516 
0.003778 -0.019641 -0.004858 
0.003668 -0.019663 -0.005013 
0.003528 -0.019688 -0.005162 
0.003483 -0.019696 -0.005196 
0.003269 -0.019733 -0.005346 
0.003778 -0.019642 -0.02 
0.002521 -0.019844 -0.00555 
0.002024 -0.019902 -0.005465 
0.001772 -0.019926 -0.005347 
0.001609 -0.01994 -0.005241 
0.000737 -0.019993 -0.02 
0.001248 -0.019967 -0.004843 
0.001224 -0.019968 -0.004799 
0.001138 -0.019973 -0.004632 
-0.008211 -0.018257 0.02 
-0.010901 -0.016795 0.02 
-0.010901 -0.016795 -0.02 
-0.013336 -0.014938 0.02 
-0.013336 -0.014938 -0.02 
-0.017221 -0.010228 -0.02 
-0.017221 -0.010228 0.02 
-0.018579 -0.007484 -0.02 
-0.019503 -0.004564 -0.02 
-0.019971 -0.001538 0.02 
-0.019971 -0.001538 -0.02 
-0.019971 0.001524 -0.02 
-0.019503 0.00455 0.02 
-0.019503 0.00455 -0.02 
-0.017221 0.010213 0.02 
-0.015459 0.012718 0.02 
-0.013336 0.014924 -0.02 
-0.010901 0.01678 0.02 
-0.010901 0.01678 -0.02 
-0.005329 0.019278 0.02 
-0.005329 0.019278 -0.02 
-0.001529 0.019936 0 
0.001466 0.019937 -0 
0.006731 0.018815 -0.02 
0.012095 0.015899 -0.02 
0.014381 0.013861 0.02 
0.016329 0.011499 0.02 
0.017894 0.008867 0.02 
0.019039 0.006027 -0.02 
0.019971 -7e-06 -0.02 
0.019971 -7e-06 0.02 
0.019736 -0.00306 -0.02 
0.017894 -0.008882 0.02 
0.017894 -0.008882 -0.02 
0.016329 -0.011514 -0.02 
0.014381 -0.013876 -0.02 
0.014381 -0.013876 0.02 
0.012095 -0.015913 0.02 
0.006731 -0.01883 0.02 
0.003271 0.000593 -0.005349 
-0.000542 0.000593 -0.00141 
0.00382 0.000593 0.0048 
-0.001439 0.000593 0.000513 
0.002521 0.000593 -0.00555 
0.00226 0.000593 -0.005527 
0.002008 0.000593 -0.00546 
0.001556 0.000593 -0.005199 
0.00367 0.000593 -0.005014 
0.001021 0.000593 -0.00405 
0.003485 0.000593 -0.005199 
-0.00128 0.000593 -0.0048 
-0.001507 0.000593 0.00026 
-0.004079 0.000593 0.00405 
-0.003989 0.000593 0.004563 
-0.003728 0.000593 0.005014 
-0.001829 0.000593 0.005349 
-0.002066 0.000593 0.00546 
-0.003092 0.000593 0.00546 
0.000721 0.000593 0.001299 
0.002521 0.000593 0.00555 
0.003034 0.000593 0.00546 
0.003271 0.000593 0.005349 
0.001556 0.000593 0.005199 
0.001471 0.000593 0 
0.00127 0.000593 -0.00075 
-0.001102 0.000593 -0.00431 
-0.001178 0.000593 0.000964 
-0.000994 0.000593 0.001149 
0.00112 0.000593 -0.000964 
0.000935 0.000593 -0.001149 
0.000721 0.000593 -0.001299 
0.000484 0.000593 -0.00141 
-0.004079 0.000593 -0.00405 
-0.000542 0.000593 0.00141 
-0.003329 0.000593 -0.005349 
-0.001615 0.000593 -0.005199 
-0.00284 0.000593 -0.005527 
-0.002579 0.000593 -0.00555 
0.001021 -0.01998 -0.00405 
-0.001079 0.000593 -0.00405 
0.001021 -0.01998 0.00405 
-0.008211 -0.018257 -0.02 
-0.007529 -0.012998 -0.02 
-0.01152 -0.009649 -0.02 
-0.01302 -0.007507 -0.02 
-0.015459 -0.012732 -0.02 
-0.014125 -0.005138 -0.02 
0.009612 -0.011498 -0.02 
0.007471 -0.012998 -0.02 
0.012095 -0.015913 -0.02 
0.009525 -0.017578 -0.02 
0.006731 -0.01883 -0.02 
-0.002634 -0.014779 -0.02 
0.017894 0.008867 -0.02 
0.014066 0.005123 -0.02 
0.019736 0.003046 -0.02 
0.014743 -0.002612 -0.02 
0.019039 -0.006042 -0.02 
-0.00516 0.014088 -0.02 
-2.9e-05 0.014993 -0.02 
0.000737 0.019978 -0.02 
0.005101 0.014088 -0.02 
0.007471 0.012983 -0.02 
0.009525 0.017563 -0.02 
0.011461 0.009634 -0.02 
0.014381 0.013861 -0.02 
0.016329 0.011499 -0.02 
-0.015029 -7e-06 -0.02 
-0.014801 0.002597 -0.02 
-0.01302 0.007493 -0.02 
-0.018579 0.007469 -0.02 
-0.017221 0.010213 -0.02 
-0.015459 0.012718 -0.02 
-0.007529 0.012983 -0.02 
-0.008211 0.018243 -0.02 
-0.005329 -0.019292 0.02 
0.009525 -0.017578 0.02 
0.011461 0.009634 0.02 
0.009612 0.011483 0.02 
0.012095 0.015899 0.02 
0.009525 0.017563 0.02 
0.005101 0.014088 0.02 
0.006731 0.018815 0.02 
0.016329 -0.011514 0.02 
0.012961 -0.007507 0.02 
0.019039 -0.006042 0.02 
0.014971 -7e-06 0.02 
0.019736 -0.00306 0.02 
0.019736 0.003046 0.02 
0.014066 0.005123 0.02 
0.019039 0.006027 0.02 
-0.019971 0.001524 0.02 
-0.019503 -0.004564 0.02 
-0.018579 -0.007484 0.02 
-0.01302 -0.007507 0.02 
-0.01152 -0.009649 0.02 
-0.015459 -0.012732 0.02 
-0.009671 -0.011498 0.02 
-0.008211 0.018243 0.02 
-0.013336 0.014924 0.02 
-0.014125 0.005123 0.02 
-0.014801 0.002597 0.02 
-0.018579 0.007469 0.02 
0.002575 0.014765 0.06 
0.012961 0.007493 0.06 
-2.9e-05 0.014993 0.06 
-0.009671 -0.011498 0.06 
-0.007529 -0.012998 0.06 
-0.014125 -0.005138 0.06 
0.002575 -0.014779 0.06 
0.014743 0.002597 0.06 
0.009612 0.011483 0.06 
-0.00516 0.014088 0.06 
-0.007529 0.012983 0.06 
-0.009671 0.011483 0.06 
-0.01152 0.009634 0.06 
0.012961 -0.007507 0.06 
0.014743 -0.002612 0.06 
0.011461 -0.009649 0.06 
0.009612 -0.011498 0.06 
0.014743 0.002597 0.02 
0.014971 -7e-06 0.06 
0.014743 -0.002612 0.02 
0.014066 -0.005138 0.06 
0.014066 -0.005138 0.02 
0.011461 -0.009649 0.02 
0.009612 -0.011498 0.02 
0.007471 -0.012998 0.02 
0.007471 -0.012998 0.06 
0.005101 -0.014103 0.06 
0.005101 -0.014103 0.02 
-2.9e-05 -0.015007 0.06 
0.002575 -0.014779 0.02 
-2.9e-05 -0.015007 0.02 
-0.002634 -0.014779 0.02 
-0.002634 -0.014779 0.06 
-0.00516 -0.014103 0.06 
-0.00516 -0.014103 0.02 
-0.007529 -0.012998 0.02 
-0.01152 -0.009649 0.06 
-0.01302 -0.007507 0.06 
-0.014125 -0.005138 0.02 
-0.014801 -0.002612 0.02 
-0.014801 -0.002612 0.06 
-0.015029 -7e-06 0.06 
-0.015029 -7e-06 0.02 
-0.014801 0.002597 0.06 
-0.014125 0.005123 0.06 
-0.01302 0.007493 0.06 
-0.01302 0.007493 0.02 
-0.01152 0.009634 0.02 
-0.009671 0.011483 0.02 
-0.007529 0.012983 0.02 
-0.002634 0.014765 0.06 
-0.00516 0.014088 0.02 
-0.002634 0.014765 0.02 
-2.9e-05 0.014993 0.02 
0.002575 0.014765 0.02 
0.005101 0.014088 0.06 
0.007471 0.012983 0.02 
0.007471 0.012983 0.06 
0.011461 0.009634 0.06 
0.012961 0.007493 0.02 
0.014066 0.005123 0.06 
0.014971 -7e-06 -0.02 
0.014971 -7e-06 -0.06 
0.014066 -0.005138 -0.06 
0.014066 -0.005138 -0.02 
0.012961 -0.007507 -0.02 
0.012961 -0.007507 -0.06 
0.011461 -0.009649 -0.02 
0.005101 -0.014103 -0.02 
0.002575 -0.014779 -0.02 
-2.9e-05 -0.015007 -0.02 
-2.9e-05 -0.015007 -0.06 
-0.00516 -0.014103 -0.02 
-0.009671 -0.011498 -0.02 
-0.014125 -0.005138 -0.06 
-0.014801 -0.002612 -0.06 
-0.014801 -0.002612 -0.02 
-0.015029 -7e-06 -0.06 
-0.014801 0.002597 -0.06 
-0.014125 0.005123 -0.02 
-0.014125 0.005123 -0.06 
-0.01302 0.007493 -0.06 
-0.01152 0.009634 -0.02 
-0.009671 0.011483 -0.02 
-0.007529 0.012983 -0.06 
-0.002634 0.014765 -0.02 
-2.9e-05 0.014993 -0.06 
0.002575 0.014765 -0.02 
0.009612 0.011483 -0.06 
0.009612 0.011483 -0.02 
0.012961 0.007493 -0.02 
0.014066 0.005123 -0.06 
0.014743 0.002597 -0.02 
0.002575 -0.014779 -0.06 
-0.00516 -0.014103 -0.06 
0.005101 0.014088 -0.06 
0.007471 0.012983 -0.06 
0.014743 0.002597 -0.06 
-0.002634 -0.014779 -0.06 
0.014743 -0.002612 -0.06 
0.009612 -0.011498 -0.06 
0.007471 -0.012998 -0.06 
-0.01152 0.009634 -0.06 
-0.009671 -0.011498 -0.06 
-0.009671 0.011483 -0.06 
0.005101 -0.014103 -0.06 
0.011461 -0.009649 -0.06 
-0.002634 0.014765 -0.06 
0.002575 0.014765 -0.06 
-0.00516 0.014088 -0.06 
-0.007529 -0.012998 -0.06 
0.012961 0.007493 -0.06 
0.011461 0.009634 -0.06 
-0.01152 -0.009649 -0.06 
-0.01302 -0.007507 -0.06 
0.004021 0.000593 0.00405 
-0.003926 -0.019624 0.00471 
-0.003878 0.000593 0.0048 
-0.003938 -0.019622 0.004686 
-0.004057 0.000593 0.00431 
-0.003874 -0.019634 0.004798 
-0.003805 -0.019648 0.004915 
-0.003544 0.000593 0.005199 
-0.003329 0.000593 0.005349 
-0.003326 -0.019733 0.005344 
-0.003231 -0.019749 0.005401 
-0.003091 -0.019771 0.005455 
-0.002839 -0.019809 0.005523 
-0.00284 0.000593 0.005527 
-0.002579 0.000593 0.00555 
-0.002503 -0.019854 0.005548 
-0.002323 -0.019875 0.005525 
-0.002319 -0.019876 0.005524 
-0.002319 0.000593 0.005527 
-0.002269 -0.019882 0.005518 
-0.002234 -0.019885 0.00551 
-0.001797 -0.019929 0.00533 
-0.00183 -0.019926 0.005347 
-0.002007 -0.019909 0.005436 
-0.001615 0.000593 0.005199 
-0.00143 0.000593 0.005014 
-0.001395 -0.019961 0.00497 
-0.00117 0.000593 0.004563 
-0.00128 0.000593 0.0048 
-0.001103 -0.019978 0.00431 
-0.001102 0.000593 0.00431 
-0.0011 -0.019979 0.004296 
-0.001079 0.000593 0.00405 
-0.001079 -0.01998 0.00405 
-0.003839 -0.019641 -0.004864 
-0.003728 0.000593 -0.005014 
-0.001079 -0.01998 -0.00405 
-0.001102 -0.019979 -0.004308 
-0.001102 -0.019979 -0.00431 
-0.00116 -0.019975 -0.004535 
-0.00117 0.000593 -0.004563 
-0.00117 -0.019975 -0.004563 
-0.00117 -0.019975 -0.004565 
-0.00142 -0.019959 -0.005001 
-0.0014 -0.01996 -0.004977 
-0.00143 0.000593 -0.005014 
-0.001585 -0.019947 -0.005173 
-0.001617 -0.019944 -0.005197 
-0.001798 -0.019929 -0.005331 
-0.002012 -0.019909 -0.005438 
-0.00183 -0.019926 -0.005347 
-0.001829 0.000593 -0.005349 
-0.002319 0.000593 -0.005527 
-0.002236 -0.019885 -0.00551 
-0.002066 0.000593 -0.00546 
-0.002067 -0.019903 -0.005456 
-0.002319 -0.019876 -0.005524 
-0.002323 -0.019875 -0.005524 
-0.002498 -0.019854 -0.005548 
-0.002819 -0.019812 -0.005531 
-0.003328 -0.019733 -0.005347 
-0.003092 0.000593 -0.00546 
-0.003092 -0.019771 -0.005459 
-0.00308 -0.019773 -0.005464 
-0.00305 -0.019778 -0.005474 
-0.003726 -0.019663 -0.005012 
-0.003697 -0.019668 -0.005051 
-0.003544 0.000593 -0.005199 
-0.003542 -0.019696 -0.005198 
-0.003523 -0.0197 -0.005216 
-0.003878 0.000593 -0.0048 
-0.003966 -0.019616 -0.004622 
-0.003859 -0.019637 -0.004832 
-0.004077 -0.019593 -0.004131 
-0.004057 0.000593 -0.00431 
-0.003989 0.000593 -0.004563 
-0.004047 -0.0196 -0.00436 
0.001021 0.000593 0.00405 
0.001077 -0.019977 0.004458 
0.001043 0.000593 0.00431 
0.001172 -0.019971 0.004707 
0.001222 0.000593 0.0048 
0.001159 -0.019972 0.004678 
0.001111 0.000593 0.004563 
0.001372 0.000593 0.005014 
0.001375 -0.019958 0.005011 
0.001875 -0.019916 0.005404 
0.002008 0.000593 0.00546 
0.001771 0.000593 0.005349 
0.001773 -0.019926 0.005345 
0.001647 -0.019937 0.005269 
0.00226 0.000593 0.005527 
0.002098 -0.019894 0.005489 
0.002329 -0.019868 0.005538 
0.002832 -0.019802 0.005517 
0.002597 -0.019834 0.005548 
0.002781 0.000593 0.005527 
0.0033 -0.019728 0.005332 
0.00327 -0.019733 0.005347 
0.003778 -0.019641 0.004859 
0.00367 0.000593 0.005014 
0.003669 -0.019662 0.005013 
0.003485 0.000593 0.005199 
0.003516 -0.019691 0.005172 
0.003483 -0.019696 0.005197 
0.00393 -0.019612 0.004565 
0.003833 -0.019631 0.004776 
0.004 -0.019597 0.004299 
0.003998 0.000593 0.00431 
0.00393 0.000593 0.004563 
0.003943 -0.019609 0.004526 
0.00393 -0.019611 0.004563 
0.004021 0.000593 -0.00405 
0.003999 -0.019597 -0.004304 
0.003998 0.000593 -0.00431 
0.003997 -0.019598 -0.00431 
0.003942 -0.019609 -0.004528 
0.00382 0.000593 -0.0048 
0.003692 -0.019658 -0.004987 
0.003818 -0.019634 -0.004799 
0.003835 -0.01963 -0.004773 
0.00393 0.000593 -0.004563 
0.003321 -0.019725 -0.005319 
0.002781 -0.019809 -0.005523 
0.002854 -0.019798 -0.005512 
0.002781 0.000593 -0.005527 
0.002882 -0.019794 -0.005506 
0.003034 0.000593 -0.00546 
0.003032 -0.019771 -0.005456 
0.003107 -0.01976 -0.00543 
0.002619 -0.019831 -0.005547 
0.002282 -0.019873 -0.005531 
0.002261 -0.019876 -0.005526 
0.002054 -0.019899 -0.005475 
0.002008 -0.019903 -0.005458 
0.001558 -0.019944 -0.005197 
0.001582 -0.019942 -0.00522 
0.001771 0.000593 -0.005349 
0.001806 -0.019923 -0.005369 
0.001409 -0.019956 -0.005057 
0.001374 -0.019958 -0.005012 
0.001265 -0.019965 -0.004871 
0.001372 0.000593 -0.005014 
0.001222 0.000593 -0.0048 
0.001047 -0.019978 -0.00431 
0.001057 -0.019978 -0.004378 
0.001064 -0.019977 -0.004409 
0.001111 0.000593 -0.004563 
0.001115 -0.019975 -0.004562 
0.001043 0.000593 -0.00431 
0.001024 -0.01998 -0.004144 
0.000231 0.000593 -0.001477 
0.000231 0.019991 -0.001476 
0.000208 0.019991 -0.001481 
-2.9e-05 0.000593 -0.0015 
0.000685 0.01998 -0.001319 
0.001241 0.019952 -0.000797 
0.001225 0.019953 -0.000823 
0.00108 0.019962 -0.001009 
0.000933 0.019969 -0.001147 
0.001434 0.019939 -0.000331 
0.001426 0.01994 -0.000363 
0.00138 0.000593 -0.000513 
0.001376 0.019943 -0.000512 
0.001461 0.019937 0.000172 
0.001448 0.000593 -0.00026 
0.001468 0.019937 -9.5e-05 
0.001444 0.019938 -0.00026 
0.001448 0.000593 0.00026 
0.001415 0.01994 0.000406 
0.001376 0.019943 0.000511 
0.00138 0.000593 0.000513 
0.00127 0.000593 0.00075 
0.001334 0.019946 0.000626 
0.001321 0.019947 0.000654 
0.0012 0.019955 0.00086 
0.000935 0.000593 0.001149 
0.00112 0.000593 0.000964 
0.001116 0.01996 0.000961 
0.001029 0.019965 0.001063 
0.000484 0.000593 0.00141 
0.000617 0.019982 0.001354 
0.000646 0.019981 0.00134 
0.000718 0.019978 0.001295 
0.000482 0.019986 0.001405 
0.00023 0.019991 0.001474 
0.000231 0.000593 0.001477 
0.000165 0.019992 0.001487 
-0.000289 0.019991 0.001474 
-0.00029 0.000593 0.001477 
-2.9e-05 0.000593 0.0015 
-0.000779 0.000593 0.001299 
-0.000541 0.019986 0.001406 
-0.00037 0.01999 0.001461 
-0.000338 0.01999 0.001468 
-0.001178 0.01996 0.000963 
-0.001024 0.019968 0.001123 
-0.000807 0.019978 0.001283 
-0.001328 0.000593 0.00075 
-0.001327 0.01995 0.000749 
-0.001339 0.01995 0.000732 
-0.001506 0.019938 0.00026 
-0.001448 0.019942 0.000488 
-0.001439 0.019943 0.000513 
-0.001529 0.019936 2.3e-05 
-0.001529 0.000593 0 
-0.001442 0.019943 -0.000504 
-0.001452 0.019942 -0.000475 
-0.001506 0.019938 -0.00026 
-0.001507 0.000593 -0.00026 
-0.001438 0.019943 -0.000513 
-0.001344 0.019949 -0.000722 
-0.001439 0.000593 -0.000513 
-0.001215 0.019957 -0.000919 
-0.000994 0.000593 -0.001149 
-0.001178 0.000593 -0.000964 
-0.001328 0.000593 -0.00075 
-0.000779 0.000593 -0.001299 
-0.000992 0.019969 -0.001147 
-0.000607 0.019984 -0.001384 
-0.000384 0.01999 -0.001458 
-0.000352 0.01999 -0.001465 
-2.9e-05 0.019993 -0.0015 
-0.00029 0.000593 -0.001477 
-0.000289 0.019991 -0.001474 
3 573 572 5 
3 5 572 571 
3 5 571 574 
3 14 0 25 
3 574 1 5 
3 5 1 575 
3 5 575 577 
3 2 12 3 
3 3 12 5 
3 3 5 4 
3 4 5 577 
3 2 578 12 
3 12 578 584 
3 12 584 583 
3 583 582 12 
3 12 582 6 
3 12 6 7 
3 7 587 12 
3 12 587 8 
3 12 8 9 
3 9 586 12 
3 12 586 585 
3 12 585 10 
3 10 11 12 
3 12 11 589 
3 12 589 590 
3 590 13 12 
3 12 13 593 
3 12 593 592 
3 14 25 153 
3 592 591 12 
3 12 591 15 
3 12 15 594 
3 0 598 25 
3 25 598 597 
3 25 597 596 
3 596 600 25 
3 25 600 601 
3 25 601 16 
3 16 603 25 
3 25 603 17 
3 25 17 18 
3 18 19 25 
3 25 19 608 
3 25 608 20 
3 20 21 25 
3 25 21 22 
3 25 22 609 
3 609 23 25 
3 25 23 610 
3 25 610 611 
3 612 232 24 
3 24 232 25 
3 24 25 614 
3 614 25 611 
3 612 543 232 
3 232 543 542 
3 232 542 26 
3 26 27 232 
3 232 27 28 
3 232 28 545 
3 545 29 232 
3 232 29 30 
3 232 30 32 
3 30 31 32 
3 32 31 33 
3 32 33 549 
3 549 548 32 
3 32 548 34 
3 32 34 547 
3 547 546 32 
3 32 546 35 
3 32 35 36 
3 36 553 32 
3 32 553 551 
3 32 551 550 
3 550 557 32 
3 32 557 556 
3 32 556 154 
3 154 37 39 
3 39 37 554 
3 39 554 38 
3 38 559 39 
3 39 559 560 
3 39 560 563 
3 563 564 39 
3 39 564 40 
3 39 40 565 
3 565 568 39 
3 39 568 41 
3 39 41 569 
3 569 42 39 
3 39 42 43 
3 39 43 5 
3 5 43 44 
3 5 44 573 
3 45 489 70 
3 70 489 46 
3 70 46 170 
3 46 496 170 
3 170 496 495 
3 170 495 501 
3 501 500 170 
3 170 500 47 
3 170 47 497 
3 48 49 223 
3 223 49 50 
3 223 50 503 
3 503 505 223 
3 223 505 506 
3 223 506 51 
3 51 52 223 
3 223 52 510 
3 223 510 123 
3 212 53 85 
3 85 53 55 
3 472 76 54 
3 54 76 85 
3 54 85 468 
3 468 85 55 
3 472 470 76 
3 76 470 56 
3 76 56 57 
3 57 475 76 
3 76 475 58 
3 76 58 59 
3 59 60 76 
3 76 60 480 
3 76 480 479 
3 479 61 76 
3 76 61 476 
3 76 476 62 
3 62 482 76 
3 76 482 63 
3 76 63 483 
3 483 64 76 
3 76 64 65 
3 76 65 70 
3 70 65 485 
3 70 485 66 
3 66 484 70 
3 70 484 67 
3 70 67 68 
3 68 69 70 
3 70 69 488 
3 70 488 487 
3 487 71 70 
3 70 71 494 
3 70 494 493 
3 493 491 70 
3 70 491 72 
3 70 72 45 
3 106 407 76 
3 76 407 409 
3 76 409 410 
3 410 73 76 
3 76 73 413 
3 76 413 412 
3 412 411 76 
3 76 411 74 
3 76 74 75 
3 75 77 76 
3 76 77 78 
3 76 78 79 
3 81 85 80 
3 80 85 76 
3 80 76 416 
3 416 76 79 
3 81 82 85 
3 85 82 83 
3 85 83 84 
3 84 419 85 
3 85 419 421 
3 85 421 423 
3 86 454 88 
3 447 448 116 
3 116 448 87 
3 116 87 88 
3 88 87 449 
3 88 449 86 
3 454 453 88 
3 88 453 452 
3 88 452 89 
3 89 450 88 
3 88 450 90 
3 88 90 459 
3 459 458 88 
3 88 458 456 
3 88 456 455 
3 455 424 88 
3 88 424 462 
3 88 462 91 
3 91 461 88 
3 88 461 92 
3 88 92 93 
3 93 466 88 
3 88 466 94 
3 88 94 463 
3 463 95 247 
3 247 95 96 
3 247 96 97 
3 97 98 247 
3 247 98 99 
3 247 99 100 
3 100 393 247 
3 247 393 391 
3 247 391 395 
3 395 396 247 
3 247 396 101 
3 247 101 102 
3 102 103 247 
3 247 103 104 
3 247 104 399 
3 399 400 247 
3 247 400 401 
3 247 401 105 
3 109 405 106 
3 106 405 406 
3 106 406 407 
3 105 402 247 
3 247 402 107 
3 247 107 106 
3 106 107 108 
3 106 108 109 
3 426 110 113 
3 113 110 427 
3 113 427 428 
3 428 429 113 
3 113 429 431 
3 113 431 432 
3 434 128 111 
3 111 128 113 
3 111 113 112 
3 112 113 432 
3 434 433 128 
3 128 433 114 
3 128 114 436 
3 436 437 128 
3 128 437 115 
3 128 115 438 
3 438 440 128 
3 128 440 439 
3 128 439 445 
3 445 443 128 
3 128 443 117 
3 128 117 116 
3 116 117 446 
3 116 446 447 
3 510 509 123 
3 123 509 118 
3 123 118 508 
3 508 119 123 
3 123 119 120 
3 123 120 121 
3 121 512 123 
3 123 512 122 
3 123 122 519 
3 519 518 123 
3 123 518 516 
3 123 516 514 
3 514 513 123 
3 123 513 520 
3 123 520 128 
3 520 124 128 
3 128 124 521 
3 128 521 522 
3 522 523 128 
3 128 523 125 
3 128 125 524 
3 524 528 128 
3 128 528 126 
3 128 126 127 
3 127 526 128 
3 128 526 525 
3 128 525 529 
3 529 530 128 
3 128 530 531 
3 128 531 129 
3 536 535 113 
3 129 130 128 
3 128 130 131 
3 128 131 113 
3 113 131 538 
3 113 538 536 
3 535 534 113 
3 113 534 540 
3 113 540 210 
3 463 247 88 
3 88 247 132 
3 88 132 213 
3 213 132 133 
3 213 133 134 
3 134 133 135 
3 134 135 136 
3 136 135 268 
3 136 268 217 
3 217 268 138 
3 217 138 137 
3 137 138 265 
3 137 265 139 
3 139 265 264 
3 139 264 140 
3 140 264 141 
3 140 141 142 
3 142 141 263 
3 142 263 143 
3 143 263 144 
3 143 144 145 
3 145 144 274 
3 145 274 242 
3 242 274 146 
3 242 146 243 
3 243 146 147 
3 243 147 244 
3 244 147 271 
3 244 271 148 
3 148 271 149 
3 148 149 150 
3 150 149 270 
3 150 270 246 
3 246 270 151 
3 246 151 152 
3 152 151 12 
3 152 12 25 
3 25 12 594 
3 25 594 153 
3 154 39 32 
3 32 39 254 
3 32 254 155 
3 155 254 252 
3 155 252 235 
3 235 252 251 
3 235 251 156 
3 156 251 157 
3 156 157 237 
3 237 157 158 
3 237 158 238 
3 238 158 159 
3 238 159 225 
3 225 159 262 
3 225 262 160 
3 160 262 260 
3 160 260 227 
3 227 260 162 
3 227 162 161 
3 161 162 259 
3 161 259 163 
3 163 259 257 
3 163 257 229 
3 229 257 164 
3 229 164 165 
3 165 164 255 
3 165 255 166 
3 166 255 168 
3 166 168 167 
3 167 168 169 
3 167 169 221 
3 221 169 248 
3 221 248 222 
3 222 248 170 
3 222 170 223 
3 223 170 497 
3 223 497 48 
3 607 604 211 
3 211 604 605 
3 211 605 606 
3 566 567 467 
3 517 171 539 
3 539 171 180 
3 541 544 180 
3 180 544 613 
3 180 613 211 
3 211 613 172 
3 211 172 607 
3 499 173 498 
3 498 173 467 
3 498 467 390 
3 390 467 502 
3 191 481 173 
3 599 595 204 
3 183 174 422 
3 422 174 588 
3 195 555 502 
3 504 502 511 
3 511 502 180 
3 515 517 175 
3 175 517 539 
3 175 539 176 
3 176 539 537 
3 176 537 177 
3 177 537 533 
3 177 533 527 
3 527 533 532 
3 527 532 178 
3 507 511 179 
3 179 511 180 
3 179 180 181 
3 181 180 171 
3 173 490 492 
3 192 486 191 
3 481 477 173 
3 173 477 478 
3 173 478 194 
3 207 435 182 
3 595 183 204 
3 204 183 422 
3 204 422 184 
3 184 422 420 
3 184 420 394 
3 394 420 417 
3 394 417 185 
3 185 417 418 
3 185 418 392 
3 392 418 415 
3 392 415 186 
3 186 415 414 
3 186 414 397 
3 397 414 187 
3 397 187 398 
3 398 187 188 
3 398 188 189 
3 189 188 408 
3 189 408 403 
3 403 408 404 
3 576 570 467 
3 467 570 190 
3 467 190 566 
3 191 173 192 
3 192 173 492 
3 192 492 193 
3 469 467 473 
3 473 467 173 
3 473 173 471 
3 471 173 194 
3 471 194 474 
3 567 562 467 
3 467 562 561 
3 467 561 502 
3 502 561 558 
3 502 558 195 
3 555 552 502 
3 502 552 196 
3 502 196 200 
3 606 602 211 
3 211 602 599 
3 211 599 197 
3 197 599 204 
3 197 204 430 
3 588 198 422 
3 422 198 199 
3 422 199 581 
3 200 201 502 
3 502 201 202 
3 502 202 180 
3 180 202 203 
3 180 203 541 
3 430 204 182 
3 182 204 464 
3 182 464 465 
3 581 205 422 
3 422 205 579 
3 422 579 467 
3 467 579 580 
3 467 580 576 
3 206 451 182 
3 182 451 208 
3 457 206 425 
3 425 206 182 
3 425 182 460 
3 460 182 465 
3 441 207 444 
3 444 207 182 
3 444 182 442 
3 442 182 208 
3 442 208 209 
3 210 180 113 
3 113 180 211 
3 113 211 426 
3 423 422 85 
3 85 422 467 
3 85 467 212 
3 224 88 347 
3 347 88 213 
3 347 213 214 
3 214 213 134 
3 214 134 348 
3 348 134 136 
3 348 136 215 
3 215 136 217 
3 215 217 216 
3 216 217 137 
3 216 137 218 
3 218 137 139 
3 218 139 351 
3 351 139 140 
3 351 140 239 
3 340 166 342 
3 342 166 167 
3 342 167 219 
3 219 167 221 
3 219 221 220 
3 220 221 222 
3 220 222 343 
3 343 222 223 
3 343 223 344 
3 344 223 123 
3 344 123 345 
3 345 123 128 
3 345 128 224 
3 224 128 116 
3 224 116 88 
3 236 238 365 
3 365 238 225 
3 365 225 226 
3 226 225 160 
3 226 160 367 
3 367 160 227 
3 367 227 336 
3 336 227 161 
3 336 161 228 
3 228 161 163 
3 228 163 339 
3 339 163 229 
3 339 229 340 
3 340 229 165 
3 340 165 166 
3 230 152 360 
3 360 152 25 
3 360 25 231 
3 231 25 232 
3 231 232 362 
3 362 232 32 
3 362 32 233 
3 233 32 155 
3 233 155 234 
3 234 155 235 
3 234 235 364 
3 364 235 156 
3 364 156 236 
3 236 156 237 
3 236 237 238 
3 140 142 239 
3 239 142 143 
3 239 143 240 
3 240 143 145 
3 240 145 354 
3 354 145 242 
3 354 242 241 
3 241 242 243 
3 241 243 357 
3 357 243 244 
3 357 244 358 
3 358 244 148 
3 358 148 245 
3 245 148 150 
3 245 150 230 
3 230 150 246 
3 230 246 152 
3 309 247 306 
3 306 247 106 
3 306 106 305 
3 305 106 76 
3 305 76 304 
3 304 76 70 
3 304 70 302 
3 302 70 170 
3 302 170 299 
3 299 170 248 
3 299 248 298 
3 298 248 169 
3 298 169 297 
3 334 158 249 
3 249 158 157 
3 249 157 250 
3 250 157 251 
3 250 251 331 
3 331 251 252 
3 331 252 253 
3 253 252 254 
3 253 254 329 
3 329 254 39 
3 329 39 328 
3 328 39 5 
3 328 5 327 
3 169 168 297 
3 297 168 255 
3 297 255 256 
3 256 255 164 
3 256 164 296 
3 296 164 257 
3 296 257 294 
3 294 257 259 
3 294 259 258 
3 258 259 162 
3 258 162 292 
3 292 162 260 
3 292 260 261 
3 261 260 262 
3 261 262 334 
3 334 262 159 
3 334 159 158 
3 273 263 317 
3 317 263 141 
3 317 141 314 
3 314 141 264 
3 314 264 313 
3 313 264 265 
3 313 265 266 
3 266 265 138 
3 266 138 267 
3 267 138 268 
3 267 268 269 
3 269 268 135 
3 269 135 310 
3 310 135 133 
3 310 133 309 
3 309 133 132 
3 309 132 247 
3 5 12 327 
3 327 12 151 
3 327 151 326 
3 326 151 270 
3 326 270 324 
3 324 270 149 
3 324 149 323 
3 323 149 271 
3 323 271 322 
3 322 271 147 
3 322 147 321 
3 321 147 146 
3 321 146 272 
3 272 146 274 
3 272 274 273 
3 273 274 144 
3 273 144 263 
3 289 293 282 
3 330 275 315 
3 279 308 282 
3 282 308 307 
3 280 282 315 
3 315 282 335 
3 315 335 276 
3 275 277 315 
3 315 277 325 
3 315 325 284 
3 278 279 311 
3 311 279 282 
3 311 282 312 
3 312 282 280 
3 307 303 281 
3 307 281 282 
3 282 281 301 
3 282 301 300 
3 332 330 283 
3 283 330 315 
3 283 315 333 
3 333 315 276 
3 284 285 315 
3 315 285 286 
3 315 286 287 
3 295 289 288 
3 288 289 282 
3 288 282 290 
3 290 282 300 
3 290 300 291 
3 318 316 319 
3 319 316 315 
3 319 315 320 
3 320 315 287 
3 292 293 258 
3 258 293 289 
3 258 289 294 
3 294 289 295 
3 294 295 296 
3 296 295 288 
3 296 288 256 
3 256 288 290 
3 256 290 297 
3 297 290 291 
3 297 291 298 
3 298 291 300 
3 298 300 299 
3 299 300 301 
3 299 301 302 
3 302 301 281 
3 302 281 304 
3 304 281 303 
3 304 303 305 
3 305 303 307 
3 305 307 306 
3 306 307 308 
3 306 308 309 
3 309 308 279 
3 309 279 310 
3 310 279 278 
3 310 278 269 
3 269 278 311 
3 269 311 267 
3 267 311 312 
3 267 312 266 
3 266 312 280 
3 266 280 313 
3 313 280 315 
3 313 315 314 
3 314 315 316 
3 314 316 317 
3 317 316 318 
3 317 318 273 
3 273 318 319 
3 273 319 272 
3 272 319 320 
3 272 320 321 
3 321 320 287 
3 321 287 322 
3 322 287 286 
3 322 286 323 
3 323 286 285 
3 323 285 324 
3 324 285 284 
3 324 284 326 
3 326 284 325 
3 326 325 327 
3 327 325 277 
3 327 277 328 
3 328 277 275 
3 328 275 329 
3 329 275 330 
3 329 330 253 
3 253 330 332 
3 253 332 331 
3 331 332 283 
3 331 283 250 
3 250 283 333 
3 250 333 249 
3 249 333 276 
3 249 276 334 
3 334 276 335 
3 334 335 261 
3 261 335 282 
3 261 282 292 
3 292 282 293 
3 372 336 337 
3 337 336 228 
3 337 228 374 
3 374 228 339 
3 374 339 338 
3 338 339 340 
3 338 340 341 
3 341 340 342 
3 341 342 381 
3 381 342 219 
3 381 219 375 
3 375 219 220 
3 375 220 376 
3 376 220 343 
3 376 343 380 
3 380 343 344 
3 380 344 368 
3 368 344 345 
3 368 345 346 
3 346 345 224 
3 346 224 373 
3 373 224 347 
3 373 347 369 
3 369 347 214 
3 369 214 385 
3 385 214 348 
3 385 348 378 
3 378 348 215 
3 378 215 388 
3 388 215 216 
3 388 216 389 
3 389 216 218 
3 389 218 349 
3 349 218 351 
3 349 351 350 
3 350 351 239 
3 350 239 352 
3 352 239 240 
3 352 240 353 
3 353 240 354 
3 353 354 355 
3 355 354 241 
3 355 241 356 
3 356 241 357 
3 356 357 377 
3 377 357 358 
3 377 358 379 
3 379 358 245 
3 379 245 359 
3 359 245 230 
3 359 230 384 
3 384 230 360 
3 384 360 382 
3 382 360 231 
3 382 231 361 
3 361 231 362 
3 361 362 383 
3 383 362 233 
3 383 233 370 
3 370 233 234 
3 370 234 371 
3 371 234 364 
3 371 364 363 
3 363 364 236 
3 363 236 387 
3 387 236 365 
3 387 365 386 
3 386 365 226 
3 386 226 366 
3 366 226 367 
3 366 367 372 
3 372 367 336 
3 368 346 373 
3 373 369 383 
3 383 369 385 
3 383 370 373 
3 373 370 371 
3 373 371 363 
3 372 337 373 
3 373 337 374 
3 375 376 381 
3 381 376 380 
3 377 378 388 
3 378 377 385 
3 385 377 379 
3 385 379 359 
3 380 368 381 
3 381 368 373 
3 381 373 341 
3 341 373 374 
3 341 374 338 
3 361 383 382 
3 382 383 385 
3 382 385 384 
3 384 385 359 
3 366 372 386 
3 386 372 373 
3 386 373 387 
3 387 373 363 
3 388 389 377 
3 377 389 349 
3 377 349 350 
3 355 356 353 
3 353 356 377 
3 353 377 352 
3 352 377 350 
3 49 48 502 
3 502 48 390 
3 96 95 184 
3 184 95 204 
3 394 98 184 
3 184 98 97 
3 184 97 96 
3 395 391 392 
3 392 391 393 
3 392 393 185 
3 185 393 100 
3 185 100 394 
3 394 100 99 
3 394 99 98 
3 395 392 396 
3 396 392 186 
3 396 186 101 
3 101 186 102 
3 102 186 397 
3 102 397 103 
3 103 397 104 
3 104 397 398 
3 104 398 399 
3 399 398 400 
3 400 398 189 
3 400 189 401 
3 401 189 105 
3 105 189 403 
3 105 403 402 
3 402 403 107 
3 107 403 404 
3 107 404 108 
3 406 405 404 
3 404 405 109 
3 404 109 108 
3 406 404 407 
3 407 404 408 
3 407 408 409 
3 409 408 188 
3 409 188 410 
3 187 413 188 
3 188 413 73 
3 188 73 410 
3 75 74 414 
3 414 74 411 
3 414 411 187 
3 187 411 412 
3 187 412 413 
3 75 414 77 
3 77 414 415 
3 77 415 78 
3 78 415 79 
3 79 415 418 
3 79 418 416 
3 417 81 418 
3 418 81 80 
3 418 80 416 
3 419 84 420 
3 420 84 83 
3 420 83 417 
3 417 83 82 
3 417 82 81 
3 419 420 421 
3 421 420 422 
3 421 422 423 
3 93 92 465 
3 424 455 425 
3 90 450 206 
3 426 211 110 
3 110 211 197 
3 110 197 427 
3 427 197 428 
3 428 197 429 
3 429 197 430 
3 429 430 431 
3 431 430 432 
3 432 430 182 
3 432 182 112 
3 114 433 435 
3 435 433 434 
3 435 434 182 
3 182 434 111 
3 182 111 112 
3 114 435 436 
3 436 435 207 
3 436 207 437 
3 437 207 115 
3 115 207 441 
3 115 441 438 
3 444 439 441 
3 441 439 440 
3 441 440 438 
3 446 117 442 
3 442 117 443 
3 442 443 444 
3 444 443 445 
3 444 445 439 
3 446 442 447 
3 447 442 209 
3 447 209 448 
3 454 86 208 
3 208 86 449 
3 208 449 209 
3 209 449 87 
3 209 87 448 
3 206 450 451 
3 450 89 451 
3 451 89 452 
3 451 452 208 
3 208 452 453 
3 208 453 454 
3 425 455 457 
3 455 456 457 
3 457 456 458 
3 457 458 206 
3 206 458 459 
3 206 459 90 
3 465 92 460 
3 92 461 460 
3 460 461 91 
3 460 91 425 
3 425 91 462 
3 425 462 424 
3 464 204 95 
3 95 463 464 
3 464 463 94 
3 464 94 465 
3 465 94 466 
3 465 466 93 
3 212 467 53 
3 53 467 469 
3 473 468 469 
3 469 468 55 
3 469 55 53 
3 56 470 471 
3 471 470 472 
3 471 472 473 
3 473 472 54 
3 473 54 468 
3 56 471 57 
3 57 471 474 
3 57 474 475 
3 475 474 58 
3 58 474 194 
3 58 194 59 
3 478 480 194 
3 194 480 60 
3 194 60 59 
3 62 476 477 
3 477 476 61 
3 477 61 478 
3 478 61 479 
3 478 479 480 
3 62 477 482 
3 482 477 481 
3 482 481 63 
3 63 481 483 
3 483 481 191 
3 483 191 64 
3 484 66 486 
3 486 66 485 
3 486 485 191 
3 191 485 65 
3 191 65 64 
3 193 69 192 
3 192 69 68 
3 192 68 486 
3 486 68 67 
3 486 67 484 
3 492 494 193 
3 193 494 71 
3 71 487 193 
3 193 487 488 
3 193 488 69 
3 45 490 489 
3 489 490 173 
3 489 173 46 
3 46 173 496 
3 45 72 490 
3 490 72 491 
3 490 491 492 
3 492 491 493 
3 492 493 494 
3 499 501 173 
3 173 501 495 
3 173 495 496 
3 498 390 48 
3 48 497 498 
3 498 497 47 
3 498 47 499 
3 499 47 500 
3 499 500 501 
3 49 502 50 
3 50 502 503 
3 503 502 505 
3 505 502 504 
3 505 504 506 
3 511 52 504 
3 504 52 51 
3 504 51 506 
3 179 119 507 
3 507 119 508 
3 508 118 507 
3 507 118 509 
3 507 509 511 
3 511 509 510 
3 511 510 52 
3 181 171 122 
3 122 512 181 
3 181 512 121 
3 181 121 179 
3 179 121 120 
3 179 120 119 
3 513 514 515 
3 515 514 516 
3 515 516 517 
3 517 516 518 
3 517 518 171 
3 171 518 519 
3 171 519 122 
3 513 515 520 
3 520 515 175 
3 520 175 124 
3 124 175 521 
3 521 175 176 
3 521 176 522 
3 522 176 523 
3 523 176 177 
3 523 177 125 
3 527 528 177 
3 177 528 524 
3 177 524 125 
3 525 526 178 
3 178 526 127 
3 178 127 527 
3 527 127 126 
3 527 126 528 
3 525 178 529 
3 529 178 532 
3 529 532 530 
3 530 532 531 
3 531 532 533 
3 531 533 129 
3 537 131 533 
3 533 131 130 
3 533 130 129 
3 534 535 539 
3 539 535 536 
3 539 536 537 
3 537 536 538 
3 537 538 131 
3 534 539 540 
3 540 539 180 
3 540 180 210 
3 590 589 588 
3 26 542 541 
3 541 542 543 
3 541 543 544 
3 202 545 203 
3 203 545 28 
3 203 28 541 
3 541 28 27 
3 541 27 26 
3 201 30 202 
3 202 30 29 
3 202 29 545 
3 549 33 201 
3 201 33 31 
3 201 31 30 
3 196 35 200 
3 200 35 546 
3 546 547 200 
3 200 547 34 
3 200 34 201 
3 201 34 548 
3 201 548 549 
3 555 557 552 
3 552 557 550 
3 550 551 552 
3 552 551 553 
3 552 553 196 
3 196 553 36 
3 196 36 35 
3 38 554 558 
3 558 554 37 
3 558 37 195 
3 195 37 154 
3 195 154 555 
3 555 154 556 
3 555 556 557 
3 38 558 559 
3 559 558 561 
3 559 561 560 
3 560 561 563 
3 563 561 562 
3 563 562 564 
3 567 565 562 
3 562 565 40 
3 562 40 564 
3 566 41 567 
3 567 41 568 
3 567 568 565 
3 43 42 566 
3 566 42 569 
3 566 569 41 
3 574 571 570 
3 570 571 572 
3 570 572 190 
3 190 572 573 
3 190 573 566 
3 566 573 44 
3 566 44 43 
3 574 570 1 
3 1 570 576 
3 1 576 575 
3 575 576 577 
3 577 576 580 
3 577 580 4 
3 584 578 579 
3 579 578 2 
3 579 2 580 
3 580 2 3 
3 580 3 4 
3 587 7 581 
3 581 7 6 
3 581 6 205 
3 205 6 582 
3 205 582 579 
3 579 582 583 
3 579 583 584 
3 10 585 198 
3 198 585 586 
3 198 586 199 
3 199 586 9 
3 199 9 581 
3 581 9 8 
3 581 8 587 
3 588 589 198 
3 198 589 11 
3 198 11 10 
3 174 593 588 
3 588 593 13 
3 588 13 590 
3 594 15 183 
3 183 15 591 
3 183 591 174 
3 174 591 592 
3 174 592 593 
3 594 183 153 
3 153 183 595 
3 153 595 14 
3 596 597 599 
3 599 597 598 
3 599 598 595 
3 595 598 0 
3 595 0 14 
3 596 599 600 
3 600 599 602 
3 600 602 601 
3 601 602 16 
3 16 602 606 
3 16 606 603 
3 604 19 605 
3 605 19 18 
3 605 18 606 
3 606 18 17 
3 606 17 603 
3 22 21 607 
3 607 21 20 
3 607 20 604 
3 604 20 608 
3 604 608 19 
3 22 607 609 
3 609 607 172 
3 609 172 23 
3 23 172 610 
3 610 172 613 
3 610 613 611 
3 543 612 544 
3 544 612 24 
3 544 24 613 
3 613 24 614 
3 613 614 611 
