ply
format ascii 1.0
comment VCGLIB generated
element vertex 392
property float x
property float y
property float z
element face 784
property list uchar int vertex_indices
end_header
0.02 -0.000964 -0.001149 
0.02 -0.00075 -0.001299 
0.02 -0.000513 -0.00141 
0.02 0.001299 -0.00075 
0.02 0.00026 -0.001477 
0.02 0 -0.0015 
0.02 -0.00026 -0.001477 
0.02 -0.00141 0.000513 
0.02 -0.001299 0.00075 
0.02 0.00075 0.001299 
0.02 0.000964 0.001149 
0.02 0 0.0015 
0.02 0.00026 0.001477 
0.02 0.0015 0 
0.02 0.001477 -0.00026 
0.02 -0.00141 -0.000513 
0.02 -0.001477 -0.00026 
0.0001 0.000964 0.001149 
0.0001 -0.00405 -0.00105 
0.0001 -0.005349 0.0018 
0.0001 0.0048 0.003849 
0.0001 0.004563 0.00396 
0.0001 0.000513 -0.00141 
0.0001 0.00546 0.003063 
0.0001 0.005349 0.0033 
0.0001 0.005014 0.003699 
0.0001 0.00546 0.002037 
0.0001 0.00405 0.00405 
0.0001 0.000513 0.00141 
0.0001 0.000964 -0.001149 
0.0001 0.001149 -0.000964 
0.0001 -0.00405 0.00405 
0.0001 -0.00546 0.002037 
0.0001 0.00431 0.001073 
0.0001 0.0048 0.001251 
0.0001 0.00405 0.00105 
0.0001 0.005014 0.001401 
0.0001 0.005199 0.001586 
0.0001 0.001299 -0.00075 
0.0001 -0.004563 0.00114 
0.0001 0.001477 0.00026 
0.0001 0.00141 0.000513 
0.0001 -0.005349 0.0033 
0.0001 -0.005199 0.003514 
0.0001 -0.005527 0.00281 
0.0001 -0.00431 0.004027 
0.0001 -0.0048 0.003849 
0.0001 -0.00431 -0.001073 
0.0001 -0.004563 -0.00114 
0.0001 -0.005199 -0.001586 
0.0001 -0.005014 -0.001401 
0.0001 -0.00026 0.001477 
0.0001 -0.000513 0.00141 
0.0001 -0.00405 0.00105 
0.0001 -0.00075 -0.001299 
0.0001 -0.000964 -0.001149 
0.0001 -0.00546 -0.003063 
0.0001 -0.005014 -0.003699 
0.0001 0.00555 -0.00255 
0.0001 -0.00141 0.000513 
0.0001 -0.00141 -0.000513 
0.0001 0.005349 -0.0033 
0.0001 0.005199 -0.003514 
0.0001 0.005014 -0.003699 
0.0001 0.00431 -0.001073 
0.0001 0.00026 -0.001477 
0.0001 0.0048 -0.003849 
0.0001 0.005527 -0.00229 
0.0001 0.0048 -0.001251 
0.0001 0.005199 -0.001586 
-0.02 0.004563 -0.00396 
-0.02 -0.02 0.02 
-0.02 -0.005527 0.00229 
-0.02 -0.005014 -0.003699 
-0.02 0.0048 -0.003849 
-0.02 -0.0048 0.003849 
-0.02 -0.005014 0.003699 
-0.02 0.004563 0.00396 
-0.02 0.00431 0.004027 
-0.02 -0.00405 0.00405 
-0.02 -0.005349 0.0033 
-0.02 -0.00546 0.003063 
-0.02 0.005349 0.0033 
-0.02 -0.005199 0.001586 
-0.02 -0.00546 0.002037 
-0.02 -0.005527 -0.00229 
-0.02 -0.00405 -0.00405 
-0.02 0.00405 -0.00405 
-0.02 0.00405 -0.00105 
-0.02 0.00431 -0.001073 
-0.02 0.005527 -0.00229 
-0.02 0.005014 -0.001401 
-0.02 -0.00405 0.00105 
-0.02 -0.0048 0.001251 
-0.02 -0.004563 0.00114 
-0.02 -0.00431 0.001073 
-0.02 -0.00405 -0.00105 
-0.02 0.005349 0.0018 
-0.02 0.005527 0.00229 
-0.02 0.004563 0.00114 
-0.02 0.005014 0.001401 
-0.02 0.0048 -0.001251 
0.02 0.02 -0.02 
0.013355 -0.014849 -0.02 
0.01375 -0.014665 -0.02 
0.02 -0.02 -0.02 
-0.012934 0.014962 -0.02 
-0.013355 0.014849 -0.02 
-0.01375 0.014665 -0.02 
0.014415 0.014107 -0.02 
0.014107 0.014415 -0.02 
-0.013355 -0.014849 -0.02 
0.012934 0.014962 -0.02 
0.0125 0.015 -0.02 
-0.02 0.02 -0.02 
-0.014962 0.012934 -0.02 
-0.02 -0.02 -0.02 
-0.014665 -0.01375 -0.02 
0.015 -0.0125 -0.02 
-0.012934 -0.014962 -0.02 
-0.0125 -0.015 -0.02 
0.014665 0.01375 0.02 
0.01375 0.014665 0.02 
0.015 0.0125 0.02 
0.02 0.02 0.02 
0.015 -0.0125 0.02 
0.014415 0.014107 0.02 
0.014962 -0.012934 0.02 
0.014665 -0.01375 0.02 
-0.014107 0.014415 0.02 
0.014415 -0.014107 0.02 
0.02 -0.02 0.02 
-0.013355 0.014849 0.02 
-0.012934 0.014962 0.02 
0.012934 0.014962 0.02 
-0.02 0.02 0.02 
-0.014849 0.013355 0.02 
-0.01375 -0.014665 0.02 
-0.014107 -0.014415 0.02 
-0.014415 -0.014107 0.02 
-0.014665 -0.01375 0.02 
-0.014962 0.012934 0.02 
-0.0125 -0.015 0.02 
0.014849 -0.013355 0.06 
0.0125 0.015 0.06 
-0.0125 0.015 0.06 
0.014107 0.014415 0.06 
0.01375 0.014665 0.06 
0.0125 -0.015 0.06 
0.012934 -0.014962 0.06 
0.013355 -0.014849 0.06 
-0.014415 -0.014107 0.06 
-0.014107 -0.014415 0.06 
-0.01375 -0.014665 0.06 
-0.014849 -0.013355 0.06 
-0.013355 -0.014849 0.06 
-0.014962 -0.012934 0.06 
-0.012934 -0.014962 0.06 
-0.015 -0.0125 0.06 
-0.015 0.0125 0.06 
0.014665 -0.01375 0.06 
-0.01375 0.014665 0.06 
0.014849 0.013355 0.06 
0.014962 0.012934 0.06 
-0.014849 0.013355 0.06 
-0.014665 0.01375 0.06 
-0.014107 0.014415 0.06 
-0.014415 0.014107 0.06 
0.0125 -0.015 0.02 
0.015 0.0125 0.06 
0.015 -0.0125 0.06 
-0.0125 0.015 0.02 
-0.015 0.0125 0.02 
-0.015 0.0125 -0.02 
0.0125 0.015 -0.06 
-0.0125 -0.015 -0.06 
-0.01375 0.014665 -0.06 
0.01375 0.014665 -0.06 
0.012934 0.014962 -0.06 
-0.013355 0.014849 -0.06 
-0.014849 0.013355 -0.06 
-0.014962 0.012934 -0.06 
0.014849 -0.013355 -0.06 
0.01375 -0.014665 -0.06 
0.0125 -0.015 -0.06 
-0.0125 0.015 -0.06 
-0.014415 -0.014107 -0.06 
0.015 -0.0125 -0.06 
0.014962 -0.012934 -0.02 
0.014849 -0.013355 -0.02 
0.014962 -0.012934 -0.06 
0.014665 -0.01375 -0.02 
0.014665 -0.01375 -0.06 
0.014415 -0.014107 -0.02 
0.014415 -0.014107 -0.06 
0.014107 -0.014415 -0.02 
0.014107 -0.014415 -0.06 
0.013355 -0.014849 -0.06 
0.012934 -0.014962 -0.06 
0.012934 -0.014962 -0.02 
0.0125 -0.015 -0.02 
-0.012934 -0.014962 -0.06 
-0.013355 -0.014849 -0.06 
-0.01375 -0.014665 -0.06 
-0.01375 -0.014665 -0.02 
-0.014107 -0.014415 -0.06 
-0.014107 -0.014415 -0.02 
-0.014415 -0.014107 -0.02 
-0.014665 -0.01375 -0.06 
-0.014849 -0.013355 -0.02 
-0.014849 -0.013355 -0.06 
-0.014962 -0.012934 -0.06 
-0.014962 -0.012934 -0.02 
-0.015 -0.0125 -0.02 
-0.015 -0.0125 -0.06 
0.013355 0.014849 -0.02 
0.013355 0.014849 -0.06 
0.01375 0.014665 -0.02 
0.014107 0.014415 -0.06 
0.014415 0.014107 -0.06 
0.014665 0.01375 -0.06 
0.014665 0.01375 -0.02 
0.014849 0.013355 -0.02 
0.014849 0.013355 -0.06 
0.014962 0.012934 -0.02 
0.014962 0.012934 -0.06 
0.015 0.0125 -0.02 
0.015 0.0125 -0.06 
-0.015 0.0125 -0.06 
-0.014849 0.013355 -0.02 
-0.014665 0.01375 -0.02 
-0.014665 0.01375 -0.06 
-0.014415 0.014107 -0.02 
-0.014415 0.014107 -0.06 
-0.014107 0.014415 -0.02 
-0.014107 0.014415 -0.06 
-0.012934 0.014962 -0.06 
-0.0125 0.015 -0.02 
-0.0125 -0.015 0.06 
-0.012934 -0.014962 0.02 
-0.013355 -0.014849 0.02 
-0.014665 -0.01375 0.06 
-0.014849 -0.013355 0.02 
-0.014962 -0.012934 0.02 
-0.015 -0.0125 0.02 
-0.014962 0.012934 0.06 
-0.014665 0.01375 0.02 
-0.014415 0.014107 0.02 
-0.01375 0.014665 0.02 
-0.013355 0.014849 0.06 
-0.012934 0.014962 0.06 
0.0125 0.015 0.02 
0.012934 0.014962 0.06 
0.013355 0.014849 0.06 
0.013355 0.014849 0.02 
0.014107 0.014415 0.02 
0.014415 0.014107 0.06 
0.014665 0.01375 0.06 
0.014849 0.013355 0.02 
0.014962 0.012934 0.02 
0.014962 -0.012934 0.06 
0.014849 -0.013355 0.02 
0.014415 -0.014107 0.06 
0.014107 -0.014415 0.02 
0.014107 -0.014415 0.06 
0.01375 -0.014665 0.02 
0.01375 -0.014665 0.06 
0.013355 -0.014849 0.02 
0.012934 -0.014962 0.02 
0.0001 0.00405 -0.00405 
-0.02 0.00405 0.00105 
0.0001 0.00405 -0.00105 
0.0001 0.004563 -0.00114 
-0.02 0.004563 -0.00114 
0.0001 0.005014 -0.001401 
-0.02 0.005199 -0.001586 
0.0001 0.005349 -0.0018 
-0.02 0.005349 -0.0018 
-0.02 0.00546 -0.002037 
0.0001 0.00546 -0.002037 
-0.02 0.00555 -0.00255 
0.0001 0.005527 -0.00281 
-0.02 0.005527 -0.00281 
-0.02 0.00546 -0.003063 
0.0001 0.00546 -0.003063 
-0.02 0.005349 -0.0033 
-0.02 0.005199 -0.003514 
-0.02 0.005014 -0.003699 
0.0001 0.004563 -0.00396 
-0.02 0.00431 -0.004027 
0.0001 0.00431 -0.004027 
0.0001 -0.00405 -0.00405 
-0.02 -0.00431 -0.004027 
0.0001 -0.00431 -0.004027 
-0.02 -0.004563 -0.00396 
0.0001 -0.004563 -0.00396 
-0.02 -0.0048 -0.003849 
0.0001 -0.0048 -0.003849 
0.0001 -0.005199 -0.003514 
-0.02 -0.005199 -0.003514 
-0.02 -0.005349 -0.0033 
0.0001 -0.005349 -0.0033 
-0.02 -0.00546 -0.003063 
-0.02 -0.005527 -0.00281 
-0.02 -0.00555 -0.00255 
0.0001 -0.005527 -0.00281 
0.0001 -0.00555 -0.00255 
0.0001 -0.005527 -0.00229 
-0.02 -0.00546 -0.002037 
0.0001 -0.00546 -0.002037 
0.0001 -0.005349 -0.0018 
-0.02 -0.005349 -0.0018 
-0.02 -0.005199 -0.001586 
-0.02 -0.005014 -0.001401 
-0.02 -0.0048 -0.001251 
0.0001 -0.0048 -0.001251 
-0.02 -0.004563 -0.00114 
-0.02 -0.00431 -0.001073 
0.0001 -0.00431 0.001073 
0.0001 -0.0048 0.001251 
0.0001 -0.005014 0.001401 
-0.02 -0.005014 0.001401 
0.0001 -0.005199 0.001586 
-0.02 -0.005349 0.0018 
0.0001 -0.005527 0.00229 
-0.02 -0.00555 0.00255 
0.0001 -0.00555 0.00255 
-0.02 -0.005527 0.00281 
0.0001 -0.00546 0.003063 
-0.02 -0.005199 0.003514 
0.0001 -0.005014 0.003699 
-0.02 -0.004563 0.00396 
0.0001 -0.004563 0.00396 
-0.02 -0.00431 0.004027 
-0.02 0.00405 0.00405 
0.0001 0.00431 0.004027 
-0.02 0.0048 0.003849 
-0.02 0.005014 0.003699 
-0.02 0.005199 0.003514 
0.0001 0.005199 0.003514 
-0.02 0.00546 0.003063 
0.0001 0.005527 0.00281 
-0.02 0.005527 0.00281 
-0.02 0.00555 0.00255 
0.0001 0.00555 0.00255 
0.0001 0.005527 0.00229 
-0.02 0.00546 0.002037 
-0.02 0.005199 0.001586 
0.0001 0.005349 0.0018 
-0.02 0.0048 0.001251 
0.0001 0.004563 0.00114 
-0.02 0.00431 0.001073 
0.0001 0.00026 0.001477 
0.02 0.000513 0.00141 
0.0001 0.00075 0.001299 
0.0001 0.001149 0.000964 
0.02 0.001149 0.000964 
0.0001 0.001299 0.00075 
0.02 0.001299 0.00075 
0.02 0.00141 0.000513 
0.02 0.001477 0.00026 
0.0001 0.0015 0 
0.0001 0.001477 -0.00026 
0.0001 0.00141 -0.000513 
0.02 0.00141 -0.000513 
0.02 0.001149 -0.000964 
0.02 0.000964 -0.001149 
0.0001 0.00075 -0.001299 
0.02 0.00075 -0.001299 
0.02 0.000513 -0.00141 
0.0001 0 -0.0015 
0.0001 -0.00026 -0.001477 
0.0001 -0.000513 -0.00141 
0.02 -0.001149 -0.000964 
0.0001 -0.001149 -0.000964 
0.0001 -0.001299 -0.00075 
0.02 -0.001299 -0.00075 
0.0001 -0.001477 -0.00026 
0.0001 -0.0015 0 
0.02 -0.0015 0 
0.02 -0.001477 0.00026 
0.0001 -0.001477 0.00026 
0.0001 -0.001299 0.00075 
0.0001 -0.001149 0.000964 
0.02 -0.001149 0.000964 
0.0001 -0.000964 0.001149 
0.02 -0.000964 0.001149 
0.0001 -0.00075 0.001299 
0.02 -0.00075 0.001299 
0.02 -0.000513 0.00141 
0.02 -0.00026 0.001477 
0.0001 0 0.0015 
3 0 105 1 
3 1 105 2 
3 0 373 105 
3 105 373 376 
3 105 376 15 
3 364 3 102 
3 102 3 365 
3 365 366 102 
3 102 366 368 
3 102 368 369 
3 369 4 102 
3 102 4 5 
3 102 5 105 
3 105 5 6 
3 105 6 2 
3 7 8 131 
3 131 8 384 
3 384 386 131 
3 131 386 388 
3 131 388 389 
3 353 9 124 
3 124 9 10 
3 389 390 131 
3 131 390 11 
3 131 11 124 
3 124 11 12 
3 124 12 353 
3 10 356 124 
3 124 356 358 
3 124 358 359 
3 359 360 124 
3 124 360 13 
3 124 13 102 
3 102 13 14 
3 102 14 364 
3 15 16 105 
3 105 16 379 
3 105 379 131 
3 131 379 380 
3 131 380 7 
3 355 17 27 
3 18 269 291 
3 322 19 31 
3 20 25 21 
3 21 25 35 
3 21 35 335 
3 335 35 27 
3 31 27 352 
3 271 65 22 
3 341 344 23 
3 23 344 35 
3 23 35 24 
3 24 35 25 
3 24 25 339 
3 344 345 35 
3 35 345 26 
3 35 26 348 
3 17 354 27 
3 27 354 28 
3 27 28 352 
3 22 367 271 
3 271 367 29 
3 271 29 35 
3 35 29 30 
3 35 30 38 
3 53 318 51 
3 51 318 31 
3 51 31 391 
3 391 31 352 
3 19 32 324 
3 350 33 34 
3 34 33 35 
3 34 35 36 
3 36 35 348 
3 36 348 37 
3 38 363 35 
3 35 363 362 
3 35 362 361 
3 291 293 18 
3 18 293 295 
3 18 295 297 
3 320 322 319 
3 319 322 31 
3 319 31 39 
3 39 31 318 
3 326 330 46 
3 361 40 35 
3 35 40 41 
3 35 41 27 
3 27 41 357 
3 27 357 355 
3 56 305 306 
3 42 43 328 
3 328 43 330 
3 328 330 44 
3 44 330 326 
3 19 324 31 
3 31 324 326 
3 31 326 45 
3 45 326 46 
3 45 46 332 
3 47 18 48 
3 48 18 56 
3 48 56 315 
3 315 56 49 
3 315 49 50 
3 51 52 53 
3 53 52 387 
3 53 387 385 
3 371 269 372 
3 372 269 18 
3 372 18 54 
3 54 18 55 
3 271 63 66 
3 301 56 298 
3 298 56 18 
3 298 18 57 
3 57 18 297 
3 310 49 309 
3 309 49 56 
3 309 56 307 
3 307 56 306 
3 385 383 53 
3 53 383 382 
3 53 382 59 
3 58 281 68 
3 59 381 53 
3 53 381 378 
3 53 378 18 
3 18 378 377 
3 18 377 60 
3 284 61 281 
3 281 61 62 
3 281 62 68 
3 68 62 63 
3 68 63 272 
3 272 63 271 
3 272 271 64 
3 371 370 269 
3 269 370 65 
3 269 65 290 
3 290 65 271 
3 290 271 288 
3 288 271 66 
3 60 375 18 
3 18 375 374 
3 18 374 55 
3 67 58 279 
3 279 58 68 
3 279 68 276 
3 276 68 274 
3 276 274 69 
3 289 70 114 
3 300 299 116 
3 81 327 71 
3 71 327 325 
3 71 325 116 
3 116 325 72 
3 116 72 84 
3 304 303 116 
3 116 303 302 
3 116 302 300 
3 299 73 116 
3 116 73 296 
3 116 296 294 
3 70 74 114 
3 114 74 287 
3 114 287 286 
3 333 331 71 
3 71 331 75 
3 71 75 76 
3 282 280 114 
3 77 78 135 
3 135 78 334 
3 135 334 71 
3 71 334 79 
3 71 79 333 
3 76 329 71 
3 71 329 80 
3 71 80 81 
3 114 280 135 
3 340 82 135 
3 135 82 338 
3 338 337 135 
3 135 337 336 
3 135 336 77 
3 323 83 316 
3 316 83 321 
3 316 321 93 
3 84 308 116 
3 116 308 85 
3 116 85 304 
3 294 292 116 
3 116 292 86 
3 116 86 114 
3 114 86 87 
3 114 87 289 
3 88 270 89 
3 89 270 351 
3 323 316 84 
3 84 316 314 
3 84 314 313 
3 286 285 114 
3 114 285 283 
3 114 283 282 
3 280 90 135 
3 135 90 278 
3 135 278 277 
3 277 275 135 
3 135 275 91 
3 135 91 101 
3 98 343 135 
3 135 343 342 
3 135 342 340 
3 95 92 96 
3 313 312 84 
3 84 312 311 
3 84 311 308 
3 93 94 316 
3 316 94 95 
3 316 95 317 
3 317 95 96 
3 101 97 135 
3 135 97 346 
3 135 346 98 
3 351 99 89 
3 89 99 349 
3 89 349 273 
3 273 349 100 
3 273 100 101 
3 101 100 347 
3 101 347 97 
3 124 102 135 
3 135 102 114 
3 71 116 131 
3 131 116 105 
3 199 103 105 
3 105 103 104 
3 105 104 195 
3 195 193 105 
3 105 193 191 
3 105 191 189 
3 224 222 102 
3 102 222 221 
3 102 221 109 
3 106 107 114 
3 114 107 108 
3 114 108 234 
3 234 232 114 
3 114 232 230 
3 114 230 229 
3 109 110 102 
3 102 110 217 
3 102 217 215 
3 116 204 111 
3 215 112 102 
3 102 112 113 
3 102 113 114 
3 114 113 237 
3 114 237 106 
3 229 115 114 
3 114 115 173 
3 114 173 116 
3 116 173 213 
3 213 212 116 
3 116 212 209 
3 116 209 117 
3 117 207 116 
3 116 207 206 
3 116 206 204 
3 189 188 105 
3 105 188 118 
3 105 118 102 
3 102 118 226 
3 102 226 224 
3 111 119 116 
3 116 119 120 
3 116 120 105 
3 105 120 200 
3 105 200 199 
3 124 121 258 
3 134 254 124 
3 124 254 122 
3 258 259 124 
3 124 259 123 
3 124 123 131 
3 131 123 125 
3 131 125 127 
3 122 255 124 
3 124 255 126 
3 124 126 121 
3 127 261 131 
3 131 261 128 
3 131 128 130 
3 247 129 135 
3 135 129 248 
3 135 248 132 
3 130 263 131 
3 131 263 265 
3 131 265 267 
3 132 133 135 
3 135 133 171 
3 135 171 124 
3 124 171 251 
3 124 251 134 
3 141 136 135 
3 135 136 246 
3 135 246 247 
3 239 240 71 
3 71 240 137 
3 71 137 138 
3 138 139 71 
3 71 139 140 
3 71 140 242 
3 242 243 71 
3 71 243 244 
3 71 244 135 
3 135 244 172 
3 135 172 141 
3 267 268 131 
3 131 268 168 
3 131 168 71 
3 71 168 142 
3 71 142 239 
3 253 252 144 
3 143 260 170 
3 148 144 238 
3 238 144 145 
3 146 147 253 
3 163 253 169 
3 169 253 144 
3 169 144 170 
3 170 144 148 
3 170 148 143 
3 143 148 149 
3 143 149 150 
3 250 249 159 
3 151 152 241 
3 241 152 153 
3 241 153 154 
3 154 153 155 
3 154 155 156 
3 156 155 157 
3 156 157 158 
3 158 157 238 
3 158 238 159 
3 159 238 145 
3 159 145 250 
3 262 160 264 
3 264 160 143 
3 264 143 266 
3 266 143 150 
3 249 161 166 
3 256 146 257 
3 257 146 253 
3 257 253 162 
3 162 253 163 
3 245 159 164 
3 164 159 249 
3 164 249 165 
3 165 249 166 
3 165 166 167 
3 142 168 238 
3 238 168 148 
3 169 170 123 
3 123 170 125 
3 145 144 171 
3 171 144 251 
3 158 159 244 
3 244 159 172 
3 213 173 214 
3 214 173 228 
3 174 185 113 
3 113 185 237 
3 187 227 118 
3 118 227 226 
3 200 120 184 
3 184 120 175 
3 197 198 184 
3 227 187 184 
3 235 176 179 
3 214 228 185 
3 185 228 179 
3 185 179 236 
3 219 220 218 
3 218 220 223 
3 218 223 177 
3 177 223 225 
3 177 225 216 
3 216 225 227 
3 216 227 178 
3 233 235 231 
3 231 235 179 
3 231 179 180 
3 180 179 228 
3 180 228 181 
3 192 194 182 
3 182 194 196 
3 187 190 184 
3 184 190 182 
3 184 182 197 
3 197 182 196 
3 197 196 183 
3 186 208 175 
3 175 208 210 
3 178 227 174 
3 174 227 184 
3 174 184 185 
3 185 184 175 
3 185 175 214 
3 214 175 210 
3 214 210 211 
3 203 205 202 
3 202 205 186 
3 202 186 201 
3 201 186 175 
3 187 118 188 
3 187 188 190 
3 190 188 189 
3 190 189 182 
3 182 189 191 
3 182 191 192 
3 192 191 193 
3 192 193 194 
3 194 193 195 
3 194 195 196 
3 196 195 104 
3 196 104 183 
3 183 104 103 
3 183 103 197 
3 197 103 199 
3 197 199 198 
3 198 199 200 
3 198 200 184 
3 175 120 119 
3 175 119 201 
3 201 119 111 
3 201 111 202 
3 202 111 204 
3 202 204 203 
3 203 204 206 
3 203 206 205 
3 205 206 207 
3 205 207 186 
3 186 207 117 
3 186 117 208 
3 208 117 209 
3 208 209 210 
3 210 209 212 
3 210 212 211 
3 211 212 213 
3 211 213 214 
3 174 113 112 
3 174 112 178 
3 178 112 215 
3 178 215 216 
3 216 215 217 
3 216 217 177 
3 177 217 110 
3 177 110 218 
3 218 110 109 
3 218 109 219 
3 219 109 221 
3 219 221 220 
3 220 221 222 
3 220 222 223 
3 223 222 224 
3 223 224 225 
3 225 224 226 
3 225 226 227 
3 228 173 115 
3 228 115 181 
3 181 115 229 
3 181 229 180 
3 180 229 230 
3 180 230 231 
3 231 230 232 
3 231 232 233 
3 233 232 234 
3 233 234 235 
3 235 234 108 
3 235 108 176 
3 176 108 107 
3 176 107 179 
3 179 107 106 
3 179 106 236 
3 236 106 237 
3 236 237 185 
3 142 238 157 
3 142 157 239 
3 239 157 155 
3 239 155 240 
3 240 155 153 
3 240 153 137 
3 137 153 152 
3 137 152 138 
3 138 152 151 
3 138 151 139 
3 139 151 241 
3 139 241 140 
3 140 241 154 
3 140 154 242 
3 242 154 156 
3 242 156 243 
3 243 156 158 
3 243 158 244 
3 172 159 245 
3 172 245 141 
3 141 245 164 
3 141 164 136 
3 136 164 165 
3 136 165 246 
3 246 165 167 
3 246 167 247 
3 247 167 166 
3 247 166 129 
3 129 166 161 
3 129 161 248 
3 248 161 249 
3 248 249 132 
3 132 249 250 
3 132 250 133 
3 133 250 145 
3 133 145 171 
3 251 144 252 
3 251 252 134 
3 134 252 253 
3 134 253 254 
3 254 253 147 
3 254 147 122 
3 122 147 146 
3 122 146 255 
3 255 146 256 
3 255 256 126 
3 126 256 257 
3 126 257 121 
3 121 257 162 
3 121 162 258 
3 258 162 163 
3 258 163 259 
3 259 163 169 
3 259 169 123 
3 125 170 260 
3 125 260 127 
3 127 260 143 
3 127 143 261 
3 261 143 160 
3 261 160 128 
3 128 160 262 
3 128 262 130 
3 130 262 264 
3 130 264 263 
3 263 264 266 
3 263 266 265 
3 265 266 150 
3 265 150 267 
3 267 150 149 
3 267 149 268 
3 268 149 148 
3 268 148 168 
3 31 79 27 
3 27 79 334 
3 53 18 92 
3 92 18 96 
3 269 87 291 
3 291 87 86 
3 270 88 35 
3 35 88 271 
3 271 88 89 
3 271 89 64 
3 64 89 273 
3 64 273 272 
3 272 273 101 
3 272 101 68 
3 68 101 91 
3 68 91 274 
3 274 91 275 
3 274 275 69 
3 69 275 277 
3 69 277 276 
3 276 277 278 
3 276 278 279 
3 279 278 90 
3 279 90 67 
3 67 90 280 
3 67 280 58 
3 58 280 282 
3 58 282 281 
3 281 282 283 
3 281 283 284 
3 284 283 285 
3 284 285 61 
3 61 285 286 
3 61 286 62 
3 62 286 287 
3 62 287 63 
3 63 287 74 
3 63 74 66 
3 66 74 70 
3 66 70 288 
3 288 70 289 
3 288 289 290 
3 290 289 87 
3 290 87 269 
3 291 86 292 
3 291 292 293 
3 293 292 294 
3 293 294 295 
3 295 294 296 
3 295 296 297 
3 297 296 73 
3 297 73 57 
3 57 73 299 
3 57 299 298 
3 298 299 300 
3 298 300 301 
3 301 300 302 
3 301 302 56 
3 56 302 303 
3 56 303 305 
3 305 303 304 
3 305 304 306 
3 306 304 85 
3 306 85 307 
3 307 85 308 
3 307 308 309 
3 309 308 311 
3 309 311 310 
3 310 311 312 
3 310 312 49 
3 49 312 313 
3 49 313 50 
3 50 313 314 
3 50 314 315 
3 315 314 316 
3 315 316 48 
3 48 316 317 
3 48 317 47 
3 47 317 96 
3 47 96 18 
3 53 92 95 
3 53 95 318 
3 318 95 94 
3 318 94 39 
3 39 94 93 
3 39 93 319 
3 319 93 321 
3 319 321 320 
3 320 321 83 
3 320 83 322 
3 322 83 323 
3 322 323 19 
3 19 323 84 
3 19 84 32 
3 32 84 72 
3 32 72 324 
3 324 72 325 
3 324 325 326 
3 326 325 327 
3 326 327 44 
3 44 327 81 
3 44 81 328 
3 328 81 80 
3 328 80 42 
3 42 80 329 
3 42 329 43 
3 43 329 76 
3 43 76 330 
3 330 76 75 
3 330 75 46 
3 46 75 331 
3 46 331 332 
3 332 331 333 
3 332 333 45 
3 45 333 79 
3 45 79 31 
3 27 334 78 
3 27 78 335 
3 335 78 77 
3 335 77 21 
3 21 77 336 
3 21 336 20 
3 20 336 337 
3 20 337 25 
3 25 337 338 
3 25 338 339 
3 339 338 82 
3 339 82 24 
3 24 82 340 
3 24 340 23 
3 23 340 342 
3 23 342 341 
3 341 342 343 
3 341 343 344 
3 344 343 98 
3 344 98 345 
3 345 98 346 
3 345 346 26 
3 26 346 97 
3 26 97 348 
3 348 97 347 
3 348 347 37 
3 37 347 100 
3 37 100 36 
3 36 100 349 
3 36 349 34 
3 34 349 99 
3 34 99 350 
3 350 99 351 
3 350 351 33 
3 33 351 270 
3 33 270 35 
3 390 391 11 
3 11 391 352 
3 11 352 12 
3 12 352 28 
3 12 28 353 
3 353 28 354 
3 353 354 9 
3 9 354 17 
3 9 17 10 
3 10 17 355 
3 10 355 356 
3 356 355 357 
3 356 357 358 
3 358 357 41 
3 358 41 359 
3 359 41 40 
3 359 40 360 
3 360 40 361 
3 360 361 13 
3 13 361 362 
3 13 362 14 
3 14 362 363 
3 14 363 364 
3 364 363 38 
3 364 38 3 
3 3 38 30 
3 3 30 365 
3 365 30 29 
3 365 29 366 
3 366 29 367 
3 366 367 368 
3 368 367 22 
3 368 22 369 
3 369 22 65 
3 369 65 4 
3 4 65 370 
3 4 370 5 
3 5 370 371 
3 5 371 6 
3 6 371 372 
3 6 372 2 
3 2 372 54 
3 2 54 1 
3 1 54 55 
3 1 55 0 
3 0 55 374 
3 0 374 373 
3 373 374 375 
3 373 375 376 
3 376 375 60 
3 376 60 15 
3 15 60 377 
3 15 377 16 
3 16 377 378 
3 16 378 379 
3 379 378 381 
3 379 381 380 
3 380 381 59 
3 380 59 7 
3 7 59 382 
3 7 382 8 
3 8 382 383 
3 8 383 384 
3 384 383 385 
3 384 385 386 
3 386 385 387 
3 386 387 388 
3 388 387 52 
3 388 52 389 
3 389 52 51 
3 389 51 390 
3 390 51 391 
