ply
format ascii 1.0
comment VCGLIB generated
element vertex 518
property float x
property float y
property float z
element face 1036
property list uchar int vertex_indices
end_header
0.029957 0.001597 -0.02 
0.029618 0.004772 -0.02 
0.028943 0.007893 -0.02 
0.028943 0.007893 0.02 
0.024999 0.016584 -0.02 
0.020929 0.021494 -0.02 
0.020929 0.021494 0.02 
0.015913 0.025432 -0.02 
0.018526 0.023597 0.02 
0.013119 0.026979 0.02 
0.010177 0.028221 -0.02 
0.003982 0.029735 -0.02 
0.000799 0.029989 -0.02 
-0.005559 0.029481 0.02 
-0.008661 0.028723 0.02 
-0.014537 0.026243 0.02 
-0.017244 0.024549 0.02 
-0.019755 0.022577 0.02 
-0.027319 0.012396 0.02 
-0.028482 0.009422 0.02 
-0.02983 0.003189 0.02 
-0.029322 -0.006341 -0.02 
-0.028482 -0.009422 -0.02 
-0.027319 -0.012396 -0.02 
-0.027319 -0.012396 0.02 
-0.025847 -0.01523 -0.02 
-0.024081 -0.017891 0.02 
-0.024081 -0.017891 -0.02 
-0.019755 -0.022577 0.02 
-0.017244 -0.024549 -0.02 
-0.017244 -0.024549 0.02 
-0.014537 -0.026243 -0.02 
-0.014537 -0.026243 0.02 
-0.011665 -0.027639 -0.02 
-0.008661 -0.028723 0.02 
-0.005559 -0.029481 -0.02 
-0.002394 -0.029904 -0.02 
0.000799 -0.029989 -0.02 
-0.002394 -0.029904 0.02 
0.000799 -0.029989 0.02 
0.003982 -0.029735 -0.02 
0.00712 -0.029143 0.02 
0.010177 -0.028221 0.02 
0.010177 -0.028221 -0.02 
0.013119 -0.026979 -0.02 
0.013119 -0.026979 0.02 
0.018526 -0.023597 -0.02 
0.023095 -0.019147 0.02 
0.024999 -0.016584 0.02 
0.026621 -0.013833 0.02 
0.02794 -0.010925 -0.02 
0.028943 -0.007893 -0.02 
0.029618 -0.004772 0.02 
0.029618 -0.004772 -0.02 
0.03 -0 0.02 
0.01538 -0.009353 0.02 
0.02794 -0.010925 0.02 
0.028943 -0.007893 0.02 
0.029957 -0.001597 0.02 
0.000799 0.029989 0.02 
-0.001228 0.017958 0.02 
-0.002394 0.029904 0.02 
0.008281 -0.015982 0.02 
0.012286 -0.013155 0.02 
0.018526 -0.023597 0.02 
0.020929 -0.021494 0.02 
0.001228 -0.017958 0.02 
0.003982 -0.029735 0.02 
0.006028 -0.016961 0.02 
0.015913 -0.025432 0.02 
-0.008281 -0.015982 0.02 
-0.006028 -0.016961 0.02 
-0.003662 -0.017624 0.02 
-0.005559 -0.029481 0.02 
-0.017832 -0.002451 0.02 
-0.03 -0 0.02 
-0.02983 -0.003189 0.02 
-0.029322 -0.006341 0.02 
-0.028482 -0.009422 0.02 
-0.017333 -0.004856 0.02 
-0.01651 -0.007171 0.02 
-0.025847 -0.01523 0.02 
-0.022043 0.020349 0.02 
-0.024081 0.017891 0.02 
-0.025847 0.01523 0.02 
-0.029322 0.006341 0.02 
-0.013963 -0.01136 0.02 
-0.022043 -0.020349 0.02 
-0.012286 -0.013155 0.02 
-0.01038 -0.014705 0.02 
-0.011665 -0.027639 0.02 
0.01038 0.014705 0.02 
0.008281 0.015982 0.02 
0.010177 0.028221 0.02 
0.00712 0.029143 0.02 
0.003982 0.029735 0.02 
0.026621 0.013833 0.02 
0.01538 0.009353 0.02 
0.024999 0.016584 0.02 
0.013963 0.01136 0.02 
0.012286 0.013155 0.02 
0.023095 0.019147 0.02 
0.015913 0.025432 0.02 
-0.006028 0.016961 0.02 
-0.011665 0.027639 0.02 
-0.008281 0.015982 0.02 
-0.01038 0.014705 0.02 
0.018 -0 0.02 
0.029957 0.001597 0.02 
0.029618 0.004772 0.02 
0.01651 0.007171 0.02 
0.02794 0.010925 0.02 
-0.003952 -0.004235 -0.02 
0.000998 -0.004235 -0.02 
-0.005559 0.029481 -0.02 
-0.008661 0.028723 -0.02 
0.001962 0.005385 -0.02 
0.001725 0.005274 -0.02 
-0.022043 -0.020349 -0.02 
-0.019755 -0.022577 -0.02 
-0.002988 -0.005385 -0.02 
0.002735 -0.005452 -0.02 
0.002475 -0.005475 -0.02 
0.00712 -0.029143 -0.02 
0.023095 -0.019147 -0.02 
0.003624 -0.004939 -0.02 
0.020929 -0.021494 -0.02 
0.015913 -0.025432 -0.02 
-0.025847 0.01523 -0.02 
-0.024081 0.017891 -0.02 
-0.022043 0.020349 -0.02 
-0.002215 -0.005452 -0.02 
0.003885 -0.004488 -0.02 
0.026621 -0.013833 -0.02 
0.024999 -0.016584 -0.02 
0.003624 0.004939 -0.02 
0.023095 0.019147 -0.02 
0.001176 0.004725 -0.02 
-0.001176 0.004725 -0.02 
-0.001065 0.004488 -0.02 
-0.002215 0.005452 -0.02 
-0.011665 0.027639 -0.02 
-0.002475 0.005475 -0.02 
-0.002988 0.005385 -0.02 
-0.014537 0.026243 -0.02 
-0.017244 0.024549 -0.02 
-0.019755 0.022577 -0.02 
-0.028482 0.009422 -0.02 
-0.027319 0.012396 -0.02 
0.001962 -0.005385 -0.02 
-0.008661 -0.028723 -0.02 
0.001725 -0.005274 -0.02 
0.001065 -0.004488 -0.02 
-0.000998 -0.004235 -0.02 
0.001176 -0.004725 -0.02 
0.001326 -0.004939 -0.02 
-0.001326 -0.004939 -0.02 
-0.002394 0.029904 -0.02 
0.002215 0.005452 -0.02 
0.002475 0.005475 -0.02 
0.002735 0.005452 -0.02 
0.00712 0.029143 -0.02 
0.026621 0.013833 -0.02 
0.02794 0.010925 -0.02 
0.003952 0.004235 -0.02 
0.013119 0.026979 -0.02 
0.003225 0.005274 -0.02 
0.018526 0.023597 -0.02 
0.003439 0.005124 -0.02 
0.000998 0.004235 -0.02 
-0.000998 0.004235 -0.02 
0.001065 0.004488 -0.02 
0.03 -0 -0.02 
0.029957 -0.001597 -0.02 
0.003975 -0.003975 -0.02 
0.003952 -0.004235 -0.02 
-0.02983 -0.003189 -0.02 
-0.03 -0 -0.02 
-0.02983 0.003189 -0.02 
-0.029322 0.006341 -0.02 
0.014821 0.002233 0.017 
0.014444 0.004047 0.017 
0.013758 0.005976 0.017 
0.013489 0.006495 0.017 
0.012394 0.00845 0.002 
0.012816 0.007794 0.017 
0.011636 0.009466 0.017 
0.010238 0.010963 0.017 
0.010996 0.010203 0.002 
0.009352 0.011727 0.002 
0.00865 0.012255 0.017 
0.007484 0.012964 0.017 
0.0075 0.01299 0.002 
0.006901 0.013318 0.017 
0.00547 0.01394 0.017 
0.00548 0.013963 0.002 
0.003052 0.014686 0.017 
0.003338 0.014624 0.002 
0.00112 0.014952 0.017 
-0.001121 0.014958 0.002 
-0.003338 0.014624 0.002 
-0.003052 0.014686 0.017 
-0.003333 0.014607 0.017 
-0.00547 0.01394 0.017 
-0.00548 0.013963 0.002 
-0.006901 0.013318 0.017 
-0.0075 0.01299 0.002 
-0.00865 0.012255 0.017 
-0.009352 0.011727 0.002 
-0.009331 0.011701 0.017 
-0.010238 0.010963 0.017 
-0.010996 0.010203 0.002 
-0.011636 0.009466 0.017 
-0.012367 0.008431 0.017 
-0.012816 0.007794 0.017 
-0.013515 0.006508 0.002 
-0.014313 0.004414 0.017 
-0.014444 0.004047 0.017 
-0.014832 0.002236 0.002 
-0.01486 0.002042 0.017 
-0.015 -0 0.002 
-0.014832 -0.002236 0.002 
-0.01486 -0.002042 0.017 
-0.014334 -0.004421 0.002 
-0.014444 -0.004047 0.017 
-0.014313 -0.004414 0.017 
-0.013758 -0.005976 0.017 
-0.013489 -0.006495 0.017 
-0.012816 -0.007794 0.017 
-0.012394 -0.00845 0.002 
-0.011636 -0.009466 0.017 
-0.01097 -0.010179 0.017 
-0.010238 -0.010963 0.017 
-0.009331 -0.011701 0.017 
-0.00865 -0.012255 0.017 
-0.0075 -0.01299 0.002 
-0.006901 -0.013318 0.017 
-0.005023 -0.014134 0.017 
-0.003052 -0.014686 0.017 
-0.00112 -0.014952 0.017 
-0.001121 -0.014958 0.002 
0.001024 -0.014965 0.017 
0.00112 -0.014952 0.017 
0.003052 -0.014686 0.017 
0.003333 -0.014607 0.017 
0.00547 -0.01394 0.017 
0.00548 -0.013963 0.002 
0.009352 -0.011727 0.002 
0.009331 -0.011701 0.017 
0.01097 -0.010179 0.017 
0.012816 -0.007794 0.017 
0.013758 -0.005976 0.017 
0.013515 -0.006508 0.002 
0.014444 -0.004047 0.017 
0.01486 -0.002042 0.017 
0.014832 -0.002236 0.002 
0.01486 0.002042 0.017 
0 -0.0015 0.002 
0.001121 -0.014958 0.002 
0.003338 -0.014624 0.002 
0.0075 -0.01299 0.002 
-0.001299 -0.00075 0.002 
-0.013515 -0.006508 0.002 
-0.001149 -0.000964 0.002 
-0.010996 -0.010203 0.002 
-0.009352 -0.011727 0.002 
-0.00075 -0.001299 0.002 
-0.000513 -0.00141 0.002 
-0.00548 -0.013963 0.002 
-0.003338 -0.014624 0.002 
-0.012394 0.00845 0.002 
-0.014334 0.004421 0.002 
-0.0015 -0 0.002 
-0.001477 -0.00026 0.002 
-0.00141 -0.000513 0.002 
0.010996 -0.010203 0.002 
0.012394 -0.00845 0.002 
0.00141 -0.000513 0.002 
0.014334 -0.004421 0.002 
0.001477 -0.00026 0.002 
0.0015 -0 0.002 
0.001477 0.00026 0.002 
0.015 -0 0.002 
0.001121 0.014958 0.002 
0 0.0015 0.002 
-0.000513 0.00141 0.002 
-0.00075 0.001299 0.002 
0.014832 0.002236 0.002 
0.014334 0.004421 0.002 
0.00141 0.000513 0.002 
0.013515 0.006508 0.002 
0.017333 -0.004856 0.02 
0.014821 -0.002233 0.017 
0.01651 -0.007171 0.02 
0.014313 -0.004414 0.017 
0.013489 -0.006495 0.017 
0.013963 -0.01136 0.02 
0.012367 -0.008431 0.017 
0.011636 -0.009466 0.017 
0.010238 -0.010963 0.017 
0.00865 -0.012255 0.017 
0.01038 -0.014705 0.02 
0.007484 -0.012964 0.017 
0.006901 -0.013318 0.017 
0.005023 -0.014134 0.017 
0.003662 -0.017624 0.02 
-0.001228 -0.017958 0.02 
-0.001024 -0.014965 0.017 
-0.003333 -0.014607 0.017 
-0.00547 -0.01394 0.017 
-0.007484 -0.012964 0.017 
-0.012367 -0.008431 0.017 
-0.01538 -0.009353 0.02 
-0.014821 -0.002233 0.017 
-0.018 -0 0.02 
-0.015 -0 0.017 
-0.017832 0.002451 0.02 
-0.014821 0.002233 0.017 
-0.017333 0.004856 0.02 
-0.013758 0.005976 0.017 
-0.013489 0.006495 0.017 
-0.01651 0.007171 0.02 
-0.01538 0.009353 0.02 
-0.013963 0.01136 0.02 
-0.012286 0.013155 0.02 
-0.01097 0.010179 0.017 
-0.007484 0.012964 0.017 
-0.005023 0.014134 0.017 
-0.003662 0.017624 0.02 
-0.00112 0.014952 0.017 
-0.001024 0.014965 0.017 
0.001024 0.014965 0.017 
0.001228 0.017958 0.02 
0.003662 0.017624 0.02 
0.003333 0.014607 0.017 
0.006028 0.016961 0.02 
0.005023 0.014134 0.017 
0.009331 0.011701 0.017 
0.01097 0.010179 0.017 
0.012367 0.008431 0.017 
0.017333 0.004856 0.02 
0.014313 0.004414 0.017 
0.017832 0.002451 0.02 
0.015 -0 0.017 
0.017832 -0.002451 0.02 
-0.003975 -0.003975 -0.02 
-0.000975 -0.003975 -0.02 
0.000975 -0.003975 0.0001 
0.000975 -0.003975 -0.02 
-0.000975 0.003975 -0.02 
0.000975 0.003975 -0.02 
0.003975 -0.003975 0.0001 
-0.003952 -0.004235 0.0001 
-0.001477 -0.00026 0.0001 
-0.001962 0.005385 0.0001 
0.0015 -0 0.0001 
-0.000975 -0.003975 0.0001 
-0.003774 -0.004725 0.0001 
-0.003439 0.005124 0.0001 
0.003975 0.003975 0.0001 
-0.003225 -0.005274 0.0001 
-0.003439 -0.005124 0.0001 
-0.003624 -0.004939 0.0001 
-0.003952 0.004235 0.0001 
-0.002988 0.005385 0.0001 
-0.002735 0.005452 0.0001 
-0.001725 0.005274 0.0001 
-0.001511 0.005124 0.0001 
0.001477 0.00026 0.0001 
0.00141 0.000513 0.0001 
-0.001176 -0.004725 0.0001 
-0.001326 -0.004939 0.0001 
-0.002988 -0.005385 0.0001 
-0.002215 -0.005452 0.0001 
-0.002475 -0.005475 0.0001 
-0.003975 0.003975 0.0001 
0.00075 0.001299 0.0001 
-0.001299 -0.00075 0.0001 
0.00141 -0.000513 0.0001 
0.002735 0.005452 0.0001 
0.002988 0.005385 0.0001 
0.003439 0.005124 0.0001 
0.003774 0.004725 0.0001 
0.003885 -0.004488 0.0001 
0.000513 0.00141 0.0001 
0.000975 0.003975 0.0001 
-0.000975 0.003975 0.0001 
-0.00075 -0.001299 0.0001 
-0.00026 -0.001477 0.0001 
0.003624 -0.004939 0.0001 
0.003439 -0.005124 0.0001 
0.001326 -0.004939 0.0001 
0.001511 -0.005124 0.0001 
0.001725 -0.005274 0.0001 
0.001176 -0.004725 0.0001 
0.000513 -0.00141 0.0001 
0.001149 -0.000964 0.0001 
0.003225 -0.005274 0.0001 
0.001477 -0.00026 0.0001 
0.002988 -0.005385 0.0001 
0.002735 -0.005452 0.0001 
0.002475 -0.005475 0.0001 
-0.000513 0.00141 0.0001 
-0.00075 0.001299 0.0001 
-0.000964 0.001149 0.0001 
-0.001149 0.000964 0.0001 
-0.001477 0.00026 0.0001 
0.000998 0.004235 0.0001 
0.001065 0.004488 0.0001 
0.001176 0.004725 0.0001 
0.001326 0.004939 -0.02 
0.001326 0.004939 0.0001 
0.001511 0.005124 0.0001 
0.001511 0.005124 -0.02 
0.001725 0.005274 0.0001 
0.001962 0.005385 0.0001 
0.002215 0.005452 0.0001 
0.002475 0.005475 0.0001 
0.002988 0.005385 -0.02 
0.003225 0.005274 0.0001 
0.003624 0.004939 0.0001 
0.003774 0.004725 -0.02 
0.003885 0.004488 -0.02 
0.003885 0.004488 0.0001 
0.003952 0.004235 0.0001 
0.003975 0.003975 -0.02 
-0.003975 0.003975 -0.02 
-0.003952 0.004235 -0.02 
-0.003885 0.004488 -0.02 
-0.003885 0.004488 0.0001 
-0.003774 0.004725 -0.02 
-0.003774 0.004725 0.0001 
-0.003624 0.004939 -0.02 
-0.003624 0.004939 0.0001 
-0.003439 0.005124 -0.02 
-0.003225 0.005274 -0.02 
-0.003225 0.005274 0.0001 
-0.002735 0.005452 -0.02 
-0.002475 0.005475 0.0001 
-0.002215 0.005452 0.0001 
-0.001962 0.005385 -0.02 
-0.001725 0.005274 -0.02 
-0.001511 0.005124 -0.02 
-0.001326 0.004939 -0.02 
-0.001326 0.004939 0.0001 
-0.001176 0.004725 0.0001 
-0.001065 0.004488 0.0001 
-0.000998 0.004235 0.0001 
0.003952 -0.004235 0.0001 
0.003774 -0.004725 -0.02 
0.003774 -0.004725 0.0001 
0.003439 -0.005124 -0.02 
0.003225 -0.005274 -0.02 
0.002988 -0.005385 -0.02 
0.002215 -0.005452 -0.02 
0.002215 -0.005452 0.0001 
0.001962 -0.005385 0.0001 
0.001511 -0.005124 -0.02 
0.001065 -0.004488 0.0001 
0.000998 -0.004235 0.0001 
-0.000998 -0.004235 0.0001 
-0.001065 -0.004488 -0.02 
-0.001065 -0.004488 0.0001 
-0.001176 -0.004725 -0.02 
-0.001511 -0.005124 -0.02 
-0.001511 -0.005124 0.0001 
-0.001725 -0.005274 -0.02 
-0.001725 -0.005274 0.0001 
-0.001962 -0.005385 -0.02 
-0.001962 -0.005385 0.0001 
-0.002475 -0.005475 -0.02 
-0.002735 -0.005452 -0.02 
-0.002735 -0.005452 0.0001 
-0.003225 -0.005274 -0.02 
-0.003439 -0.005124 -0.02 
-0.003624 -0.004939 -0.02 
-0.003774 -0.004725 -0.02 
-0.003885 -0.004488 -0.02 
-0.003885 -0.004488 0.0001 
-0.003975 -0.003975 0.0001 
-0.0015 -0 0.0001 
-0.001477 0.00026 0.002 
-0.00141 0.000513 0.0001 
-0.001299 0.00075 0.0001 
-0.00141 0.000513 0.002 
-0.001299 0.00075 0.002 
-0.001149 0.000964 0.002 
-0.000964 0.001149 0.002 
-0.00026 0.001477 0.0001 
-0.00026 0.001477 0.002 
0 0.0015 0.0001 
0.00026 0.001477 0.0001 
0.00026 0.001477 0.002 
0.000513 0.00141 0.002 
0.000964 0.001149 0.0001 
0.00075 0.001299 0.002 
0.000964 0.001149 0.002 
0.001149 0.000964 0.0001 
0.001149 0.000964 0.002 
0.001299 0.00075 0.0001 
0.001299 0.00075 0.002 
0.001299 -0.00075 0.0001 
0.001299 -0.00075 0.002 
0.001149 -0.000964 0.002 
0.000964 -0.001149 0.0001 
0.000964 -0.001149 0.002 
0.00075 -0.001299 0.0001 
0.00075 -0.001299 0.002 
0.000513 -0.00141 0.002 
0.00026 -0.001477 0.0001 
0.00026 -0.001477 0.002 
0 -0.0015 0.0001 
-0.000513 -0.00141 0.0001 
-0.00026 -0.001477 0.002 
-0.000964 -0.001149 0.0001 
-0.000964 -0.001149 0.002 
-0.001149 -0.000964 0.0001 
-0.00141 -0.000513 0.0001 
3 108 54 172 
3 172 54 173 
3 108 172 0 
3 108 0 1 
3 108 1 109 
3 109 1 2 
3 109 2 3 
3 3 2 163 
3 3 163 111 
3 111 163 162 
3 111 162 96 
3 96 162 4 
3 96 4 98 
3 98 4 136 
3 98 136 101 
3 101 136 5 
3 101 5 6 
3 6 5 167 
3 6 167 8 
3 8 167 7 
3 8 7 102 
3 102 7 165 
3 102 165 9 
3 9 165 10 
3 9 10 93 
3 93 10 161 
3 93 161 94 
3 94 161 11 
3 94 11 95 
3 95 11 12 
3 95 12 59 
3 59 12 157 
3 59 157 61 
3 61 157 114 
3 61 114 13 
3 13 114 115 
3 13 115 14 
3 14 115 141 
3 14 141 104 
3 104 141 144 
3 104 144 15 
3 15 144 145 
3 15 145 16 
3 16 145 146 
3 16 146 17 
3 17 146 130 
3 17 130 82 
3 82 130 129 
3 82 129 83 
3 83 129 128 
3 83 128 84 
3 84 128 148 
3 84 148 18 
3 18 148 147 
3 18 147 19 
3 19 147 179 
3 19 179 85 
3 85 179 178 
3 85 178 20 
3 20 178 177 
3 20 177 75 
3 75 177 176 
3 75 176 76 
3 76 176 21 
3 76 21 77 
3 77 21 22 
3 77 22 78 
3 78 22 23 
3 78 23 24 
3 24 23 25 
3 24 25 81 
3 81 25 27 
3 81 27 26 
3 26 27 118 
3 26 118 87 
3 87 118 119 
3 87 119 28 
3 28 119 29 
3 28 29 30 
3 30 29 31 
3 30 31 32 
3 32 31 33 
3 32 33 90 
3 90 33 150 
3 90 150 34 
3 34 150 35 
3 34 35 73 
3 73 35 36 
3 73 36 38 
3 38 36 37 
3 38 37 39 
3 39 37 40 
3 39 40 67 
3 67 40 123 
3 67 123 41 
3 41 123 43 
3 41 43 42 
3 42 43 44 
3 42 44 45 
3 45 44 127 
3 45 127 69 
3 69 127 46 
3 69 46 64 
3 64 46 126 
3 64 126 65 
3 65 126 124 
3 65 124 47 
3 47 124 134 
3 47 134 48 
3 48 134 133 
3 48 133 49 
3 49 133 50 
3 49 50 56 
3 56 50 51 
3 56 51 57 
3 57 51 53 
3 57 53 52 
3 52 53 173 
3 52 173 58 
3 58 173 54 
3 58 107 344 
3 55 49 293 
3 293 49 56 
3 293 56 291 
3 291 56 57 
3 291 57 344 
3 344 57 52 
3 344 52 58 
3 333 95 332 
3 332 95 59 
3 332 59 60 
3 60 59 61 
3 60 61 328 
3 328 61 13 
3 328 13 103 
3 62 69 301 
3 301 69 64 
3 301 64 63 
3 63 64 65 
3 63 65 296 
3 296 65 47 
3 296 47 55 
3 55 47 48 
3 55 48 49 
3 66 67 305 
3 305 67 41 
3 305 41 68 
3 68 41 42 
3 68 42 62 
3 62 42 45 
3 62 45 69 
3 70 90 71 
3 71 90 34 
3 71 34 72 
3 72 34 73 
3 72 73 306 
3 306 73 38 
3 306 38 66 
3 66 38 39 
3 66 39 67 
3 318 85 316 
3 316 85 20 
3 316 20 314 
3 314 20 75 
3 314 75 74 
3 75 76 74 
3 74 76 77 
3 74 77 79 
3 79 77 78 
3 79 78 80 
3 80 78 24 
3 80 24 312 
3 312 24 81 
3 312 81 86 
3 324 82 323 
3 323 82 83 
3 323 83 322 
3 322 83 84 
3 322 84 321 
3 321 84 18 
3 321 18 318 
3 318 18 19 
3 318 19 85 
3 81 26 86 
3 86 26 87 
3 86 87 88 
3 88 87 28 
3 88 28 89 
3 89 28 30 
3 89 30 70 
3 70 30 32 
3 70 32 90 
3 91 102 92 
3 92 102 9 
3 92 9 335 
3 335 9 93 
3 335 93 333 
3 333 93 94 
3 333 94 95 
3 110 96 97 
3 97 96 98 
3 97 98 99 
3 99 98 101 
3 99 101 100 
3 100 101 6 
3 100 6 91 
3 91 6 8 
3 91 8 102 
3 13 14 103 
3 103 14 104 
3 103 104 105 
3 105 104 15 
3 105 15 106 
3 106 15 16 
3 106 16 324 
3 324 16 17 
3 324 17 82 
3 58 54 107 
3 108 107 54 
3 107 108 342 
3 342 108 109 
3 342 109 340 
3 340 109 3 
3 340 3 110 
3 110 3 111 
3 110 111 96 
3 21 345 22 
3 22 345 112 
3 22 112 23 
3 23 112 477 
3 23 477 25 
3 25 477 476 
3 25 476 27 
3 31 471 470 
3 158 116 114 
3 464 156 155 
3 346 348 153 
3 153 348 113 
3 122 37 454 
3 454 37 36 
3 454 36 149 
3 114 116 115 
3 115 116 117 
3 115 117 141 
3 27 476 118 
3 118 476 475 
3 118 475 119 
3 119 475 474 
3 119 474 29 
3 29 474 473 
3 29 473 31 
3 31 473 120 
3 31 120 471 
3 452 44 453 
3 453 44 43 
3 453 43 121 
3 121 43 123 
3 121 123 122 
3 122 123 40 
3 122 40 37 
3 449 124 125 
3 125 124 126 
3 125 126 451 
3 451 126 46 
3 451 46 452 
3 452 46 127 
3 452 127 44 
3 428 128 430 
3 430 128 129 
3 430 129 432 
3 432 129 130 
3 432 130 434 
3 470 131 31 
3 31 131 468 
3 31 468 466 
3 175 50 132 
3 132 50 133 
3 132 133 449 
3 449 133 134 
3 449 134 124 
3 135 136 421 
3 421 136 4 
3 421 4 422 
3 138 117 413 
3 413 410 138 
3 138 410 137 
3 138 137 139 
3 139 137 170 
3 440 140 141 
3 141 140 142 
3 142 437 141 
3 141 437 143 
3 141 143 144 
3 144 143 435 
3 144 435 145 
3 145 435 434 
3 145 434 146 
3 146 434 130 
3 426 179 427 
3 427 179 147 
3 427 147 428 
3 428 147 148 
3 428 148 128 
3 36 35 149 
3 149 35 150 
3 149 150 151 
3 151 150 33 
3 151 33 457 
3 457 33 31 
3 457 31 155 
3 155 31 466 
3 155 466 464 
3 113 152 153 
3 153 152 154 
3 153 154 461 
3 461 154 155 
3 461 155 463 
3 463 155 156 
3 114 157 158 
3 158 157 12 
3 158 12 159 
3 159 12 11 
3 159 11 160 
3 160 11 161 
3 160 161 418 
3 138 443 117 
3 117 443 442 
3 117 442 141 
3 141 442 441 
3 141 441 440 
3 4 162 422 
3 422 162 163 
3 422 163 164 
3 164 163 2 
3 164 2 425 
3 425 2 1 
3 425 1 0 
3 161 10 418 
3 418 10 165 
3 418 165 166 
3 166 165 7 
3 166 7 168 
3 168 7 167 
3 168 167 135 
3 135 167 5 
3 135 5 136 
3 350 349 169 
3 169 349 170 
3 169 170 171 
3 171 170 137 
3 0 172 425 
3 425 172 173 
3 425 173 174 
3 174 173 53 
3 174 53 175 
3 175 53 51 
3 175 51 50 
3 21 176 345 
3 345 176 177 
3 345 177 426 
3 426 177 178 
3 426 178 179 
3 256 287 282 
3 256 180 287 
3 287 180 181 
3 287 181 288 
3 181 341 288 
3 288 341 182 
3 288 182 290 
3 182 183 290 
3 290 183 185 
3 290 185 184 
3 185 339 184 
3 184 339 186 
3 184 186 188 
3 186 338 188 
3 188 338 187 
3 188 187 189 
3 187 337 189 
3 189 337 190 
3 189 190 192 
3 190 191 192 
3 192 191 193 
3 192 193 195 
3 193 194 195 
3 195 194 336 
3 195 336 197 
3 198 283 196 
3 196 283 197 
3 196 197 334 
3 334 197 336 
3 198 331 283 
3 283 331 330 
3 283 330 199 
3 330 329 199 
3 199 329 201 
3 199 201 200 
3 201 202 200 
3 200 202 327 
3 200 327 204 
3 327 203 204 
3 204 203 205 
3 204 205 206 
3 205 326 206 
3 206 326 207 
3 206 207 208 
3 207 209 208 
3 208 209 210 
3 208 210 211 
3 210 325 211 
3 211 325 212 
3 211 212 270 
3 212 213 270 
3 270 213 214 
3 270 214 215 
3 214 320 215 
3 215 320 319 
3 215 319 271 
3 319 216 271 
3 271 216 217 
3 271 217 218 
3 217 317 218 
3 218 317 219 
3 218 219 220 
3 219 315 220 
3 220 315 222 
3 220 222 221 
3 222 313 221 
3 221 313 224 
3 221 224 223 
3 224 225 223 
3 223 225 226 
3 223 226 262 
3 226 227 262 
3 262 227 228 
3 262 228 229 
3 228 311 229 
3 229 311 230 
3 229 230 264 
3 230 231 264 
3 264 231 232 
3 264 232 265 
3 232 233 265 
3 265 233 234 
3 265 234 235 
3 234 310 235 
3 235 310 236 
3 235 236 268 
3 236 309 268 
3 268 309 237 
3 268 237 269 
3 239 240 238 
3 238 240 269 
3 238 269 308 
3 308 269 237 
3 239 307 240 
3 240 307 241 
3 240 241 258 
3 241 242 258 
3 258 242 243 
3 258 243 259 
3 243 244 259 
3 259 244 304 
3 259 304 246 
3 304 245 246 
3 246 245 303 
3 246 303 260 
3 303 302 260 
3 260 302 300 
3 260 300 247 
3 300 248 247 
3 247 248 299 
3 247 299 275 
3 299 249 275 
3 275 249 298 
3 275 298 276 
3 298 297 276 
3 276 297 250 
3 276 250 252 
3 250 295 252 
3 252 295 251 
3 252 251 278 
3 251 294 278 
3 278 294 253 
3 278 253 255 
3 253 292 255 
3 255 292 254 
3 255 254 282 
3 282 254 343 
3 282 343 256 
3 513 240 257 
3 257 240 258 
3 257 258 510 
3 510 258 259 
3 510 259 508 
3 508 259 246 
3 508 246 507 
3 507 246 260 
3 507 260 505 
3 505 260 247 
3 505 247 503 
3 274 262 261 
3 261 262 229 
3 261 229 263 
3 263 229 264 
3 263 264 515 
3 515 264 265 
3 515 265 266 
3 266 265 235 
3 266 235 267 
3 267 235 268 
3 267 268 513 
3 513 268 269 
3 513 269 240 
3 486 270 485 
3 485 270 215 
3 485 215 484 
3 484 215 271 
3 484 271 481 
3 481 271 218 
3 481 218 272 
3 272 218 220 
3 272 220 273 
3 273 220 221 
3 273 221 274 
3 274 221 223 
3 274 223 262 
3 247 275 503 
3 503 275 276 
3 503 276 502 
3 502 276 252 
3 502 252 277 
3 277 252 278 
3 277 278 279 
3 279 278 255 
3 279 255 280 
3 280 255 282 
3 280 282 281 
3 281 282 287 
3 281 287 289 
3 492 283 284 
3 284 283 199 
3 284 199 489 
3 489 199 200 
3 489 200 285 
3 285 200 204 
3 285 204 286 
3 286 204 206 
3 286 206 487 
3 487 206 208 
3 487 208 486 
3 486 208 211 
3 486 211 270 
3 287 288 289 
3 289 288 290 
3 289 290 500 
3 500 290 184 
3 500 184 498 
3 498 184 188 
3 498 188 496 
3 496 188 189 
3 496 189 495 
3 495 189 192 
3 495 192 493 
3 493 192 195 
3 493 195 492 
3 492 195 197 
3 492 197 283 
3 291 344 292 
3 292 253 291 
3 291 253 294 
3 291 294 293 
3 294 251 293 
3 293 251 295 
3 293 295 55 
3 295 250 55 
3 55 250 297 
3 55 297 296 
3 297 298 296 
3 296 298 249 
3 296 249 63 
3 249 299 63 
3 63 299 248 
3 63 248 301 
3 248 300 301 
3 301 300 302 
3 301 302 62 
3 302 303 62 
3 62 303 245 
3 62 245 68 
3 245 304 68 
3 68 304 244 
3 68 244 305 
3 244 243 305 
3 305 243 242 
3 305 242 66 
3 66 242 241 
3 66 241 306 
3 241 307 306 
3 306 307 239 
3 306 239 72 
3 239 238 72 
3 72 238 308 
3 72 308 71 
3 308 237 71 
3 71 237 309 
3 71 309 70 
3 309 236 70 
3 70 236 310 
3 70 310 89 
3 310 234 89 
3 89 234 233 
3 89 233 88 
3 233 232 88 
3 88 232 231 
3 88 231 86 
3 231 230 86 
3 86 230 311 
3 86 311 312 
3 311 228 312 
3 312 228 227 
3 312 227 80 
3 227 226 80 
3 80 226 225 
3 80 225 79 
3 225 224 79 
3 79 224 313 
3 79 313 74 
3 74 313 222 
3 74 222 314 
3 314 222 315 
3 314 315 316 
3 315 219 316 
3 316 219 317 
3 316 317 318 
3 317 217 318 
3 318 217 216 
3 318 216 321 
3 216 319 321 
3 321 319 320 
3 321 320 322 
3 320 214 322 
3 322 214 213 
3 322 213 323 
3 213 212 323 
3 323 212 325 
3 323 325 324 
3 325 210 324 
3 324 210 209 
3 324 209 106 
3 209 207 106 
3 106 207 326 
3 106 326 105 
3 326 205 105 
3 105 205 203 
3 105 203 103 
3 203 327 103 
3 103 327 202 
3 103 202 328 
3 202 201 328 
3 328 201 329 
3 328 329 60 
3 60 329 330 
3 60 330 332 
3 330 331 332 
3 332 331 198 
3 332 198 333 
3 198 196 333 
3 333 196 334 
3 333 334 335 
3 334 336 335 
3 335 336 194 
3 335 194 92 
3 194 193 92 
3 92 193 191 
3 92 191 91 
3 191 190 91 
3 91 190 337 
3 91 337 100 
3 337 187 100 
3 100 187 338 
3 100 338 99 
3 338 186 99 
3 99 186 339 
3 99 339 97 
3 339 185 97 
3 97 185 183 
3 97 183 110 
3 183 182 110 
3 110 182 341 
3 110 341 340 
3 341 181 340 
3 340 181 180 
3 340 180 342 
3 342 180 256 
3 342 256 107 
3 107 256 343 
3 107 343 344 
3 344 343 254 
3 344 254 292 
3 375 479 426 
3 426 479 345 
3 356 347 346 
3 346 347 348 
3 351 359 174 
3 174 359 425 
3 349 350 386 
3 386 350 385 
3 359 351 385 
3 447 386 375 
3 375 386 479 
3 356 352 353 
3 353 352 479 
3 353 479 480 
3 354 375 439 
3 439 375 438 
3 398 355 351 
3 414 415 359 
3 362 357 356 
3 356 357 478 
3 356 478 352 
3 431 433 358 
3 459 347 398 
3 415 416 359 
3 359 416 417 
3 359 417 424 
3 424 417 423 
3 460 360 356 
3 356 360 361 
3 356 361 362 
3 363 364 375 
3 375 364 365 
3 375 365 438 
3 363 429 364 
3 364 429 431 
3 364 431 436 
3 436 431 358 
3 354 366 375 
3 375 366 367 
3 375 367 444 
3 355 368 351 
3 351 368 369 
3 351 369 385 
3 385 369 499 
3 460 462 360 
3 360 462 370 
3 360 370 371 
3 371 465 360 
3 360 465 467 
3 360 467 372 
3 372 467 469 
3 469 373 372 
3 372 373 374 
3 372 374 472 
3 444 445 375 
3 375 445 446 
3 375 446 447 
3 499 497 385 
3 385 497 494 
3 385 494 376 
3 353 517 356 
3 356 517 377 
3 356 377 516 
3 396 501 347 
3 347 501 378 
3 347 378 398 
3 385 407 359 
3 359 407 408 
3 359 408 409 
3 417 379 423 
3 423 379 380 
3 423 380 419 
3 419 381 423 
3 423 381 420 
3 423 420 382 
3 351 448 398 
3 398 448 383 
3 398 383 450 
3 376 384 385 
3 385 384 491 
3 385 491 386 
3 516 514 356 
3 356 514 387 
3 356 387 512 
3 409 411 359 
3 359 411 412 
3 359 412 414 
3 512 388 356 
3 356 388 511 
3 356 511 347 
3 347 511 509 
3 347 509 395 
3 450 389 398 
3 398 389 390 
3 398 390 397 
3 391 398 392 
3 392 398 393 
3 391 394 398 
3 398 394 458 
3 398 458 459 
3 491 490 386 
3 386 490 488 
3 386 488 402 
3 395 506 347 
3 347 506 504 
3 347 504 396 
3 397 399 398 
3 398 399 400 
3 398 400 401 
3 401 455 398 
3 398 455 456 
3 398 456 393 
3 402 403 386 
3 386 403 404 
3 386 404 405 
3 405 483 386 
3 386 483 482 
3 386 482 479 
3 479 482 406 
3 479 406 480 
3 385 350 169 
3 385 169 407 
3 407 169 171 
3 407 171 408 
3 408 171 137 
3 408 137 409 
3 409 137 410 
3 409 410 411 
3 411 410 413 
3 411 413 412 
3 412 413 117 
3 412 117 414 
3 414 117 116 
3 414 116 415 
3 415 116 158 
3 415 158 416 
3 416 158 159 
3 416 159 417 
3 417 159 160 
3 417 160 379 
3 379 160 418 
3 379 418 380 
3 380 418 166 
3 380 166 419 
3 419 166 168 
3 419 168 381 
3 381 168 135 
3 381 135 420 
3 420 135 421 
3 420 421 382 
3 382 421 422 
3 382 422 423 
3 423 422 164 
3 423 164 424 
3 424 164 425 
3 424 425 359 
3 375 426 427 
3 375 427 363 
3 363 427 428 
3 363 428 429 
3 429 428 430 
3 429 430 431 
3 431 430 432 
3 431 432 433 
3 433 432 434 
3 433 434 358 
3 358 434 435 
3 358 435 436 
3 436 435 143 
3 436 143 364 
3 364 143 437 
3 364 437 365 
3 365 437 142 
3 365 142 438 
3 438 142 140 
3 438 140 439 
3 439 140 440 
3 439 440 354 
3 354 440 441 
3 354 441 366 
3 366 441 442 
3 366 442 367 
3 367 442 443 
3 367 443 444 
3 444 443 138 
3 444 138 445 
3 445 138 139 
3 445 139 446 
3 446 139 170 
3 446 170 447 
3 447 170 349 
3 447 349 386 
3 351 174 175 
3 351 175 448 
3 448 175 132 
3 448 132 383 
3 383 132 449 
3 383 449 450 
3 450 449 125 
3 450 125 389 
3 389 125 451 
3 389 451 390 
3 390 451 452 
3 390 452 397 
3 397 452 453 
3 397 453 399 
3 399 453 121 
3 399 121 400 
3 400 121 122 
3 400 122 401 
3 401 122 454 
3 401 454 455 
3 455 454 149 
3 455 149 456 
3 456 149 151 
3 456 151 393 
3 393 151 457 
3 393 457 392 
3 392 457 155 
3 392 155 391 
3 391 155 154 
3 391 154 394 
3 394 154 152 
3 394 152 458 
3 458 152 113 
3 458 113 459 
3 459 113 348 
3 459 348 347 
3 356 346 153 
3 356 153 460 
3 460 153 461 
3 460 461 462 
3 462 461 463 
3 462 463 370 
3 370 463 156 
3 370 156 371 
3 371 156 464 
3 371 464 465 
3 465 464 466 
3 465 466 467 
3 467 466 468 
3 467 468 469 
3 469 468 131 
3 469 131 373 
3 373 131 470 
3 373 470 374 
3 374 470 471 
3 374 471 472 
3 472 471 120 
3 472 120 372 
3 372 120 473 
3 372 473 360 
3 360 473 474 
3 360 474 361 
3 361 474 475 
3 361 475 362 
3 362 475 476 
3 362 476 357 
3 357 476 477 
3 357 477 478 
3 478 477 112 
3 478 112 352 
3 352 112 345 
3 352 345 479 
3 273 480 272 
3 272 480 406 
3 272 406 481 
3 481 406 482 
3 481 482 484 
3 484 482 483 
3 484 483 485 
3 485 483 405 
3 485 405 486 
3 486 405 404 
3 486 404 487 
3 487 404 403 
3 487 403 286 
3 286 403 402 
3 286 402 285 
3 285 402 488 
3 285 488 489 
3 489 488 490 
3 489 490 284 
3 284 490 491 
3 284 491 492 
3 492 491 384 
3 492 384 493 
3 493 384 376 
3 493 376 495 
3 495 376 494 
3 495 494 496 
3 496 494 497 
3 496 497 498 
3 498 497 499 
3 498 499 500 
3 500 499 369 
3 500 369 289 
3 289 369 368 
3 289 368 281 
3 281 368 355 
3 281 355 280 
3 280 355 398 
3 280 398 279 
3 279 398 378 
3 279 378 277 
3 277 378 501 
3 277 501 502 
3 502 501 396 
3 502 396 503 
3 503 396 504 
3 503 504 505 
3 505 504 506 
3 505 506 507 
3 507 506 395 
3 507 395 508 
3 508 395 509 
3 508 509 510 
3 510 509 511 
3 510 511 257 
3 257 511 388 
3 257 388 513 
3 513 388 512 
3 513 512 267 
3 267 512 387 
3 267 387 266 
3 266 387 514 
3 266 514 515 
3 515 514 516 
3 515 516 263 
3 263 516 377 
3 263 377 261 
3 261 377 517 
3 261 517 274 
3 274 517 353 
3 274 353 273 
3 273 353 480 
