ply
format ascii 1.0
comment VCGLIB generated
element vertex 668
property float x
property float y
property float z
element face 1340
property list uchar int vertex_indices
end_header
-0.079657 0.025657 0.016 
-0.003975 0.0035 0.016 
0.083443 0.030728 0.016 
-0.116 -0.0285 0.016 
-0.116 -0.002692 0.016 
0.083777 0.030523 0.016 
0.084075 0.030268 0.016 
0.079657 -0.025657 0.016 
0.115962 -0.028934 0.016 
0.114355 -0.030849 0.016 
-0.113934 -0.030962 0.016 
-0.084075 0.030268 0.016 
-0.083777 0.030523 0.016 
0.115728 -0.001557 0.016 
0.115107 -0.030415 0.016 
0.1135 -0.031 0.016 
0.113934 -0.030962 0.016 
0.028343 0.025657 0.016 
0.082699 0.030969 0.016 
0.08308 0.030878 0.016 
0.008975 0.0035 0.016 
-0.1135 -0.031 0.016 
-0.115849 -0.029355 0.016 
-0.004363 0.022051 0.016 
-0.004409 0.022309 0.016 
-0.004409 0.02257 0.016 
-0.003775 0.023668 0.016 
-0.003548 0.023799 0.016 
-0.003975 0.021379 0.016 
-0.003045 0.023934 0.016 
-0.002784 0.023934 0.016 
-0.002526 0.023888 0.016 
-0.002054 0.023668 0.016 
-0.004363 0.022828 0.016 
0.002054 0.023668 0.016 
0.00228 0.023799 0.016 
0.003975 0.021379 0.016 
0.002526 0.023888 0.016 
0.004143 0.021579 0.016 
0.003303 0.023888 0.016 
0.004409 0.02257 0.016 
0.008975 0.031 0.016 
0.075 -0.021 -0.02 
0.075299 0.019305 -0.02 
0.075168 0.019079 -0.02 
0.032832 0.0208 -0.02 
0.032572 -0.019754 -0.02 
0.028343 -0.025657 -0.02 
0.075299 -0.020573 -0.02 
0.075434 -0.02007 -0.02 
0.075388 -0.019551 -0.02 
0.032623 -0.019511 -0.02 
0.032593 -0.020247 -0.02 
0.073305 -0.021299 -0.02 
0.074573 -0.021299 -0.02 
0.0748 -0.021168 -0.02 
0.075388 0.020328 -0.02 
0.075299 0.020573 -0.02 
0.079657 -0.025657 -0.02 
0.075388 0.019551 -0.02 
0.033293 -0.021228 -0.02 
0.03284 -0.019068 -0.02 
0.032566 0.019809 -0.02 
0.032612 0.019551 -0.02 
0.032701 0.019305 -0.02 
0.033753 -0.021407 -0.02 
0.034489 -0.021377 -0.02 
0.073079 -0.021168 -0.02 
0.034932 -0.02116 -0.02 
0.074328 0.021388 -0.02 
0.072879 0.021 -0.02 
0.073305 0.021299 -0.02 
0.034449 0.021388 -0.02 
0.033427 0.021299 -0.02 
0.079657 0.025657 -0.02 
0.028343 0.025657 -0.02 
0.033 0.018879 -0.02 
0.032634 -0.020404 0.017366 
0.032563 -0.020001 0.017437 
0.032586 -0.020214 0.017414 
0.032563 0.019852 0.017437 
0.032615 0.020327 0.017385 
0.032776 -0.020705 0.017224 
0.032714 -0.0206 0.017286 
0.032667 -0.020483 0.017333 
0.032833 0.020799 0.017167 
0.03284 0.020811 0.01716 
0.032615 0.019552 0.017385 
0.032564 -0.019842 0.017436 
0.032575 -0.019754 0.017425 
0.032588 -0.019655 0.017412 
0.033 -0.018879 0.017 
0.032832 0.019079 0.017168 
0.033 0.018879 0.017 
0.032719 -0.019269 0.017281 
0.035121 0.021 0.017 
0.033427 0.021297 0.017297 
0.033973 0.021437 0.017437 
0.034158 0.021436 0.017436 
0.033596 0.021366 0.017366 
0.074037 0.021436 0.017436 
0.074327 0.021385 0.017385 
0.074414 0.021362 0.017362 
0.074572 0.021297 0.017297 
0.074811 0.02116 0.01716 
0.034191 0.021432 0.017432 
0.03 0.024 0.02 
0.073475 0.021366 0.017366 
0.034536 0.021362 0.017362 
0.073079 0.021168 0.017168 
0.073279 0.021286 0.017286 
0.072879 -0.021 0.017 
0.033999 -0.021436 0.017436 
0.074404 -0.021366 0.017366 
0.074327 -0.021385 0.017385 
0.034148 -0.021437 0.017437 
0.0748 -0.021168 0.017168 
0.074027 -0.021437 0.017437 
0.073842 -0.021436 0.017436 
0.033776 -0.021412 0.017412 
0.073655 -0.021412 0.017412 
0.034488 -0.021375 0.017375 
0.033517 -0.021334 0.017334 
0.03 -0.024 0.02 
0.03339 -0.021281 0.017281 
0.034719 -0.021287 0.017287 
0.073268 -0.021281 0.017281 
0.07308 -0.021167 0.017167 
0.035121 -0.021 0.017 
0.034921 -0.021168 0.017168 
0.075 0.018879 0.017 
0.075414 0.020214 0.017414 
0.075432 0.02007 0.017432 
0.075 0.021 0.017 
0.075432 -0.019809 0.017432 
0.075168 0.0208 0.017168 
0.075297 0.020573 0.017297 
0.075436 -0.020037 0.017436 
0.075385 -0.020327 0.017385 
0.075297 -0.020572 0.017297 
0.075281 -0.02061 0.017281 
0.075385 -0.019552 0.017385 
0.075167 -0.020799 0.017167 
0.078 -0.024 0.02 
0.07516 -0.020811 0.01716 
0.075 -0.021 0.017 
0.078 0.024 0.02 
0.075366 -0.019475 0.017366 
0.075412 0.019655 0.017412 
0.075385 0.019552 0.017385 
0.075281 0.019269 0.017281 
0.075 -0.018879 0.017 
0.07516 0.019068 0.01716 
0.075297 0.019306 0.017297 
-0.115962 -0.028934 -0.02 
-0.115415 -0.030107 -0.02 
-0.11475 -0.030665 -0.02 
-0.12 -0.035 -0.02 
0.115665 -0.02975 -0.02 
-0.12 0 -0.02 
0.114355 -0.030849 -0.02 
0.11475 -0.030665 -0.02 
0.115107 -0.030415 -0.02 
0.115878 -0.00192 -0.02 
-0.115523 -0.001223 -0.02 
0.115849 -0.029355 -0.02 
0.116 -0.0285 -0.02 
-0.115728 -0.001557 -0.02 
-0.115969 -0.002301 -0.02 
0.083443 0.030728 -0.02 
0.085 0.035 -0.02 
-0.08308 0.030878 -0.02 
-0.082699 0.030969 -0.02 
-0.083443 0.030728 -0.02 
-0.085 0.035 -0.02 
-0.084075 0.030268 -0.02 
0.115728 -0.001557 -0.02 
0.115522 -0.001223 -0.02 
0.115268 -0.000925 -0.02 
0.08308 0.030878 -0.02 
0.082699 0.030969 -0.02 
0.082308 0.031 -0.02 
-0.032566 0.02007 -0.02 
-0.0332 0.021168 -0.02 
-0.033672 0.021388 -0.02 
-0.034695 -0.021299 -0.02 
-0.034449 -0.021388 -0.02 
-0.033 -0.021 -0.02 
-0.032701 -0.020573 -0.02 
-0.032612 -0.020328 -0.02 
-0.032566 -0.02007 -0.02 
-0.075438 -0.020001 -0.02 
-0.028343 -0.025657 -0.02 
-0.032832 -0.019079 -0.02 
-0.032701 0.019305 -0.02 
-0.028343 0.025657 -0.02 
-0.035121 0.021 -0.02 
-0.075 -0.018879 -0.02 
-0.072879 -0.021 -0.02 
-0.035121 -0.021 -0.02 
-0.034921 -0.021168 -0.02 
-0.0748 0.021168 -0.02 
-0.075388 0.019551 -0.02 
-0.075287 -0.019281 -0.02 
-0.07516 -0.019068 -0.02 
-0.075337 -0.020485 -0.02 
-0.034449 0.021388 -0.02 
-0.075084 -0.020909 -0.02 
-0.074909 -0.021084 -0.02 
-0.073281 -0.021287 -0.02 
-0.073511 -0.021377 -0.02 
-0.079657 -0.025657 -0.02 
-0.073551 0.021388 -0.02 
-0.079657 0.025657 -0.02 
-0.074247 -0.021407 -0.02 
-0.03 0.024 0.02 
-0.12 0 0.02 
-0.12 -0.035 0.02 
0.12 -0.035 -0.02 
0.12 -0.035 0.02 
0.12 0 0.02 
0.12 0 -0.02 
0.085 0.035 0.02 
-0.085 0.035 0.02 
-0.075 0.018879 0.017 
-0.075 -0.018879 0.017 
-0.033 0.018879 -0.02 
-0.072879 0.021 0.017 
-0.035121 0.021 0.017 
-0.073852 0.021437 0.017437 
-0.033973 0.021437 0.017437 
-0.033786 0.021414 0.017414 
-0.074572 0.021297 0.017297 
-0.074414 0.021362 0.017362 
-0.074327 0.021385 0.017385 
-0.074224 0.021412 0.017412 
-0.0334 0.021286 0.017286 
-0.033 0.021 0.017 
-0.074811 0.02116 0.01716 
-0.078 0.024 0.02 
-0.073665 0.021414 0.017414 
-0.034535 0.021362 0.017362 
-0.073475 0.021366 0.017366 
-0.073279 0.021286 0.017286 
-0.034921 0.021167 0.017167 
-0.075406 -0.020247 0.017406 
-0.075412 -0.020224 0.017412 
-0.075414 0.020214 0.017414 
-0.075366 0.020404 0.017366 
-0.075297 0.020573 0.017297 
-0.075286 0.0206 0.017286 
-0.07516 -0.020811 0.01716 
-0.075281 -0.02061 0.017281 
-0.075168 0.0208 0.017168 
-0.075425 -0.019754 0.017425 
-0.075414 -0.019665 0.017414 
-0.075375 -0.019512 0.017375 
-0.07516 0.019068 0.01716 
-0.075167 0.019079 0.017167 
-0.075281 0.019269 0.017281 
-0.075366 -0.019475 0.017366 
-0.075286 -0.019279 0.017286 
-0.032564 0.020037 0.017436 
-0.032563 0.019852 0.017437 
-0.032615 0.020327 0.017385 
-0.032588 0.020224 0.017412 
-0.032563 -0.020027 0.017437 
-0.032568 -0.02007 0.017432 
-0.032568 -0.019809 0.017432 
-0.03 -0.024 0.02 
-0.032615 -0.020327 0.017385 
-0.032703 -0.020573 0.017297 
-0.032833 0.020799 0.017167 
-0.032719 0.02061 0.017281 
-0.032638 -0.019465 0.017362 
-0.032588 -0.019655 0.017412 
-0.032714 0.019279 0.017286 
-0.032833 -0.019079 0.017167 
-0.032719 -0.019269 0.017281 
-0.032634 0.019475 0.017366 
-0.033 -0.018879 0.017 
-0.032703 0.019306 0.017297 
-0.074027 -0.021437 0.017437 
-0.033963 -0.021436 0.017436 
-0.033776 -0.021412 0.017412 
-0.03393 -0.021432 0.017432 
-0.073655 -0.021412 0.017412 
-0.073754 -0.021425 0.017425 
-0.074001 -0.021437 0.017437 
-0.074404 -0.021366 0.017366 
-0.078 -0.024 0.02 
-0.0746 -0.021286 0.017286 
-0.074705 -0.021224 0.017224 
-0.074905 -0.02108 0.01708 
-0.033201 -0.021167 0.017167 
-0.03339 -0.021281 0.017281 
-0.034525 -0.021366 0.017366 
-0.073512 -0.021375 0.017375 
-0.034721 -0.021286 0.017286 
-0.072879 -0.021 0.017 
-0.116 -0.002692 -0.02 
-0.115268 -0.000925 -0.02 
-0.115962 -0.028934 0.016 
-0.116 -0.0285 -0.02 
-0.115849 -0.029355 -0.02 
-0.115665 -0.02975 0.016 
-0.115665 -0.02975 -0.02 
-0.115415 -0.030107 0.016 
-0.115107 -0.030415 -0.02 
-0.115107 -0.030415 0.016 
-0.11475 -0.030665 0.016 
-0.114355 -0.030849 0.016 
-0.114355 -0.030849 -0.02 
-0.113934 -0.030962 -0.02 
-0.1135 -0.031 -0.02 
-0.115268 -0.000925 0.016 
-0.115523 -0.001223 0.016 
-0.115728 -0.001557 0.016 
-0.115878 -0.00192 -0.02 
-0.115878 -0.00192 0.016 
-0.115969 -0.002301 0.016 
-0.082308 0.031 -0.02 
-0.082308 0.031 0.016 
-0.082699 0.030969 0.016 
-0.08308 0.030878 0.016 
-0.083443 0.030728 0.016 
-0.083777 0.030523 -0.02 
0.1135 -0.031 -0.02 
0.113934 -0.030962 -0.02 
0.11475 -0.030665 0.016 
0.115415 -0.030107 0.016 
0.115415 -0.030107 -0.02 
0.115665 -0.02975 0.016 
0.115849 -0.029355 0.016 
0.115962 -0.028934 -0.02 
0.116 -0.0285 0.016 
0.116 -0.002692 0.016 
0.116 -0.002692 -0.02 
0.115969 -0.002301 -0.02 
0.115969 -0.002301 0.016 
0.115878 -0.00192 0.016 
0.115522 -0.001223 0.016 
0.115268 -0.000925 0.016 
0.084075 0.030268 -0.02 
0.083777 0.030523 -0.02 
0.082308 0.031 0.016 
-0.07461 0.021281 0.017281 
-0.074328 0.021388 -0.02 
-0.074573 0.021299 -0.02 
-0.074037 0.021436 0.017436 
-0.07407 0.021432 0.017432 
-0.07407 0.021434 -0.02 
-0.073809 0.021432 0.017432 
-0.073809 0.021434 -0.02 
-0.073552 0.021385 0.017385 
-0.073305 0.021299 -0.02 
-0.073306 0.021297 0.017297 
-0.072879 0.021 -0.02 
-0.073079 0.021168 -0.02 
-0.073079 0.021168 0.017168 
-0.075 0.018879 -0.02 
-0.075168 0.019079 -0.02 
-0.075362 0.019465 0.017362 
-0.075299 0.019305 -0.02 
-0.075297 0.019306 0.017297 
-0.075412 0.019655 0.017412 
-0.075385 0.019552 0.017385 
-0.075437 0.020027 0.017437 
-0.075436 0.019842 0.017436 
-0.075432 0.019809 0.017432 
-0.075434 0.019809 -0.02 
-0.075432 0.02007 0.017432 
-0.075434 0.02007 -0.02 
-0.075388 0.020328 -0.02 
-0.075385 0.020327 0.017385 
-0.075299 0.020573 -0.02 
-0.074799 0.021167 0.017167 
-0.075 0.021 -0.02 
-0.075 0.021 0.017 
-0.075168 0.0208 -0.02 
-0.033 -0.018879 -0.02 
-0.03284 -0.019068 0.01716 
-0.032701 -0.019305 -0.02 
-0.032703 -0.019306 0.017297 
-0.032566 -0.019809 -0.02 
-0.032612 -0.019551 -0.02 
-0.032615 -0.019552 0.017385 
-0.032564 -0.019842 0.017436 
-0.032586 -0.020214 0.017414 
-0.032634 -0.020404 0.017366 
-0.032832 -0.0208 -0.02 
-0.032714 -0.0206 0.017286 
-0.033189 -0.02116 0.01716 
-0.033 -0.021 0.017 
-0.032832 -0.0208 0.017168 
-0.0332 -0.021168 -0.02 
-0.033672 -0.021388 -0.02 
-0.033427 -0.021299 -0.02 
-0.033428 -0.021297 0.017297 
-0.03393 -0.021434 -0.02 
-0.033673 -0.021385 0.017385 
-0.033586 -0.021362 0.017362 
-0.034148 -0.021437 0.017437 
-0.034191 -0.021432 0.017432 
-0.034335 -0.021414 0.017414 
-0.034191 -0.021434 -0.02 
-0.034448 -0.021385 0.017385 
-0.034694 -0.021297 0.017297 
-0.035121 -0.021 0.017 
-0.034921 -0.021168 0.017168 
-0.073068 -0.02116 0.01716 
-0.073068 -0.02116 -0.02 
-0.073269 -0.021281 0.017281 
-0.073281 -0.021286 0.017286 
-0.073754 -0.021428 -0.02 
-0.073465 -0.021362 0.017362 
-0.073842 -0.021436 0.017436 
-0.074247 -0.021406 0.017406 
-0.074001 -0.021438 -0.02 
-0.074214 -0.021414 0.017414 
-0.074707 -0.021228 -0.02 
-0.074483 -0.021333 0.017333 
-0.074485 -0.021337 -0.02 
-0.0748 -0.021168 0.017168 
-0.075 -0.021 0.017 
-0.07508 -0.020905 0.01708 
-0.075224 -0.020705 0.017224 
-0.075228 -0.020707 -0.02 
-0.075334 -0.020483 0.017334 
-0.075407 -0.020247 -0.02 
-0.075362 -0.020414 0.017362 
-0.075428 -0.019754 -0.02 
-0.075437 -0.019852 0.017437 
-0.075436 -0.020001 0.017436 
-0.075436 -0.020037 0.017436 
-0.075377 -0.019511 -0.02 
-0.075168 -0.019079 0.017168 
-0.075287 -0.019281 0.017287 
-0.075159 -0.019068 0.017159 
-0.034921 0.021168 -0.02 
-0.034932 0.02116 0.01716 
-0.034695 0.021299 -0.02 
-0.034694 0.021297 0.017297 
-0.034731 0.021281 0.017281 
-0.034345 0.021412 0.017412 
-0.034448 0.021385 0.017385 
-0.034158 0.021436 0.017436 
-0.034191 0.021432 0.017432 
-0.034191 0.021434 -0.02 
-0.03393 0.021432 0.017432 
-0.03393 0.021434 -0.02 
-0.033673 0.021385 0.017385 
-0.033596 0.021366 0.017366 
-0.033427 0.021299 -0.02 
-0.033427 0.021297 0.017297 
-0.032832 0.0208 -0.02 
-0.033 0.021 -0.02 
-0.03284 0.020811 0.01716 
-0.0332 0.021168 0.017168 
-0.032701 0.020573 -0.02 
-0.032703 0.020572 0.017297 
-0.032612 0.020328 -0.02 
-0.032638 0.020414 0.017362 
-0.032568 0.02007 0.017432 
-0.032568 0.019809 0.017432 
-0.032566 0.019809 -0.02 
-0.032586 0.019665 0.017414 
-0.032615 0.019552 0.017385 
-0.032612 0.019551 -0.02 
-0.033 0.018879 0.017 
-0.032832 0.019079 -0.02 
-0.032832 0.019079 0.017168 
0.072879 0.021 0.017 
0.073079 0.021168 -0.02 
0.073306 0.021297 0.017297 
0.073665 0.021414 0.017414 
0.073551 0.021388 -0.02 
0.073552 0.021385 0.017385 
0.07407 0.021434 -0.02 
0.073852 0.021437 0.017437 
0.073809 0.021434 -0.02 
0.073809 0.021432 0.017432 
0.07407 0.021432 0.017432 
0.074224 0.021412 0.017412 
0.074573 0.021299 -0.02 
0.0748 0.021168 -0.02 
0.07461 0.021281 0.017281 
0.075 0.021 -0.02 
0.074799 0.021167 0.017167 
0.075168 0.0208 -0.02 
0.075366 0.020404 0.017366 
0.075286 0.0206 0.017286 
0.075434 0.02007 -0.02 
0.075385 0.020327 0.017385 
0.075432 0.019809 0.017432 
0.075436 0.019842 0.017436 
0.075437 0.020027 0.017437 
0.075434 0.019809 -0.02 
0.075362 0.019465 0.017362 
0.075 0.018879 -0.02 
0.075167 0.019079 0.017167 
0.033 -0.021 0.017 
0.035121 -0.021 -0.02 
0.034932 -0.021159 0.017159 
0.034721 -0.021286 0.017286 
0.034525 -0.021366 0.017366 
0.03472 -0.021287 -0.02 
0.034335 -0.021414 0.017414 
0.033963 -0.021436 0.017436 
0.034246 -0.021428 -0.02 
0.034246 -0.021425 0.017425 
0.033999 -0.021438 -0.02 
0.033753 -0.021406 0.017406 
0.033586 -0.021362 0.017362 
0.033515 -0.021337 -0.02 
0.033095 -0.02108 0.01708 
0.033189 -0.02116 0.01716 
0.033295 -0.021224 0.017224 
0.033091 -0.021084 -0.02 
0.032916 -0.020909 -0.02 
0.03292 -0.020905 0.01708 
0.032832 -0.0208 0.017168 
0.032772 -0.020707 -0.02 
0.032663 -0.020485 -0.02 
0.032594 -0.020247 0.017406 
0.032562 -0.020001 -0.02 
0.032563 -0.020027 0.017437 
0.032638 -0.019465 0.017362 
0.032625 -0.019512 0.017375 
0.032713 -0.019281 -0.02 
0.032714 -0.019281 0.017286 
0.03284 -0.019068 0.01716 
0.033 -0.018879 -0.02 
0.075 -0.018879 -0.02 
0.075286 -0.019279 0.017286 
0.075168 -0.019079 -0.02 
0.075168 -0.019079 0.017168 
0.075297 -0.019306 0.017297 
0.075299 -0.019305 -0.02 
0.075432 -0.02007 0.017432 
0.075437 -0.019852 0.017437 
0.075434 -0.019809 -0.02 
0.075414 -0.019665 0.017414 
0.075412 -0.020224 0.017412 
0.075388 -0.020328 -0.02 
0.075362 -0.020414 0.017362 
0.075168 -0.0208 -0.02 
0.0746 -0.021286 0.017286 
0.074573 -0.021297 0.017297 
0.07407 -0.021434 -0.02 
0.074328 -0.021388 -0.02 
0.073809 -0.021432 0.017432 
0.073809 -0.021434 -0.02 
0.07407 -0.021432 0.017432 
0.074214 -0.021414 0.017414 
0.073552 -0.021385 0.017385 
0.073465 -0.021362 0.017362 
0.073551 -0.021388 -0.02 
0.073306 -0.021297 0.017297 
0.072879 -0.021 -0.02 
0.073068 -0.02116 0.01716 
0.032832 0.019079 -0.02 
0.032634 0.019475 0.017366 
0.032703 0.019306 0.017297 
0.032714 0.019279 0.017286 
0.032564 0.020037 0.017436 
0.032566 0.02007 -0.02 
0.032568 0.019809 0.017432 
0.032586 0.019665 0.017414 
0.032568 0.02007 0.017432 
0.032588 0.020224 0.017412 
0.032612 0.020328 -0.02 
0.032638 0.020414 0.017362 
0.032703 0.020572 0.017297 
0.032701 0.020573 -0.02 
0.032719 0.02061 0.017281 
0.033 0.021 -0.02 
0.033 0.021 0.017 
0.0334 0.021286 0.017286 
0.0332 0.021168 -0.02 
0.0332 0.021168 0.017168 
0.033672 0.021388 -0.02 
0.033673 0.021385 0.017385 
0.03393 0.021434 -0.02 
0.03393 0.021432 0.017432 
0.033786 0.021414 0.017414 
0.034191 0.021434 -0.02 
0.034345 0.021412 0.017412 
0.034448 0.021385 0.017385 
0.034694 0.021297 0.017297 
0.034695 0.021299 -0.02 
0.034921 0.021168 -0.02 
0.034731 0.021281 0.017281 
0.035121 0.021 -0.02 
0.034932 0.02116 0.01716 
0.034921 0.021167 0.017167 
0.003975 0.0035 0.016 
0.003975 0.0035 0.008 
-0.001854 0.0235 0.016 
-0.008975 0.0035 0.016 
-0.008975 0.031 0.008 
-0.008975 0.031 0.016 
-0.008975 0.0035 0.008 
-0.003045 0.023934 0.008 
-0.003303 0.023888 0.008 
-0.003548 0.023799 0.008 
-0.003975 0.021379 0.008 
-0.003975 0.0035 0.008 
0.008975 0.031 0.008 
0.003548 0.023799 0.008 
0.002784 0.023934 0.008 
0.002526 0.023888 0.008 
0.001854 0.0235 0.008 
0.002054 0.023668 0.008 
0.00228 0.023799 0.008 
-0.00228 0.023799 0.008 
0.008975 0.0035 0.008 
0.004143 0.021579 0.008 
0.004363 0.022051 0.008 
0.004363 0.022828 0.008 
-0.004363 0.022828 0.008 
0.001854 0.0235 0.016 
0.002784 0.023934 0.016 
0.003045 0.023934 0.008 
0.003045 0.023934 0.016 
0.003303 0.023888 0.008 
0.003548 0.023799 0.016 
0.003775 0.023668 0.016 
0.003775 0.023668 0.008 
0.003975 0.0235 0.008 
0.003975 0.0235 0.016 
0.004143 0.0233 0.008 
0.004274 0.023073 0.008 
0.004143 0.0233 0.016 
0.004274 0.023073 0.016 
0.004363 0.022828 0.016 
0.004409 0.02257 0.008 
0.004409 0.022309 0.008 
0.004409 0.022309 0.016 
0.004363 0.022051 0.016 
0.004274 0.021805 0.016 
0.004274 0.021805 0.008 
0.003975 0.021379 0.008 
-0.004143 0.021579 0.016 
-0.004143 0.021579 0.008 
-0.004274 0.021805 0.016 
-0.004274 0.021805 0.008 
-0.004363 0.022051 0.008 
-0.004409 0.022309 0.008 
-0.004409 0.02257 0.008 
-0.004274 0.023073 0.008 
-0.004274 0.023073 0.016 
-0.004143 0.0233 0.008 
-0.004143 0.0233 0.016 
-0.003975 0.0235 0.008 
-0.003975 0.0235 0.016 
-0.003775 0.023668 0.008 
-0.003303 0.023888 0.016 
-0.002784 0.023934 0.008 
-0.002526 0.023888 0.008 
-0.00228 0.023799 0.016 
-0.002054 0.023668 0.008 
-0.001854 0.0235 0.008 
0.079657 0.025657 0.016 
0.028343 -0.025657 0.016 
-0.028343 0.025657 0.016 
-0.028343 -0.025657 0.016 
-0.079657 -0.025657 0.016 
3 599 666 601 
3 601 666 665 
3 601 665 322 
3 322 665 0 
3 322 0 323 
3 339 336 7 
3 17 41 345 
3 32 598 28 
3 599 1 666 
3 666 1 596 
3 666 596 20 
3 12 325 0 
3 0 325 324 
3 0 324 323 
3 19 2 663 
3 10 311 3 
3 4 320 667 
3 667 320 319 
3 667 319 317 
3 2 5 663 
3 663 5 6 
3 663 6 7 
3 7 6 342 
3 7 342 341 
3 336 335 7 
3 7 335 8 
3 7 8 333 
3 329 9 7 
3 10 3 21 
3 317 316 667 
3 667 316 315 
3 667 315 0 
3 0 315 11 
3 0 11 12 
3 341 13 7 
3 7 13 340 
3 7 340 339 
3 329 7 14 
3 21 664 15 
3 15 664 7 
3 15 7 16 
3 16 7 9 
3 17 345 663 
3 663 345 18 
3 663 18 19 
3 34 36 621 
3 621 36 596 
3 621 596 598 
3 598 596 1 
3 598 1 28 
3 41 17 20 
3 20 17 664 
3 20 664 666 
3 666 664 21 
3 666 21 667 
3 667 21 3 
3 667 3 4 
3 310 309 311 
3 311 309 307 
3 311 307 305 
3 305 22 311 
3 311 22 302 
3 311 302 3 
3 645 23 643 
3 643 23 24 
3 643 24 25 
3 27 28 26 
3 26 28 643 
3 26 643 655 
3 655 643 653 
3 27 657 28 
3 28 657 29 
3 28 29 30 
3 30 31 28 
3 28 31 660 
3 28 660 32 
3 333 332 7 
3 7 332 330 
3 7 330 14 
3 25 33 643 
3 643 33 651 
3 643 651 653 
3 34 35 36 
3 36 35 37 
3 36 37 622 
3 627 630 38 
3 38 630 633 
3 633 634 38 
3 38 634 635 
3 38 635 40 
3 622 624 36 
3 36 624 39 
3 36 39 38 
3 38 39 626 
3 38 626 627 
3 40 638 38 
3 38 638 639 
3 38 639 640 
3 601 322 600 
3 600 322 321 
3 600 321 608 
3 608 321 181 
3 608 181 41 
3 41 181 345 
3 55 42 58 
3 535 533 499 
3 50 538 43 
3 43 538 535 
3 43 535 44 
3 44 535 499 
3 576 45 75 
3 561 76 532 
3 46 525 47 
3 42 546 58 
3 58 546 48 
3 58 48 544 
3 544 49 58 
3 58 49 541 
3 58 541 50 
3 45 574 75 
3 75 574 571 
3 75 571 566 
3 46 47 51 
3 525 52 47 
3 47 52 523 
3 47 523 522 
3 67 53 47 
3 47 53 557 
3 47 557 58 
3 58 557 552 
3 58 552 549 
3 549 550 58 
3 58 550 54 
3 58 54 55 
3 492 56 74 
3 74 56 57 
3 50 43 58 
3 58 43 59 
3 58 59 74 
3 74 59 497 
3 74 497 492 
3 57 489 74 
3 74 489 487 
3 74 487 485 
3 522 519 47 
3 47 519 518 
3 47 518 60 
3 502 559 68 
3 68 559 67 
3 561 532 64 
3 64 532 61 
3 64 61 529 
3 566 62 75 
3 75 62 63 
3 75 63 47 
3 47 63 64 
3 47 64 51 
3 51 64 529 
3 60 514 47 
3 47 514 65 
3 47 65 511 
3 511 509 47 
3 47 509 66 
3 47 66 67 
3 67 66 506 
3 67 506 68 
3 485 484 74 
3 74 484 69 
3 74 69 478 
3 583 581 75 
3 473 70 593 
3 71 590 72 
3 581 73 75 
3 75 73 579 
3 75 579 576 
3 478 480 74 
3 74 480 476 
3 74 476 75 
3 75 476 71 
3 71 72 75 
3 75 72 586 
3 75 586 583 
3 473 593 71 
3 71 593 591 
3 71 591 590 
3 93 91 76 
3 76 91 532 
3 84 77 123 
3 88 123 78 
3 78 123 526 
3 77 524 123 
3 123 524 79 
3 123 79 526 
3 568 567 106 
3 106 567 80 
3 106 80 565 
3 565 569 106 
3 106 569 570 
3 106 570 81 
3 563 562 527 
3 81 572 106 
3 106 572 573 
3 106 573 575 
3 521 123 520 
3 520 123 501 
3 521 82 123 
3 123 82 83 
3 123 83 84 
3 575 85 106 
3 106 85 86 
3 106 86 577 
3 123 562 106 
3 106 562 87 
3 106 87 568 
3 88 89 123 
3 123 89 90 
3 123 90 562 
3 562 90 528 
3 562 528 527 
3 527 92 564 
3 527 564 563 
3 94 531 93 
3 93 531 91 
3 92 527 93 
3 93 527 530 
3 93 530 94 
3 593 70 95 
3 95 70 472 
3 96 99 106 
3 584 97 106 
3 106 97 98 
3 99 582 106 
3 106 582 585 
3 106 585 584 
3 106 577 580 
3 475 481 146 
3 146 481 479 
3 146 479 100 
3 106 580 578 
3 106 578 96 
3 474 107 108 
3 100 482 146 
3 146 482 483 
3 146 483 101 
3 101 102 146 
3 146 102 103 
3 146 103 486 
3 106 107 146 
3 146 107 477 
3 146 477 475 
3 486 488 146 
3 146 488 104 
3 146 104 133 
3 98 105 106 
3 106 105 587 
3 106 587 107 
3 107 587 588 
3 107 588 108 
3 108 109 110 
3 108 110 474 
3 592 595 472 
3 472 595 594 
3 472 594 95 
3 109 108 472 
3 472 108 589 
3 472 589 592 
3 559 502 111 
3 111 502 128 
3 548 113 143 
3 112 508 123 
3 113 114 143 
3 143 114 554 
3 143 554 553 
3 143 145 116 
3 507 510 123 
3 123 510 115 
3 123 115 112 
3 143 116 547 
3 143 547 548 
3 553 117 143 
3 143 117 118 
3 143 118 551 
3 508 119 123 
3 123 119 512 
3 123 512 513 
3 551 120 143 
3 143 120 505 
3 143 505 123 
3 123 505 121 
3 123 121 507 
3 513 122 123 
3 123 122 124 
3 123 124 517 
3 517 516 123 
3 123 516 515 
3 123 515 501 
3 129 504 556 
3 120 555 505 
3 505 555 556 
3 505 556 125 
3 125 556 504 
3 558 126 128 
3 126 127 128 
3 128 127 560 
3 128 560 111 
3 558 128 556 
3 556 128 503 
3 556 503 129 
3 151 130 533 
3 533 130 499 
3 136 490 146 
3 132 496 146 
3 146 496 495 
3 490 493 146 
3 146 493 131 
3 146 131 132 
3 146 133 135 
3 542 134 143 
3 143 134 540 
3 143 540 137 
3 146 135 491 
3 146 491 136 
3 537 147 498 
3 137 539 143 
3 143 539 543 
3 143 543 138 
3 138 545 143 
3 143 545 139 
3 143 139 140 
3 146 147 143 
3 143 147 141 
3 143 141 542 
3 140 142 143 
3 143 142 144 
3 143 144 145 
3 495 494 146 
3 146 494 148 
3 146 148 147 
3 147 148 149 
3 147 149 498 
3 498 536 534 
3 498 534 537 
3 150 500 151 
3 151 500 152 
3 151 152 130 
3 536 498 151 
3 151 498 153 
3 151 153 150 
3 154 304 157 
3 157 304 306 
3 157 306 155 
3 155 308 157 
3 157 308 156 
3 157 156 312 
3 312 313 157 
3 157 313 314 
3 157 314 218 
3 218 314 327 
3 218 327 328 
3 162 331 218 
3 218 331 158 
3 218 158 165 
3 159 300 157 
3 157 300 303 
3 157 303 154 
3 328 160 218 
3 218 160 161 
3 218 161 162 
3 176 221 163 
3 163 221 338 
3 159 164 167 
3 165 334 218 
3 218 334 166 
3 218 166 221 
3 221 166 337 
3 221 337 338 
3 167 318 159 
3 159 318 168 
3 159 168 300 
3 179 170 169 
3 169 170 344 
3 173 174 171 
3 171 174 172 
3 173 326 174 
3 174 326 175 
3 174 175 159 
3 159 175 301 
3 159 301 164 
3 176 177 221 
3 221 177 178 
3 221 178 170 
3 170 178 343 
3 170 343 344 
3 179 180 170 
3 170 180 181 
3 170 181 174 
3 174 181 321 
3 174 321 172 
3 182 461 195 
3 195 461 459 
3 459 455 195 
3 195 455 456 
3 195 456 183 
3 183 453 195 
3 195 453 184 
3 195 184 450 
3 200 185 211 
3 211 185 186 
3 211 186 192 
3 186 405 192 
3 192 405 399 
3 192 399 396 
3 192 187 390 
3 390 188 192 
3 192 188 189 
3 192 189 190 
3 211 191 429 
3 396 397 192 
3 192 397 395 
3 192 395 187 
3 190 384 192 
3 192 384 385 
3 192 385 470 
3 470 385 382 
3 470 382 226 
3 226 382 193 
3 226 193 380 
3 470 194 192 
3 192 194 468 
3 192 468 195 
3 195 468 465 
3 195 465 182 
3 450 448 195 
3 195 448 206 
3 195 206 213 
3 439 196 357 
3 351 347 213 
3 213 347 348 
3 204 363 197 
3 197 363 361 
3 197 361 360 
3 198 199 411 
3 411 199 200 
3 411 200 209 
3 348 201 213 
3 213 201 377 
3 213 377 379 
3 379 375 213 
3 213 375 373 
3 213 373 372 
3 203 435 211 
3 211 435 431 
3 211 431 191 
3 372 370 213 
3 213 370 202 
3 213 202 211 
3 211 202 363 
3 211 363 203 
3 203 363 204 
3 429 205 211 
3 211 205 427 
3 211 427 207 
3 358 206 357 
3 357 206 441 
3 357 441 439 
3 207 208 211 
3 211 208 420 
3 211 420 422 
3 209 200 210 
3 210 200 211 
3 210 211 414 
3 358 355 206 
3 206 355 212 
3 206 212 213 
3 213 212 353 
3 213 353 351 
3 422 214 211 
3 211 214 418 
3 211 418 414 
3 146 222 223 
3 123 215 269 
3 146 223 106 
3 123 106 215 
3 215 106 223 
3 215 223 239 
3 239 223 216 
3 239 216 217 
3 143 219 146 
3 146 219 220 
3 146 220 222 
3 143 123 219 
3 219 123 269 
3 219 269 217 
3 217 269 290 
3 217 290 239 
3 217 216 157 
3 157 216 159 
3 219 217 218 
3 218 217 157 
3 220 219 221 
3 221 219 218 
3 222 220 170 
3 170 220 221 
3 223 222 174 
3 174 222 170 
3 216 223 159 
3 159 223 174 
3 360 224 197 
3 197 224 225 
3 408 199 299 
3 299 199 198 
3 380 280 226 
3 226 280 469 
3 227 357 228 
3 228 357 196 
3 349 229 239 
3 349 239 350 
3 230 449 215 
3 215 449 231 
3 215 231 451 
3 232 233 239 
3 451 452 215 
3 215 452 454 
3 215 454 236 
3 233 234 239 
3 239 234 235 
3 239 235 350 
3 444 447 215 
3 215 447 446 
3 215 446 230 
3 236 458 215 
3 215 458 237 
3 239 378 238 
3 238 376 239 
3 239 376 346 
3 239 346 232 
3 229 352 239 
3 239 352 240 
3 239 240 215 
3 215 240 354 
3 215 354 242 
3 442 241 242 
3 242 241 215 
3 215 241 445 
3 215 445 444 
3 243 359 228 
3 228 359 227 
3 440 244 242 
3 242 244 443 
3 242 443 442 
3 440 242 228 
3 228 242 356 
3 228 356 243 
3 432 290 433 
3 433 290 434 
3 428 430 290 
3 430 245 290 
3 290 245 246 
3 290 246 434 
3 367 371 239 
3 239 371 247 
3 239 247 374 
3 365 369 239 
3 239 369 368 
3 239 368 367 
3 374 248 239 
3 239 248 249 
3 239 249 250 
3 251 290 425 
3 425 290 424 
3 251 426 290 
3 290 426 252 
3 290 252 428 
3 250 253 239 
3 239 253 378 
3 432 254 290 
3 290 254 255 
3 290 255 239 
3 239 255 256 
3 239 256 260 
3 364 362 260 
3 260 362 239 
3 239 362 366 
3 239 366 365 
3 261 436 224 
3 224 436 438 
3 224 438 225 
3 257 258 260 
3 260 258 259 
3 260 259 364 
3 257 260 224 
3 224 260 437 
3 224 437 261 
3 262 263 215 
3 262 215 463 
3 460 462 215 
3 462 264 215 
3 215 264 265 
3 215 265 463 
3 266 267 269 
3 269 267 388 
3 269 388 270 
3 215 237 457 
3 275 268 269 
3 269 268 387 
3 269 387 266 
3 270 389 269 
3 269 389 271 
3 269 271 391 
3 457 272 215 
3 215 272 273 
3 215 273 460 
3 391 394 269 
3 269 394 393 
3 263 464 215 
3 215 464 466 
3 215 466 269 
3 269 466 467 
3 269 467 279 
3 383 274 279 
3 279 274 269 
3 269 274 386 
3 269 386 275 
3 276 471 280 
3 280 471 469 
3 381 277 279 
3 279 277 278 
3 279 278 383 
3 381 279 280 
3 280 279 281 
3 280 281 276 
3 288 282 290 
3 283 402 269 
3 283 269 285 
3 282 419 290 
3 290 419 417 
3 290 417 289 
3 398 401 269 
3 401 400 269 
3 269 400 284 
3 269 284 285 
3 286 287 290 
3 290 287 416 
3 290 416 288 
3 289 421 290 
3 290 421 291 
3 290 291 292 
3 292 423 290 
3 290 423 293 
3 290 293 424 
3 269 393 392 
3 392 294 269 
3 269 294 295 
3 269 295 398 
3 402 403 269 
3 269 403 404 
3 269 404 290 
3 290 404 406 
3 290 406 296 
3 410 412 296 
3 409 408 299 
3 412 413 296 
3 296 413 415 
3 296 415 290 
3 290 415 297 
3 290 297 286 
3 407 298 299 
3 299 298 409 
3 407 299 296 
3 296 299 410 
3 303 300 3 
3 3 300 4 
3 21 15 314 
3 314 15 327 
3 335 336 166 
3 166 336 337 
3 342 6 178 
3 178 6 343 
3 301 175 315 
3 315 175 11 
3 303 3 302 
3 303 302 154 
3 154 302 22 
3 154 22 304 
3 304 22 305 
3 304 305 306 
3 306 305 307 
3 306 307 155 
3 155 307 309 
3 155 309 308 
3 308 309 310 
3 308 310 156 
3 156 310 311 
3 156 311 312 
3 312 311 10 
3 312 10 313 
3 313 10 21 
3 313 21 314 
3 301 315 316 
3 301 316 164 
3 164 316 317 
3 164 317 167 
3 167 317 319 
3 167 319 318 
3 318 319 320 
3 318 320 168 
3 168 320 4 
3 168 4 300 
3 321 322 323 
3 321 323 172 
3 172 323 324 
3 172 324 171 
3 171 324 325 
3 171 325 173 
3 173 325 12 
3 173 12 326 
3 326 12 11 
3 326 11 175 
3 327 15 16 
3 327 16 328 
3 328 16 9 
3 328 9 160 
3 160 9 329 
3 160 329 161 
3 161 329 14 
3 161 14 162 
3 162 14 330 
3 162 330 331 
3 331 330 332 
3 331 332 158 
3 158 332 333 
3 158 333 165 
3 165 333 8 
3 165 8 334 
3 334 8 335 
3 334 335 166 
3 337 336 339 
3 337 339 338 
3 338 339 340 
3 338 340 163 
3 163 340 13 
3 163 13 176 
3 176 13 341 
3 176 341 177 
3 177 341 342 
3 177 342 178 
3 343 6 5 
3 343 5 344 
3 344 5 2 
3 344 2 169 
3 169 2 19 
3 169 19 179 
3 179 19 18 
3 179 18 180 
3 180 18 345 
3 180 345 181 
3 201 348 346 
3 347 233 348 
3 348 233 232 
3 348 232 346 
3 351 235 347 
3 347 235 234 
3 347 234 233 
3 229 349 351 
3 351 349 350 
3 351 350 235 
3 229 351 352 
3 352 351 353 
3 352 353 240 
3 240 353 212 
3 240 212 354 
3 354 212 242 
3 242 212 355 
3 242 355 356 
3 356 355 243 
3 243 355 358 
3 243 358 359 
3 357 227 358 
3 358 227 359 
3 224 360 257 
3 257 360 361 
3 363 259 361 
3 361 259 258 
3 361 258 257 
3 202 362 363 
3 363 362 364 
3 363 364 259 
3 370 365 202 
3 202 365 366 
3 202 366 362 
3 367 368 370 
3 370 368 369 
3 370 369 365 
3 367 370 371 
3 371 370 372 
3 371 372 247 
3 247 372 373 
3 247 373 374 
3 374 373 248 
3 248 373 375 
3 248 375 249 
3 249 375 250 
3 250 375 379 
3 250 379 253 
3 346 376 201 
3 201 376 238 
3 201 238 377 
3 377 238 378 
3 377 378 379 
3 379 378 253 
3 280 380 381 
3 381 380 193 
3 382 278 193 
3 193 278 277 
3 193 277 381 
3 385 274 382 
3 382 274 383 
3 382 383 278 
3 384 275 385 
3 385 275 386 
3 385 386 274 
3 266 387 384 
3 384 387 268 
3 384 268 275 
3 266 384 267 
3 267 384 190 
3 267 190 388 
3 388 190 189 
3 388 189 270 
3 270 189 389 
3 389 189 188 
3 389 188 271 
3 271 188 391 
3 391 188 390 
3 391 390 394 
3 395 392 187 
3 187 392 393 
3 187 393 390 
3 390 393 394 
3 397 295 395 
3 395 295 294 
3 395 294 392 
3 396 401 397 
3 397 401 398 
3 397 398 295 
3 399 284 396 
3 396 284 400 
3 396 400 401 
3 402 283 399 
3 399 283 285 
3 399 285 284 
3 402 399 403 
3 403 399 405 
3 403 405 404 
3 404 405 186 
3 404 186 406 
3 406 186 296 
3 296 186 185 
3 296 185 407 
3 407 185 298 
3 298 185 200 
3 298 200 409 
3 199 408 200 
3 200 408 409 
3 198 411 299 
3 299 411 410 
3 410 411 209 
3 410 209 412 
3 210 415 209 
3 209 415 413 
3 209 413 412 
3 414 286 210 
3 210 286 297 
3 210 297 415 
3 282 288 418 
3 418 288 416 
3 418 416 414 
3 414 416 287 
3 414 287 286 
3 422 289 214 
3 214 289 417 
3 214 417 418 
3 418 417 419 
3 418 419 282 
3 423 292 420 
3 420 292 291 
3 420 291 422 
3 422 291 421 
3 422 421 289 
3 423 420 293 
3 293 420 208 
3 293 208 424 
3 424 208 425 
3 425 208 207 
3 425 207 251 
3 251 207 427 
3 251 427 426 
3 426 427 252 
3 252 427 205 
3 252 205 428 
3 428 205 430 
3 430 205 429 
3 430 429 245 
3 245 429 246 
3 246 429 191 
3 246 191 434 
3 431 432 191 
3 191 432 433 
3 191 433 434 
3 435 255 431 
3 431 255 254 
3 431 254 432 
3 203 260 435 
3 435 260 256 
3 435 256 255 
3 438 436 203 
3 436 261 203 
3 203 261 437 
3 203 437 260 
3 203 204 438 
3 438 204 197 
3 438 197 225 
3 228 196 440 
3 440 196 439 
3 441 443 439 
3 439 443 244 
3 439 244 440 
3 206 241 441 
3 441 241 442 
3 441 442 443 
3 448 444 206 
3 206 444 445 
3 206 445 241 
3 230 446 448 
3 448 446 447 
3 448 447 444 
3 230 448 449 
3 449 448 450 
3 449 450 231 
3 231 450 184 
3 231 184 451 
3 451 184 452 
3 452 184 453 
3 452 453 454 
3 454 453 236 
3 236 453 183 
3 236 183 458 
3 455 457 456 
3 456 457 237 
3 456 237 183 
3 183 237 458 
3 459 273 455 
3 455 273 272 
3 455 272 457 
3 461 462 459 
3 459 462 460 
3 459 460 273 
3 182 265 461 
3 461 265 264 
3 461 264 462 
3 263 262 182 
3 182 262 463 
3 182 463 265 
3 263 182 464 
3 464 182 465 
3 464 465 466 
3 466 465 468 
3 466 468 467 
3 467 468 279 
3 279 468 194 
3 279 194 281 
3 281 194 276 
3 276 194 470 
3 276 470 471 
3 226 469 470 
3 470 469 471 
3 472 70 109 
3 109 70 473 
3 71 110 473 
3 473 110 109 
3 476 107 71 
3 71 107 474 
3 71 474 110 
3 480 475 476 
3 476 475 477 
3 476 477 107 
3 482 100 478 
3 478 100 479 
3 478 479 480 
3 480 479 481 
3 480 481 475 
3 482 478 483 
3 483 478 69 
3 483 69 101 
3 101 69 102 
3 102 69 484 
3 102 484 103 
3 103 484 486 
3 486 484 485 
3 486 485 488 
3 489 135 487 
3 487 135 133 
3 487 133 485 
3 485 133 104 
3 485 104 488 
3 57 491 489 
3 489 491 135 
3 56 490 57 
3 57 490 136 
3 57 136 491 
3 492 131 56 
3 56 131 493 
3 56 493 490 
3 494 495 497 
3 497 495 496 
3 497 496 492 
3 492 496 132 
3 492 132 131 
3 494 497 148 
3 148 497 59 
3 148 59 149 
3 149 59 498 
3 498 59 43 
3 498 43 153 
3 153 43 150 
3 150 43 44 
3 150 44 500 
3 499 130 44 
3 44 130 152 
3 44 152 500 
3 501 515 518 
3 502 68 128 
3 128 68 503 
3 503 68 129 
3 129 68 506 
3 129 506 504 
3 66 505 506 
3 506 505 125 
3 506 125 504 
3 509 507 66 
3 66 507 121 
3 66 121 505 
3 508 112 511 
3 511 112 115 
3 511 115 509 
3 509 115 510 
3 509 510 507 
3 508 511 119 
3 119 511 65 
3 119 65 512 
3 512 65 513 
3 513 65 514 
3 513 514 122 
3 122 514 124 
3 124 514 60 
3 124 60 517 
3 518 515 60 
3 60 515 516 
3 60 516 517 
3 501 518 520 
3 520 518 519 
3 520 519 521 
3 521 519 522 
3 521 522 82 
3 82 522 83 
3 83 522 523 
3 83 523 84 
3 84 523 77 
3 77 523 52 
3 77 52 524 
3 524 52 79 
3 79 52 525 
3 79 525 526 
3 46 88 525 
3 525 88 78 
3 525 78 526 
3 51 90 46 
3 46 90 89 
3 46 89 88 
3 529 527 51 
3 51 527 528 
3 51 528 90 
3 531 94 529 
3 529 94 530 
3 529 530 527 
3 529 61 531 
3 531 61 532 
3 531 532 91 
3 151 533 536 
3 536 533 535 
3 538 534 535 
3 535 534 536 
3 50 147 538 
3 538 147 537 
3 538 537 534 
3 541 542 50 
3 50 542 141 
3 50 141 147 
3 539 137 49 
3 49 137 540 
3 49 540 541 
3 541 540 134 
3 541 134 542 
3 539 49 543 
3 543 49 544 
3 543 544 138 
3 138 544 545 
3 545 544 48 
3 545 48 139 
3 139 48 140 
3 140 48 546 
3 140 546 142 
3 55 116 42 
3 42 116 145 
3 42 145 546 
3 546 145 144 
3 546 144 142 
3 54 547 55 
3 55 547 116 
3 550 113 54 
3 54 113 548 
3 54 548 547 
3 549 554 550 
3 550 554 114 
3 550 114 113 
3 551 118 552 
3 552 118 117 
3 552 117 549 
3 549 117 553 
3 549 553 554 
3 551 552 120 
3 120 552 557 
3 120 557 555 
3 555 557 556 
3 556 557 53 
3 556 53 558 
3 558 53 126 
3 126 53 67 
3 126 67 127 
3 559 111 67 
3 67 111 560 
3 67 560 127 
3 93 76 92 
3 92 76 561 
3 64 564 561 
3 561 564 92 
3 63 562 64 
3 64 562 563 
3 64 563 564 
3 62 568 63 
3 63 568 87 
3 63 87 562 
3 569 565 566 
3 566 565 80 
3 566 80 62 
3 62 80 567 
3 62 567 568 
3 569 566 570 
3 570 566 571 
3 570 571 81 
3 81 571 572 
3 572 571 574 
3 572 574 573 
3 573 574 575 
3 575 574 45 
3 575 45 85 
3 579 580 576 
3 576 580 577 
3 576 577 45 
3 45 577 86 
3 45 86 85 
3 73 578 579 
3 579 578 580 
3 581 99 73 
3 73 99 96 
3 73 96 578 
3 583 585 581 
3 581 585 582 
3 581 582 99 
3 105 98 586 
3 586 98 97 
3 586 97 583 
3 583 97 584 
3 583 584 585 
3 105 586 587 
3 587 586 72 
3 587 72 588 
3 588 72 108 
3 108 72 590 
3 108 590 589 
3 589 590 592 
3 592 590 591 
3 592 591 595 
3 593 95 591 
3 591 95 594 
3 591 594 595 
3 616 608 20 
3 20 608 41 
3 597 616 596 
3 596 616 20 
3 642 597 36 
3 36 597 596 
3 662 612 598 
3 598 612 621 
3 28 1 606 
3 606 1 607 
3 599 602 607 
3 599 607 1 
3 600 602 601 
3 599 601 602 
3 658 603 600 
3 600 603 604 
3 604 605 600 
3 600 605 656 
3 600 656 654 
3 619 632 608 
3 608 632 631 
3 608 609 625 
3 606 607 644 
3 644 607 602 
3 644 602 646 
3 631 629 608 
3 608 629 628 
3 608 628 609 
3 625 623 608 
3 608 623 610 
3 608 610 600 
3 600 610 611 
3 600 611 614 
3 612 662 613 
3 613 662 661 
3 613 661 614 
3 614 661 615 
3 614 615 600 
3 600 615 659 
3 600 659 658 
3 597 642 616 
3 616 642 617 
3 616 617 641 
3 641 618 616 
3 616 618 637 
3 616 637 608 
3 608 637 636 
3 608 636 619 
3 654 652 600 
3 600 652 650 
3 600 650 620 
3 620 649 600 
3 600 649 648 
3 600 648 602 
3 602 648 647 
3 602 647 646 
3 621 612 613 
3 621 613 34 
3 34 613 614 
3 34 614 35 
3 35 614 611 
3 35 611 37 
3 37 611 610 
3 37 610 622 
3 622 610 623 
3 622 623 624 
3 624 623 625 
3 624 625 39 
3 39 625 609 
3 39 609 626 
3 626 609 628 
3 626 628 627 
3 627 628 629 
3 627 629 630 
3 630 629 631 
3 630 631 633 
3 633 631 632 
3 633 632 634 
3 634 632 619 
3 634 619 635 
3 635 619 636 
3 635 636 40 
3 40 636 637 
3 40 637 638 
3 638 637 618 
3 638 618 639 
3 639 618 641 
3 639 641 640 
3 640 641 617 
3 640 617 38 
3 38 617 642 
3 38 642 36 
3 28 606 644 
3 28 644 643 
3 643 644 646 
3 643 646 645 
3 645 646 647 
3 645 647 23 
3 23 647 648 
3 23 648 24 
3 24 648 649 
3 24 649 25 
3 25 649 620 
3 25 620 33 
3 33 620 650 
3 33 650 651 
3 651 650 652 
3 651 652 653 
3 653 652 654 
3 653 654 655 
3 655 654 656 
3 655 656 26 
3 26 656 605 
3 26 605 27 
3 27 605 604 
3 27 604 657 
3 657 604 603 
3 657 603 29 
3 29 603 658 
3 29 658 30 
3 30 658 659 
3 30 659 31 
3 31 659 615 
3 31 615 660 
3 660 615 661 
3 660 661 32 
3 32 661 662 
3 32 662 598 
3 58 74 7 
3 7 74 663 
3 47 58 664 
3 664 58 7 
3 75 47 17 
3 17 47 664 
3 74 75 663 
3 663 75 17 
3 213 211 0 
3 0 211 667 
3 195 213 665 
3 665 213 0 
3 192 195 666 
3 666 195 665 
3 211 192 667 
3 667 192 666 
