ply
format ascii 1.0
comment VCGLIB generated
element vertex 464
property float x
property float y
property float z
element face 928
property list uchar int vertex_indices
end_header
-0.0225 0.00075 -0.001299 
-0.0225 -0.00141 -0.000513 
-0.0225 0.00141 0.000513 
-0.0225 -0.00026 0.001477 
-0.0225 -0.000513 0.00141 
-0.0225 -0.001149 -0.000964 
-0.0225 -0.00075 -0.001299 
-0.0225 -0.000513 -0.00141 
-0.0225 0.00026 -0.001477 
-0.0225 0.0175 -0.02 
-0.0225 0.00026 0.001477 
-0.0225 -0.00141 0.000513 
-0.0225 -0.001477 -0.00026 
-0.0175 0.0225 -0.02 
0.0225 0.00405 -0.00405 
0.0225 0.004563 -0.00396 
0.0225 -0.0175 -0.02 
0.0225 -0.005014 -0.003699 
0.0225 -0.0175 0.02 
0.0225 -0.0048 -0.003849 
0.0225 -0.005349 -0.0033 
0.0225 0.00555 -0.00255 
0.0225 0.00546 -0.003063 
0.0225 0.005199 -0.003514 
0.0225 0.005014 -0.003699 
0.0225 0.0048 -0.003849 
0.0225 -0.00431 0.001073 
0.0225 -0.00431 -0.001073 
0.0225 -0.005199 0.003514 
0.0225 -0.005014 0.003699 
0.0225 -0.0048 0.003849 
0.0225 0.004563 0.00396 
0.0225 0.0175 0.02 
0.0225 0.0175 -0.02 
0.0225 -0.005014 -0.001401 
0.0225 -0.0048 0.001251 
0.0225 0.005349 0.0033 
0.0225 -0.005527 -0.00229 
0.0225 -0.00546 -0.002037 
0.0225 -0.005349 -0.0018 
0.0225 0.005349 -0.0018 
0.0225 0.005527 -0.00229 
0.0225 0.00546 -0.002037 
0.0225 0.005527 0.00229 
0.0225 0.00431 -0.001073 
0.0225 0.00431 0.001073 
0.0225 0.0048 -0.001251 
0.0225 0.004563 0.00114 
-0.0225 -0.0175 -0.02 
-0.02183 -0.02 -0.02 
-0.018368 -0.022424 -0.02 
-0.00908 -0.01782 -0.02 
0.02 0.02183 -0.02 
0.020714 0.02133 -0.02 
0.011756 0.01618 -0.02 
0.0175 0.0225 -0.02 
-0.00618 -0.019021 -0.02 
-0.0175 -0.0225 -0.02 
0 -0.02 -0.02 
0.019754 -0.003129 -0.02 
0.02183 0.02 -0.02 
0.022424 0.018368 -0.02 
0.01618 0.011756 -0.02 
0.00618 0.019021 -0.02 
0.003129 0.019754 -0.02 
0 0.02 -0.02 
-0.00618 0.019021 -0.02 
-0.01782 0.00908 -0.02 
-0.019021 0.00618 -0.02 
-0.022424 -0.018368 -0.02 
-0.020714 -0.02133 -0.02 
-0.02 -0.02183 -0.02 
-0.02133 -0.020714 -0.02 
0.01618 -0.011756 -0.02 
-0.014142 0.014142 -0.02 
0.00908 -0.01782 -0.02 
0.018368 -0.022424 -0.02 
0.014142 -0.014142 -0.02 
0.02183 -0.02 -0.02 
0.02 -0.02183 -0.02 
-0.011756 0.01618 -0.02 
-0.01921 0.022198 -0.02 
-0.02 0.02183 -0.02 
-0.02133 0.020714 -0.02 
-0.020714 0.02133 -0.02 
-0.022424 0.018368 -0.02 
0.019021 0.00618 0.02 
0.02 0 0.02 
-0.0175 -0.0225 0.02 
0 -0.02 0.02 
0.022424 0.018368 0.02 
-0.014142 -0.014142 0.02 
-0.02 -0.02183 0.02 
0.02183 0.02 0.02 
0.02183 -0.02 0.02 
0.022424 -0.018368 0.02 
0.020714 -0.02133 0.02 
0.01921 -0.022198 0.02 
-0.02133 -0.020714 0.02 
-0.022198 -0.01921 0.02 
-0.01782 -0.00908 0.02 
-0.019754 -0.003129 0.02 
-0.02 0 0.02 
-0.019754 0.003129 0.02 
0.0175 0.0225 0.02 
0.018368 0.022424 0.02 
0.014142 0.014142 0.02 
0.020714 0.02133 0.02 
0.02 0.02183 0.02 
-0.020714 0.02133 0.02 
-0.01921 0.022198 0.02 
-0.018368 0.022424 0.02 
-0.011756 0.01618 0.02 
-0.0175 0.0225 0.02 
-0.0225 0.0175 0.02 
-0.01782 0.00908 0.02 
-0.01618 0.011756 0.02 
-0.022198 0.01921 0.02 
-0.018368 -0.022424 0.02 
-0.01921 -0.022198 -0.02 
-0.01921 -0.022198 0.02 
-0.020714 -0.02133 0.02 
-0.02183 -0.02 0.02 
-0.022198 -0.01921 -0.02 
-0.022424 -0.018368 0.02 
-0.0225 -0.0175 0.02 
0.022424 -0.018368 -0.02 
0.022198 -0.01921 0.02 
0.022198 -0.01921 -0.02 
0.02133 -0.020714 0.02 
0.02133 -0.020714 -0.02 
0.020714 -0.02133 -0.02 
0.02 -0.02183 0.02 
0.01921 -0.022198 -0.02 
0.018368 -0.022424 0.02 
0.0175 -0.0225 0.02 
0.0175 -0.0225 -0.02 
-0.022424 0.018368 0.02 
-0.022198 0.01921 -0.02 
-0.02183 0.02 0.02 
-0.02183 0.02 -0.02 
-0.02133 0.020714 0.02 
-0.02 0.02183 0.02 
-0.018368 0.022424 -0.02 
0.018368 0.022424 -0.02 
0.01921 0.022198 0.02 
0.01921 0.022198 -0.02 
0.02133 0.020714 0.02 
0.02133 0.020714 -0.02 
0.022198 0.01921 0.02 
0.022198 0.01921 -0.02 
-0.019021 0.00618 0.06 
-0.01782 0.00908 0.06 
-0.019021 -0.00618 0.06 
0.01618 0.011756 0.06 
-0.003129 -0.019754 0.06 
-0.01618 -0.011756 0.06 
-0.011756 -0.01618 0.06 
0.00908 -0.01782 0.06 
0.00618 -0.019021 0.06 
0 -0.02 0.06 
-0.014142 0.014142 0.06 
0.01782 -0.00908 0.06 
0 0.02 0.06 
0.019754 -0.003129 0.06 
0.019754 -0.003129 0.02 
0.019021 -0.00618 0.06 
0.019021 -0.00618 0.02 
0.01782 -0.00908 0.02 
0.01618 -0.011756 0.02 
0.01618 -0.011756 0.06 
0.014142 -0.014142 0.06 
0.014142 -0.014142 0.02 
0.011756 -0.01618 0.06 
0.011756 -0.01618 0.02 
0.00908 -0.01782 0.02 
0.00618 -0.019021 0.02 
0.003129 -0.019754 0.02 
0.003129 -0.019754 0.06 
-0.003129 -0.019754 0.02 
-0.00618 -0.019021 0.06 
-0.00908 -0.01782 0.06 
-0.00618 -0.019021 0.02 
-0.00908 -0.01782 0.02 
-0.014142 -0.014142 0.06 
-0.011756 -0.01618 0.02 
-0.01618 -0.011756 0.02 
-0.01782 -0.00908 0.06 
-0.019021 -0.00618 0.02 
-0.019754 -0.003129 0.06 
-0.02 0 0.06 
-0.019754 0.003129 0.06 
-0.019021 0.00618 0.02 
-0.01618 0.011756 0.06 
-0.014142 0.014142 0.02 
-0.011756 0.01618 0.06 
-0.00908 0.01782 0.06 
-0.00908 0.01782 0.02 
-0.00618 0.019021 0.06 
-0.00618 0.019021 0.02 
-0.003129 0.019754 0.06 
-0.003129 0.019754 0.02 
0 0.02 0.02 
0.003129 0.019754 0.02 
0.003129 0.019754 0.06 
0.00618 0.019021 0.06 
0.00618 0.019021 0.02 
0.00908 0.01782 0.02 
0.00908 0.01782 0.06 
0.011756 0.01618 0.06 
0.014142 0.014142 0.06 
0.011756 0.01618 0.02 
0.01618 0.011756 0.02 
0.01782 0.00908 0.02 
0.01782 0.00908 0.06 
0.019021 0.00618 0.06 
0.019754 0.003129 0.06 
0.019754 0.003129 0.02 
0.02 0 0.06 
0.019754 0.003129 -0.06 
0.02 0 -0.06 
0.019021 -0.00618 -0.06 
0.019021 -0.00618 -0.02 
0.01782 -0.00908 -0.02 
0.01782 -0.00908 -0.06 
0.01618 -0.011756 -0.06 
0.014142 -0.014142 -0.06 
0.011756 -0.01618 -0.06 
0.011756 -0.01618 -0.02 
0.00908 -0.01782 -0.06 
0.00618 -0.019021 -0.02 
0.00618 -0.019021 -0.06 
0.003129 -0.019754 -0.02 
0.003129 -0.019754 -0.06 
0 -0.02 -0.06 
-0.003129 -0.019754 -0.02 
-0.00618 -0.019021 -0.06 
-0.00908 -0.01782 -0.06 
-0.011756 -0.01618 -0.02 
-0.014142 -0.014142 -0.02 
-0.011756 -0.01618 -0.06 
-0.014142 -0.014142 -0.06 
-0.01618 -0.011756 -0.06 
-0.01618 -0.011756 -0.02 
-0.01782 -0.00908 -0.02 
-0.019021 -0.00618 -0.02 
-0.019754 -0.003129 -0.02 
-0.019021 -0.00618 -0.06 
-0.02 0 -0.02 
-0.019754 0.003129 -0.02 
-0.01618 0.011756 -0.02 
-0.01782 0.00908 -0.06 
-0.014142 0.014142 -0.06 
-0.00908 0.01782 -0.02 
-0.003129 0.019754 -0.02 
-0.00618 0.019021 -0.06 
-0.003129 0.019754 -0.06 
0.00618 0.019021 -0.06 
0.00908 0.01782 -0.02 
0.00908 0.01782 -0.06 
0.011756 0.01618 -0.06 
0.014142 0.014142 -0.06 
0.014142 0.014142 -0.02 
0.01618 0.011756 -0.06 
0.01782 0.00908 -0.02 
0.019021 0.00618 -0.02 
0.019754 0.003129 -0.02 
0.02 0 -0.02 
-0.01618 0.011756 -0.06 
-0.011756 0.01618 -0.06 
-0.019021 0.00618 -0.06 
-0.00908 0.01782 -0.06 
-0.019754 0.003129 -0.06 
-0.019754 -0.003129 -0.06 
-0.02 0 -0.06 
-0.01782 -0.00908 -0.06 
0 0.02 -0.06 
0.003129 0.019754 -0.06 
-0.003129 -0.019754 -0.06 
0.019021 0.00618 -0.06 
0.01782 0.00908 -0.06 
0.019754 -0.003129 -0.06 
0.0225 -0.00405 -0.00405 
0.0024 0.00405 -0.00405 
0.0024 -0.00405 0.00405 
0.0225 -0.00405 0.00405 
0.0225 0.00405 0.00105 
0.0024 -0.00431 -0.004027 
0.0024 0.00405 0.00405 
0.0024 0.00431 0.001073 
0.0024 0.00431 0.004027 
0.0024 0.004563 0.00396 
0.0024 0.0048 0.001251 
0.0024 0.0048 0.003849 
0.0024 0.005014 0.003699 
0.0024 0.005199 0.001586 
0.0024 0.00546 0.003063 
0.0024 0.005527 0.00229 
0.0024 -0.004563 -0.00396 
0.0024 0.005349 -0.0033 
0.0024 0.00405 -0.00105 
0.0024 -0.00431 -0.001073 
0.0024 -0.0048 -0.003849 
0.0024 0.005014 -0.003699 
0.0024 0.0048 -0.003849 
0.0024 0.004563 -0.00396 
0.0024 0.00546 -0.003063 
0.0024 0.005527 -0.00281 
0.0024 0.00141 -0.000513 
0.0024 0.001149 -0.000964 
0.0024 -0.00026 -0.001477 
0.0024 -0.00405 -0.00105 
0.0024 -0.000513 -0.00141 
0.0024 -0.005527 -0.00229 
0.0024 -0.004563 -0.00114 
0.0024 -0.005349 -0.0018 
0.0024 -0.005199 -0.003514 
0.0024 -0.00555 -0.00255 
0.0024 0.005527 -0.00229 
0.0024 0.00405 0.00105 
0.0024 0.001149 0.000964 
0.0024 0.001299 0.00075 
0.0024 -0.000964 0.001149 
0.0024 0.00075 -0.001299 
0.0024 0.00026 -0.001477 
0.0024 0 -0.0015 
0.0024 -0.005014 0.003699 
0.0024 -0.0048 0.003849 
0.0024 -0.004563 0.00396 
0.0024 0.00141 0.000513 
0.0024 0.001477 0.00026 
0.0024 -0.001477 -0.00026 
0.0024 -0.00405 0.00105 
0.0024 -0.005349 0.0018 
0.0024 0.004563 0.00114 
0.0225 0.0048 0.001251 
0.0024 0.005014 0.001401 
0.0225 0.005014 0.001401 
0.0225 0.005199 0.001586 
0.0024 0.005349 0.0018 
0.0225 0.005349 0.0018 
0.0024 0.00546 0.002037 
0.0225 0.00546 0.002037 
0.0225 0.00555 0.00255 
0.0024 0.00555 0.00255 
0.0225 0.005527 0.00281 
0.0225 0.00546 0.003063 
0.0024 0.005527 0.00281 
0.0024 0.005349 0.0033 
0.0225 0.005199 0.003514 
0.0024 0.005199 0.003514 
0.0225 0.005014 0.003699 
0.0225 0.0048 0.003849 
0.0225 0.00431 0.004027 
0.0225 0.00405 0.00405 
0.0225 -0.00431 0.004027 
0.0024 -0.00431 0.004027 
0.0225 -0.004563 0.00396 
0.0024 -0.005199 0.003514 
0.0225 -0.005349 0.0033 
0.0024 -0.005349 0.0033 
0.0225 -0.00546 0.003063 
0.0024 -0.00546 0.003063 
0.0225 -0.005527 0.00281 
0.0024 -0.005527 0.00281 
0.0225 -0.00555 0.00255 
0.0024 -0.00555 0.00255 
0.0225 -0.005527 0.00229 
0.0225 -0.00546 0.002037 
0.0024 -0.005527 0.00229 
0.0024 -0.00546 0.002037 
0.0225 -0.005349 0.0018 
0.0024 -0.005199 0.001586 
0.0225 -0.005199 0.001586 
0.0225 -0.005014 0.001401 
0.0024 -0.005014 0.001401 
0.0225 -0.004563 0.00114 
0.0024 -0.0048 0.001251 
0.0024 -0.004563 0.00114 
0.0024 -0.00431 0.001073 
0.0225 -0.00405 0.00105 
0.0024 0.00431 -0.004027 
0.0225 0.00431 -0.004027 
0.0024 0.005199 -0.003514 
0.0225 0.005349 -0.0033 
0.0225 0.005527 -0.00281 
0.0024 0.00555 -0.00255 
0.0024 0.00546 -0.002037 
0.0024 0.005349 -0.0018 
0.0024 0.005199 -0.001586 
0.0225 0.005199 -0.001586 
0.0225 0.005014 -0.001401 
0.0024 0.005014 -0.001401 
0.0024 0.0048 -0.001251 
0.0024 0.004563 -0.00114 
0.0225 0.004563 -0.00114 
0.0024 0.00431 -0.001073 
0.0225 0.00405 -0.00105 
0.0225 -0.00405 -0.00105 
0.0225 -0.004563 -0.00114 
0.0225 -0.0048 -0.001251 
0.0024 -0.0048 -0.001251 
0.0024 -0.005014 -0.001401 
0.0024 -0.005199 -0.001586 
0.0225 -0.005199 -0.001586 
0.0024 -0.00546 -0.002037 
0.0225 -0.00555 -0.00255 
0.0225 -0.005527 -0.00281 
0.0024 -0.005527 -0.00281 
0.0225 -0.00546 -0.003063 
0.0024 -0.00546 -0.003063 
0.0024 -0.005349 -0.0033 
0.0225 -0.005199 -0.003514 
0.0024 -0.005014 -0.003699 
0.0225 -0.004563 -0.00396 
0.0225 -0.00431 -0.004027 
0.0024 -0.00405 -0.00405 
-0.0225 0 -0.0015 
0.0024 0.000513 -0.00141 
-0.0225 0.000513 -0.00141 
-0.0225 0.000964 -0.001149 
0.0024 0.000964 -0.001149 
-0.0225 0.001149 -0.000964 
0.0024 0.001299 -0.00075 
-0.0225 0.001299 -0.00075 
-0.0225 0.00141 -0.000513 
-0.0225 0.001477 -0.00026 
0.0024 0.001477 -0.00026 
0.0024 0.0015 0 
-0.0225 0.0015 0 
-0.0225 0.001477 0.00026 
-0.0225 0.001299 0.00075 
-0.0225 0.001149 0.000964 
0.0024 0.000964 0.001149 
-0.0225 0.000964 0.001149 
0.0024 0.00075 0.001299 
-0.0225 0.00075 0.001299 
-0.0225 0.000513 0.00141 
0.0024 0.000513 0.00141 
0.0024 0.00026 0.001477 
0.0024 0 0.0015 
-0.0225 0 0.0015 
0.0024 -0.00026 0.001477 
0.0024 -0.000513 0.00141 
0.0024 -0.00075 0.001299 
-0.0225 -0.00075 0.001299 
-0.0225 -0.000964 0.001149 
0.0024 -0.001149 0.000964 
-0.0225 -0.001149 0.000964 
0.0024 -0.001299 0.00075 
0.0024 -0.00141 0.000513 
-0.0225 -0.001299 0.00075 
0.0024 -0.001477 0.00026 
0.0024 -0.0015 0 
-0.0225 -0.001477 0.00026 
-0.0225 -0.0015 0 
0.0024 -0.00141 -0.000513 
0.0024 -0.001299 -0.00075 
-0.0225 -0.001299 -0.00075 
0.0024 -0.001149 -0.000964 
0.0024 -0.000964 -0.001149 
0.0024 -0.00075 -0.001299 
-0.0225 -0.000964 -0.001149 
-0.0225 -0.00026 -0.001477 
3 419 0 9 
3 2 431 114 
3 12 1 48 
3 48 1 458 
3 48 458 5 
3 2 114 430 
3 3 4 125 
3 125 4 445 
3 445 446 125 
3 125 446 448 
3 125 448 451 
3 5 462 48 
3 48 462 6 
3 48 6 7 
3 7 463 48 
3 48 463 417 
3 48 417 9 
3 9 417 8 
3 9 8 419 
3 0 420 9 
3 9 420 422 
3 9 422 424 
3 431 432 114 
3 114 432 434 
3 114 434 436 
3 424 425 9 
3 9 425 426 
3 9 426 114 
3 114 426 429 
3 114 429 430 
3 436 437 114 
3 114 437 10 
3 114 10 125 
3 125 10 441 
3 125 441 3 
3 451 11 125 
3 125 11 454 
3 125 454 48 
3 48 454 455 
3 48 455 12 
3 113 104 13 
3 13 104 55 
3 282 16 14 
3 14 16 33 
3 14 33 382 
3 382 33 15 
3 412 16 17 
3 17 16 19 
3 359 28 18 
3 282 415 16 
3 16 415 414 
3 16 414 19 
3 412 20 16 
3 16 20 409 
3 16 409 407 
3 41 21 33 
3 33 21 385 
3 385 22 33 
3 33 22 384 
3 33 384 23 
3 23 24 33 
3 33 24 25 
3 33 25 15 
3 398 380 27 
3 27 380 26 
3 27 26 399 
3 399 26 400 
3 16 367 18 
3 18 367 365 
3 365 363 18 
3 18 363 361 
3 18 361 359 
3 35 374 34 
3 34 374 373 
3 34 373 371 
3 28 29 18 
3 18 29 30 
3 18 30 357 
3 353 31 32 
3 32 31 352 
3 32 352 351 
3 43 33 343 
3 343 33 32 
3 343 32 345 
3 345 32 346 
3 390 40 47 
3 400 26 34 
3 34 26 376 
3 34 376 35 
3 39 404 367 
3 367 404 34 
3 367 34 368 
3 368 34 371 
3 357 355 18 
3 18 355 285 
3 18 285 32 
3 32 285 354 
3 32 354 353 
3 351 349 32 
3 32 349 36 
3 32 36 346 
3 286 397 45 
3 45 397 44 
3 407 406 16 
3 16 406 37 
3 16 37 367 
3 367 37 38 
3 367 38 39 
3 340 338 40 
3 338 337 40 
3 40 337 335 
3 40 335 47 
3 41 33 42 
3 42 33 43 
3 42 43 40 
3 40 43 342 
3 40 342 340 
3 44 395 45 
3 45 395 46 
3 45 46 47 
3 47 46 391 
3 47 391 390 
3 57 136 88 
3 88 136 135 
3 249 248 9 
3 51 56 57 
3 53 148 262 
3 60 150 61 
3 9 248 48 
3 48 248 246 
3 48 246 245 
3 239 72 49 
3 50 239 57 
3 57 239 238 
3 57 238 51 
3 52 53 146 
3 146 53 262 
3 146 262 144 
3 144 262 54 
3 144 54 55 
3 55 54 258 
3 55 258 63 
3 56 235 57 
3 57 235 58 
3 57 58 136 
3 136 58 232 
3 136 232 230 
3 222 59 16 
3 16 59 267 
3 16 267 33 
3 33 267 266 
3 33 266 265 
3 148 60 262 
3 262 60 61 
3 262 61 62 
3 62 61 33 
3 62 33 264 
3 264 33 265 
3 63 64 55 
3 55 64 65 
3 55 65 13 
3 13 65 254 
3 13 254 66 
3 250 67 9 
3 9 67 68 
3 9 68 249 
3 245 244 48 
3 48 244 243 
3 48 243 69 
3 69 243 239 
3 69 239 123 
3 123 239 49 
3 70 72 71 
3 71 72 239 
3 71 239 119 
3 119 239 50 
3 77 73 16 
3 16 73 223 
3 16 223 222 
3 74 84 82 
3 230 75 136 
3 136 75 228 
3 136 228 76 
3 76 228 77 
3 16 126 77 
3 77 126 128 
3 77 128 78 
3 133 76 79 
3 79 76 77 
3 79 77 131 
3 131 77 78 
3 131 78 130 
3 66 253 13 
3 13 253 80 
3 13 80 143 
3 143 80 74 
3 143 74 81 
3 81 74 82 
3 83 84 140 
3 140 84 74 
3 140 74 138 
3 138 74 250 
3 138 250 85 
3 85 250 9 
3 213 86 32 
3 179 182 88 
3 86 217 32 
3 32 217 87 
3 32 87 18 
3 18 87 165 
3 18 165 167 
3 174 175 135 
3 103 192 114 
3 94 127 95 
3 174 135 172 
3 175 176 135 
3 135 176 177 
3 135 177 88 
3 88 177 89 
3 88 89 179 
3 90 106 32 
3 32 106 212 
3 32 212 213 
3 90 149 93 
3 172 96 129 
3 182 183 88 
3 88 183 185 
3 88 185 118 
3 118 185 91 
3 118 91 120 
3 120 91 98 
3 120 98 92 
3 92 98 121 
3 90 93 106 
3 106 93 147 
3 106 147 107 
3 129 94 172 
3 172 94 95 
3 172 95 169 
3 169 95 18 
3 169 18 168 
3 168 18 167 
3 132 96 97 
3 97 96 172 
3 97 172 134 
3 134 172 135 
3 122 98 99 
3 99 98 91 
3 99 91 124 
3 124 91 186 
3 124 186 125 
3 125 186 100 
3 100 188 125 
3 125 188 101 
3 125 101 114 
3 114 101 102 
3 114 102 103 
3 199 201 113 
3 113 201 202 
3 113 202 104 
3 104 202 203 
3 104 203 206 
3 206 207 104 
3 104 207 211 
3 104 211 105 
3 105 211 106 
3 105 106 145 
3 145 106 107 
3 145 107 108 
3 109 141 194 
3 194 141 139 
3 142 109 110 
3 110 109 194 
3 110 194 111 
3 111 194 112 
3 111 112 113 
3 113 112 197 
3 113 197 199 
3 192 115 114 
3 114 115 116 
3 114 116 137 
3 137 116 194 
3 137 194 117 
3 117 194 139 
3 57 88 118 
3 57 118 50 
3 50 118 120 
3 50 120 119 
3 119 120 92 
3 119 92 71 
3 71 92 121 
3 71 121 70 
3 70 121 98 
3 70 98 72 
3 72 98 122 
3 72 122 49 
3 49 122 99 
3 49 99 123 
3 123 99 124 
3 123 124 69 
3 69 124 125 
3 69 125 48 
3 16 18 95 
3 16 95 126 
3 126 95 127 
3 126 127 128 
3 128 127 94 
3 128 94 78 
3 78 94 129 
3 78 129 130 
3 130 129 96 
3 130 96 131 
3 131 96 132 
3 131 132 79 
3 79 132 97 
3 79 97 133 
3 133 97 134 
3 133 134 76 
3 76 134 135 
3 76 135 136 
3 9 114 137 
3 9 137 85 
3 85 137 117 
3 85 117 138 
3 138 117 139 
3 138 139 140 
3 140 139 141 
3 140 141 83 
3 83 141 109 
3 83 109 84 
3 84 109 142 
3 84 142 82 
3 82 142 110 
3 82 110 81 
3 81 110 111 
3 81 111 143 
3 143 111 113 
3 143 113 13 
3 55 104 105 
3 55 105 144 
3 144 105 145 
3 144 145 146 
3 146 145 108 
3 146 108 52 
3 52 108 107 
3 52 107 53 
3 53 107 147 
3 53 147 148 
3 148 147 93 
3 148 93 60 
3 60 93 149 
3 60 149 150 
3 150 149 90 
3 150 90 61 
3 61 90 32 
3 61 32 33 
3 162 166 164 
3 152 151 191 
3 215 214 154 
3 161 193 152 
3 190 189 153 
3 155 191 190 
3 161 164 195 
3 195 164 218 
3 190 153 155 
3 155 153 187 
3 155 187 156 
3 191 173 171 
3 210 209 154 
3 154 209 195 
3 154 195 215 
3 215 195 218 
3 215 218 216 
3 196 195 198 
3 198 195 163 
3 198 163 200 
3 180 155 181 
3 181 155 156 
3 181 156 157 
3 157 156 184 
3 158 173 159 
3 159 173 191 
3 159 191 178 
3 178 191 155 
3 178 155 160 
3 161 152 164 
3 164 152 191 
3 164 191 162 
3 162 191 171 
3 162 171 170 
3 204 163 205 
3 205 163 195 
3 205 195 208 
3 208 195 209 
3 217 218 87 
3 87 218 164 
3 87 164 165 
3 165 164 166 
3 165 166 167 
3 167 166 162 
3 167 162 168 
3 168 162 170 
3 168 170 169 
3 169 170 171 
3 169 171 172 
3 172 171 173 
3 172 173 174 
3 174 173 158 
3 174 158 175 
3 175 158 159 
3 175 159 176 
3 176 159 178 
3 176 178 177 
3 177 178 160 
3 177 160 89 
3 89 160 155 
3 89 155 179 
3 179 155 180 
3 179 180 182 
3 182 180 181 
3 182 181 183 
3 183 181 157 
3 183 157 185 
3 185 157 184 
3 185 184 91 
3 91 184 156 
3 91 156 186 
3 186 156 187 
3 186 187 100 
3 100 187 153 
3 100 153 188 
3 188 153 189 
3 188 189 101 
3 101 189 190 
3 101 190 102 
3 102 190 191 
3 102 191 103 
3 103 191 151 
3 103 151 192 
3 192 151 152 
3 192 152 115 
3 115 152 193 
3 115 193 116 
3 116 193 161 
3 116 161 194 
3 194 161 195 
3 194 195 112 
3 112 195 196 
3 112 196 197 
3 197 196 198 
3 197 198 199 
3 199 198 200 
3 199 200 201 
3 201 200 163 
3 201 163 202 
3 202 163 204 
3 202 204 203 
3 203 204 205 
3 203 205 206 
3 206 205 208 
3 206 208 207 
3 207 208 209 
3 207 209 211 
3 211 209 210 
3 211 210 106 
3 106 210 154 
3 106 154 212 
3 212 154 214 
3 212 214 213 
3 213 214 215 
3 213 215 86 
3 86 215 216 
3 86 216 217 
3 217 216 218 
3 219 267 220 
3 220 267 59 
3 220 59 281 
3 281 59 222 
3 281 222 221 
3 221 222 223 
3 221 223 224 
3 224 223 73 
3 224 73 225 
3 225 73 77 
3 225 77 226 
3 226 77 228 
3 226 228 227 
3 227 228 75 
3 227 75 229 
3 229 75 230 
3 229 230 231 
3 231 230 232 
3 231 232 233 
3 233 232 58 
3 233 58 234 
3 234 58 235 
3 234 235 278 
3 278 235 56 
3 278 56 236 
3 236 56 51 
3 236 51 237 
3 237 51 238 
3 237 238 240 
3 240 238 239 
3 240 239 241 
3 241 239 243 
3 241 243 242 
3 242 243 244 
3 242 244 275 
3 275 244 245 
3 275 245 247 
3 247 245 246 
3 247 246 273 
3 273 246 248 
3 273 248 274 
3 274 248 249 
3 274 249 272 
3 272 249 68 
3 272 68 270 
3 270 68 67 
3 270 67 251 
3 251 67 250 
3 251 250 268 
3 268 250 74 
3 268 74 252 
3 252 74 80 
3 252 80 269 
3 269 80 253 
3 269 253 271 
3 271 253 66 
3 271 66 255 
3 255 66 254 
3 255 254 256 
3 256 254 65 
3 256 65 276 
3 276 65 64 
3 276 64 277 
3 277 64 63 
3 277 63 257 
3 257 63 258 
3 257 258 259 
3 259 258 54 
3 259 54 260 
3 260 54 262 
3 260 262 261 
3 261 262 62 
3 261 62 263 
3 263 62 264 
3 263 264 280 
3 280 264 265 
3 280 265 279 
3 279 265 266 
3 279 266 219 
3 219 266 267 
3 268 252 269 
3 272 278 236 
3 270 251 281 
3 281 251 268 
3 270 281 272 
3 272 281 221 
3 272 221 224 
3 268 269 281 
3 281 269 271 
3 281 271 255 
3 224 225 226 
3 224 226 272 
3 272 226 227 
3 272 227 229 
3 241 242 240 
3 240 242 272 
3 240 272 237 
3 237 272 236 
3 273 274 247 
3 247 274 272 
3 247 272 275 
3 275 272 242 
3 255 256 281 
3 281 256 276 
3 281 276 277 
3 234 278 233 
3 233 278 272 
3 233 272 231 
3 231 272 229 
3 261 263 260 
3 260 263 281 
3 260 281 259 
3 259 281 277 
3 259 277 257 
3 219 220 279 
3 279 220 281 
3 279 281 280 
3 280 281 263 
3 416 282 283 
3 283 282 14 
3 311 332 398 
3 398 332 380 
3 288 354 284 
3 284 354 285 
3 397 286 300 
3 300 286 319 
3 394 396 300 
3 287 416 310 
3 310 416 325 
3 284 319 288 
3 288 319 289 
3 288 289 290 
3 290 289 334 
3 290 334 291 
3 291 334 292 
3 291 292 293 
3 293 292 336 
3 293 336 294 
3 294 336 295 
3 294 295 350 
3 350 295 339 
3 350 339 348 
3 348 339 341 
3 348 341 296 
3 296 341 297 
3 296 297 347 
3 347 297 344 
3 311 298 287 
3 300 299 306 
3 427 308 300 
3 416 283 300 
3 300 283 381 
3 300 381 305 
3 440 439 284 
3 317 311 313 
3 313 311 301 
3 313 301 314 
3 298 311 302 
3 302 311 316 
3 302 316 413 
3 383 299 303 
3 303 299 300 
3 303 300 304 
3 304 300 305 
3 306 307 300 
3 300 307 386 
3 300 386 318 
3 308 423 300 
3 300 423 309 
3 300 309 421 
3 287 310 311 
3 311 310 312 
3 311 312 461 
3 405 313 315 
3 315 313 314 
3 315 314 403 
3 403 314 401 
3 403 401 402 
3 461 460 311 
3 311 460 459 
3 311 459 457 
3 411 316 410 
3 410 316 311 
3 410 311 408 
3 408 311 317 
3 393 394 392 
3 392 394 300 
3 392 300 389 
3 389 300 318 
3 389 318 388 
3 388 318 387 
3 284 439 319 
3 319 439 438 
3 319 438 435 
3 435 433 319 
3 319 433 320 
3 319 320 321 
3 452 450 332 
3 332 450 449 
3 449 447 332 
3 332 447 322 
3 332 322 444 
3 440 284 442 
3 442 284 356 
3 442 356 328 
3 362 364 360 
3 360 364 442 
3 421 323 300 
3 300 323 418 
3 300 418 416 
3 416 418 324 
3 416 324 325 
3 358 360 326 
3 326 360 442 
3 326 442 327 
3 327 442 328 
3 364 366 442 
3 442 366 369 
3 442 369 370 
3 321 329 319 
3 319 329 330 
3 319 330 300 
3 300 330 428 
3 300 428 427 
3 457 456 311 
3 311 456 331 
3 311 331 332 
3 332 331 453 
3 332 453 452 
3 444 443 332 
3 332 443 442 
3 332 442 379 
3 379 442 377 
3 379 377 378 
3 375 377 372 
3 372 377 442 
3 372 442 333 
3 333 442 370 
3 319 286 45 
3 319 45 289 
3 289 45 47 
3 289 47 334 
3 334 47 335 
3 334 335 292 
3 292 335 337 
3 292 337 336 
3 336 337 338 
3 336 338 295 
3 295 338 340 
3 295 340 339 
3 339 340 342 
3 339 342 341 
3 341 342 43 
3 341 43 297 
3 297 43 343 
3 297 343 344 
3 344 343 345 
3 344 345 347 
3 347 345 346 
3 347 346 296 
3 296 346 36 
3 296 36 348 
3 348 36 349 
3 348 349 350 
3 350 349 351 
3 350 351 294 
3 294 351 352 
3 294 352 293 
3 293 352 31 
3 293 31 291 
3 291 31 353 
3 291 353 290 
3 290 353 354 
3 290 354 288 
3 284 285 355 
3 284 355 356 
3 356 355 357 
3 356 357 328 
3 328 357 30 
3 328 30 327 
3 327 30 29 
3 327 29 326 
3 326 29 28 
3 326 28 358 
3 358 28 359 
3 358 359 360 
3 360 359 361 
3 360 361 362 
3 362 361 363 
3 362 363 364 
3 364 363 365 
3 364 365 366 
3 366 365 367 
3 366 367 369 
3 369 367 368 
3 369 368 370 
3 370 368 371 
3 370 371 333 
3 333 371 373 
3 333 373 372 
3 372 373 374 
3 372 374 375 
3 375 374 35 
3 375 35 377 
3 377 35 376 
3 377 376 378 
3 378 376 26 
3 378 26 379 
3 379 26 380 
3 379 380 332 
3 283 14 382 
3 283 382 381 
3 381 382 15 
3 381 15 305 
3 305 15 25 
3 305 25 304 
3 304 25 24 
3 304 24 303 
3 303 24 23 
3 303 23 383 
3 383 23 384 
3 383 384 299 
3 299 384 22 
3 299 22 306 
3 306 22 385 
3 306 385 307 
3 307 385 21 
3 307 21 386 
3 386 21 41 
3 386 41 318 
3 318 41 42 
3 318 42 387 
3 387 42 40 
3 387 40 388 
3 388 40 390 
3 388 390 389 
3 389 390 391 
3 389 391 392 
3 392 391 46 
3 392 46 393 
3 393 46 395 
3 393 395 394 
3 394 395 44 
3 394 44 396 
3 396 44 397 
3 396 397 300 
3 311 398 27 
3 311 27 301 
3 301 27 399 
3 301 399 314 
3 314 399 400 
3 314 400 401 
3 401 400 34 
3 401 34 402 
3 402 34 404 
3 402 404 403 
3 403 404 39 
3 403 39 315 
3 315 39 38 
3 315 38 405 
3 405 38 37 
3 405 37 313 
3 313 37 406 
3 313 406 317 
3 317 406 407 
3 317 407 408 
3 408 407 409 
3 408 409 410 
3 410 409 20 
3 410 20 411 
3 411 20 412 
3 411 412 316 
3 316 412 17 
3 316 17 413 
3 413 17 19 
3 413 19 302 
3 302 19 414 
3 302 414 298 
3 298 414 415 
3 298 415 287 
3 287 415 282 
3 287 282 416 
3 463 325 417 
3 417 325 324 
3 417 324 8 
3 8 324 418 
3 8 418 419 
3 419 418 323 
3 419 323 0 
3 0 323 421 
3 0 421 420 
3 420 421 309 
3 420 309 422 
3 422 309 423 
3 422 423 424 
3 424 423 308 
3 424 308 425 
3 425 308 427 
3 425 427 426 
3 426 427 428 
3 426 428 429 
3 429 428 330 
3 429 330 430 
3 430 330 329 
3 430 329 2 
3 2 329 321 
3 2 321 431 
3 431 321 320 
3 431 320 432 
3 432 320 433 
3 432 433 434 
3 434 433 435 
3 434 435 436 
3 436 435 438 
3 436 438 437 
3 437 438 439 
3 437 439 10 
3 10 439 440 
3 10 440 441 
3 441 440 442 
3 441 442 3 
3 3 442 443 
3 3 443 4 
3 4 443 444 
3 4 444 445 
3 445 444 322 
3 445 322 446 
3 446 322 447 
3 446 447 448 
3 448 447 449 
3 448 449 451 
3 451 449 450 
3 451 450 11 
3 11 450 452 
3 11 452 454 
3 454 452 453 
3 454 453 455 
3 455 453 331 
3 455 331 12 
3 12 331 456 
3 12 456 1 
3 1 456 457 
3 1 457 458 
3 458 457 459 
3 458 459 5 
3 5 459 460 
3 5 460 462 
3 462 460 461 
3 462 461 6 
3 6 461 312 
3 6 312 7 
3 7 312 310 
3 7 310 463 
3 463 310 325 
